<?xml version="1.0" encoding="utf-8"?>
<!-- Generator: Adobe Illustrator 24.0.1, SVG Export Plug-In . SVG Version: 6.00 Build 0)  -->
<svg version="1.1" id="Layer_1" xmlns="http://www.w3.org/2000/svg" xmlns:xlink="http://www.w3.org/1999/xlink" x="0px" y="0px"
	 viewBox="0 0 53.6 58.9" style="enable-background:new 0 0 53.6 58.9;" xml:space="preserve">
<style type="text/css">
	.st0{fill:#F7C56B;stroke:#990D1D;stroke-width:2;stroke-miterlimit:10;}
</style>
<path class="st0" d="M51.7,26.9c0,18.6-11.9,17.8-13.3,17.8c-1.7,0-3.1-0.3-4.4-1.1c-1.1-0.8-2.2-1.7-2.8-3.1
	c-1.1,1.4-2.2,2.5-3.6,3.1c-1.4,0.8-2.8,1.1-4.4,1.1c-1.4,0-2.8-0.3-3.9-0.8c-1.1-0.6-2.2-1.7-2.8-2.8c-0.8-1.1-1.4-2.5-1.7-4.2
	c-0.3-1.7-0.3-3.6-0.3-5.6c0.3-2.5,0.8-4.7,1.7-6.9c0.8-1.9,1.9-3.9,3.1-5.3c1.1-1.4,2.5-2.5,4.2-3.3c1.7-0.8,3.3-1.1,5-1.1
	c5.6,0,8.6,2.8,9.2,3.3l-1.4,17.2c0,1.1-0.6,5,3.1,5c1.1,0,6.7-1.4,6.7-13.1c0-0.3,2.5-19.4-18.3-19.4C10.9,7.4,7.3,23.8,7.3,29.6
	C7.3,53,22,51.9,26.7,51.9c5.6,0,8.6-1.1,9.2-1.4l1.1,5c-0.6,0.6-3.3,1.9-10.3,1.9c-8.6,0-25-0.3-25-27.8C1.7,25.7,4,1.9,28.1,1.9
	C51.2,1.9,51.7,23,51.7,26.9z M21.5,31.3c-0.3,2.5,0,4.7,0.6,6.1s1.7,1.9,3.3,1.9c3.1,0,4.7-3.9,5-5l1.4-14.2
	c-0.3,0-1.9-0.3-2.5-0.3C27,19.9,25.1,21,24,23C22.6,24.6,21.7,27.4,21.5,31.3z"/>
</svg>
