<?xml version="1.0" encoding="utf-8"?>
<!-- Generator: Adobe Illustrator 24.0.1, SVG Export Plug-In . SVG Version: 6.00 Build 0)  -->
<svg version="1.1" id="Capa_1" xmlns="http://www.w3.org/2000/svg" xmlns:xlink="http://www.w3.org/1999/xlink" x="0px" y="0px"
	 viewBox="0 0 55.7 77.4" style="enable-background:new 0 0 55.7 77.4;" xml:space="preserve">
<style type="text/css">
	.st0{fill:#F7C56B;stroke:#990D1D;stroke-width:3;stroke-miterlimit:10;}
</style>
<g>
	<path class="st0" d="M28.8,3.6c-13.8,0-25,11.2-25,25c0,13.3,22.7,44.3,23.6,45.6l0.9,1.2c0.1,0.1,0.3,0.2,0.5,0.2s0.3-0.1,0.5-0.2
		l0.9-1.2c1-1.3,23.6-32.3,23.6-45.6C53.8,14.9,42.5,3.6,28.8,3.6z M28.8,19.7c4.9,0,9,4,9,9c0,4.9-4,9-9,9s-9-4-9-9
		C19.8,23.7,23.8,19.7,28.8,19.7z"/>
</g>
</svg>
