<?xml version="1.0" encoding="utf-8"?>
<!-- Generator: Adobe Illustrator 24.0.1, SVG Export Plug-In . SVG Version: 6.00 Build 0)  -->
<svg version="1.1" id="Capa_1" xmlns="http://www.w3.org/2000/svg" xmlns:xlink="http://www.w3.org/1999/xlink" x="0px" y="0px"
	 viewBox="0 0 32 100" style="enable-background:new 0 0 32 100;" xml:space="preserve">
<style type="text/css">
	.st0{fill:#FFC565;stroke:#990D1D;stroke-width:2;stroke-linejoin:round;stroke-miterlimit:10;}
</style>
<g>
	<g>
		<polygon class="st0" points="27.3,9 15.9,9 4.5,9 1.1,15.7 15.9,15.7 30.7,15.7 		"/>
		<polygon class="st0" points="27.3,22.3 15.9,22.3 4.5,22.3 1.1,15.6 15.9,15.6 30.7,15.6 		"/>
	</g>
	<g>
		<polygon class="st0" points="27.3,22.3 15.9,22.3 4.5,22.3 1.1,29 15.9,29 30.7,29 		"/>
		<polygon class="st0" points="27.3,35.6 15.9,35.6 4.5,35.6 1.1,28.9 15.9,28.9 30.7,28.9 		"/>
	</g>
	<g>
		<polygon class="st0" points="27.3,35.6 15.9,35.6 4.5,35.6 1.1,42.3 15.9,42.3 30.7,42.3 		"/>
		<polygon class="st0" points="27.3,48.9 15.9,48.9 4.5,48.9 1.1,42.2 15.9,42.2 30.7,42.2 		"/>
	</g>
	<g>
		<polygon class="st0" points="27.3,48.9 15.9,48.9 4.5,48.9 1.1,55.6 15.9,55.6 30.7,55.6 		"/>
		<polygon class="st0" points="27.3,62.2 15.9,62.2 4.5,62.2 1.1,55.5 15.9,55.5 30.7,55.5 		"/>
	</g>
	<g>
		<polygon class="st0" points="27.3,62.2 15.9,62.2 4.5,62.2 1.1,68.9 15.9,68.9 30.7,68.9 		"/>
		<polygon class="st0" points="27.3,75.5 15.9,75.5 4.5,75.5 1.1,68.8 15.9,68.8 30.7,68.8 		"/>
	</g>
	<line class="st0" x1="15.9" y1="75.5" x2="15.9" y2="85.3"/>
	<line class="st0" x1="15.9" y1="0" x2="15.9" y2="9.8"/>
	<path class="st0" d="M13.8,87.4c0-1.1,0.9-2.1,2.1-2.1c1.1,0,2.1,0.9,2.1,2.1H13.8z"/>
	<line class="st0" x1="13.8" y1="87.4" x2="13.8" y2="100"/>
	<line class="st0" x1="15.9" y1="87.4" x2="15.9" y2="100"/>
	<line class="st0" x1="18" y1="87.4" x2="18" y2="100"/>
</g>
</svg>
