<?xml version="1.0" encoding="utf-8"?>
<!-- Generator: Adobe Illustrator 24.0.1, SVG Export Plug-In . SVG Version: 6.00 Build 0)  -->
<svg version="1.1" id="Capa_1" xmlns="http://www.w3.org/2000/svg" xmlns:xlink="http://www.w3.org/1999/xlink" x="0px" y="0px"
	 viewBox="0 0 86 39" style="enable-background:new 0 0 86 39;" xml:space="preserve">
<style type="text/css">
	.st0{fill:#FFC565;}
</style>
<path class="st0" d="M85.5,18.1H62.7L52.6,8.1l-4.8,4.8l-3.6-3.6L48,5.6l-5.1-5.1l-5.1,5.1l3.8,3.8L38,12.9l-4.8-4.8L23.1,18.1H0.2
	V20h22.9L33.2,30l0.6-0.6l4.2-4.2l3.6,3.6l-3.8,3.8l5.1,5.1l0.6-0.6l4.4-4.4l-3.8-3.8l3.6-3.6l4.8,4.8l0.6-0.6l9.4-9.4h22.9V18.1z
	 M42.9,3.1l2.5,2.5l-2.5,2.5l-2.5-2.5L42.9,3.1z M42.9,10.6l3.6,3.6l-3.6,3.6l-3.6-3.6L42.9,10.6z M47.7,15.5l3.6,3.6l-3.6,3.6
	L44.2,19L47.7,15.5z M41.6,19L38,22.6L34.5,19l3.6-3.6L41.6,19z M33.2,27.4L24.8,19l8.4-8.4l3.6,3.6L31.9,19l4.8,4.8L33.2,27.4z
	 M42.9,35l-2.5-2.5l2.5-2.5l2.5,2.5L42.9,35z M42.9,27.4l-3.6-3.6l3.6-3.6l3.6,3.6L42.9,27.4z M52.6,27.4L49,23.9l4.8-4.8L49,14.2
	l3.6-3.6L61,19L52.6,27.4z"/>
</svg>
