<?xml version="1.0" encoding="utf-8"?>
<!-- Generator: Adobe Illustrator 24.0.1, SVG Export Plug-In . SVG Version: 6.00 Build 0)  -->
<svg version="1.1" id="Capa_1" xmlns="http://www.w3.org/2000/svg" xmlns:xlink="http://www.w3.org/1999/xlink" x="0px" y="0px"
	 viewBox="0 0 100 100" style="enable-background:new 0 0 100 100;" xml:space="preserve">
<style type="text/css">
	.st0{fill:#FFC565;}
</style>
<g>
	<g>
		
			<rect x="47.7" y="23.9" transform="matrix(0.7071 -0.7071 0.7071 0.7071 -7.6207 44.4715)" class="st0" width="4.4" height="15.2"/>
		<path class="st0" d="M36.5,20.3c0.4,0.9,0.9,1.8,1.7,2.5l0,0l0.5,0.5l3.1-3.1l-0.5-0.5l0,0c-0.3-0.3-0.5-0.7-0.7-1l0,0
			c-0.1-0.4-0.2-0.8-0.2-1.2h0l0,0l0,0h0c0,0,0,0,0,0c0,0,0,0,0,0v0c0-0.4,0.1-0.8,0.2-1.2v0c0.2-0.4,0.4-0.7,0.7-1l0,0
			c0.3-0.3,0.7-0.5,1-0.7l0,0c0.4-0.2,0.8-0.2,1.2-0.2c0.4,0,0.8,0.1,1.2,0.2l0,0c0.4,0.2,0.7,0.4,1,0.7l0,0l0.6,0.6l7.4,7.4
			l3.1-3.1l-7.4-7.4l-0.6-0.6l0,0c-0.7-0.7-1.6-1.3-2.5-1.7l0,0c-0.9-0.4-1.9-0.6-2.8-0.6c-1,0-1.9,0.2-2.8,0.6l0,0
			c-0.9,0.4-1.8,0.9-2.5,1.7l0,0c-0.7,0.7-1.3,1.6-1.7,2.5l0,0c-0.4,0.9-0.6,1.9-0.6,2.8C35.9,18.4,36.1,19.4,36.5,20.3L36.5,20.3z"
			/>
		<path class="st0" d="M57.6,26.8l0.1-0.1c0.4-0.4,0.7-0.7,1-1c0.7-0.7,1.2-1.2,1.6-1.6v0c0.1-0.1,0.2-0.2,0.3-0.3l0,0l0,0l0.1,0
			l0.9-0.9c0.7-0.7,1.3-1.6,1.7-2.5l0,0c0.4-0.9,0.6-1.9,0.6-2.8c0-1-0.2-1.9-0.6-2.8l0,0c-0.4-0.9-0.9-1.8-1.7-2.5l0,0
			c-0.7-0.7-1.6-1.3-2.5-1.7l0,0c-0.9-0.4-1.9-0.6-2.8-0.6c-1,0-1.9,0.2-2.8,0.6l0,0c-0.9,0.4-1.8,0.9-2.5,1.7l0,0l-0.5,0.5l3.1,3.1
			l0.5-0.5l0,0c0.3-0.3,0.7-0.5,1-0.7l0,0c0.4-0.2,0.8-0.2,1.2-0.2c0.4,0,0.8,0.1,1.2,0.2l0,0c0.4,0.2,0.7,0.4,1,0.7l0,0
			c0.3,0.3,0.5,0.7,0.7,1l0,0c0.2,0.4,0.2,0.8,0.2,1.2s-0.1,0.8-0.2,1.2l0,0c-0.2,0.4-0.4,0.7-0.7,1l0,0L58,20.2l0,0
			c-0.1,0.1-0.1,0.1-0.2,0.2l0,0c-0.1,0.1-0.3,0.2-0.4,0.4l0,0c-0.3,0.3-0.7,0.7-1.2,1.1c-1.4,1.4-3.5,3.5-5.8,5.8l3.1,3.1l0.1-0.1
			l0,0c0.6-0.6,1.5-1.6,2.4-2.4C56.7,27.7,57.3,27.1,57.6,26.8L57.6,26.8z"/>
		<path class="st0" d="M61.7,40l0.1-0.1L61.7,40l-0.5-0.5L58,42.6l0.5,0.5c0.3,0.3,0.5,0.7,0.7,1c0.2,0.4,0.2,0.8,0.2,1.2
			c0,0.4-0.1,0.8-0.2,1.2l0,0c-0.2,0.4-0.4,0.7-0.7,1l0,0c-0.3,0.3-0.7,0.5-1,0.7c-0.4,0.2-0.8,0.2-1.2,0.2c-0.4,0-0.8-0.1-1.2-0.2
			c-0.4-0.2-0.7-0.4-1-0.7l-0.6-0.6l-7.4-7.4L43,42.6l7.4,7.4l0.6,0.6c0.7,0.7,1.6,1.3,2.5,1.7c0.9,0.4,1.9,0.6,2.8,0.6
			c1,0,1.9-0.2,2.8-0.6c0.9-0.4,1.8-0.9,2.5-1.7c0.7-0.7,1.3-1.6,1.7-2.5c0.4-0.9,0.6-1.9,0.6-2.8c0-1-0.2-1.9-0.6-2.8
			C63,41.6,62.4,40.7,61.7,40z"/>
		
			<rect x="49.9" y="36.9" transform="matrix(0.7071 -0.7071 0.7071 0.7071 -10.9045 51.8865)" class="st0" width="14.5" height="4.4"/>
		<path class="st0" d="M49.4,35.1L46.2,32L46.2,32l0,0c-0.6,0.6-1.5,1.6-2.4,2.4c-0.7,0.7-1.3,1.3-1.6,1.6l0,0l-0.1,0.1
			c-0.4,0.4-0.7,0.7-1,1c-0.7,0.7-1.2,1.2-1.6,1.6c-0.1,0.1-0.2,0.2-0.3,0.3l0,0l0,0l-0.1,0L38.1,40c-0.7,0.7-1.3,1.6-1.7,2.5
			c-0.4,0.9-0.6,1.9-0.6,2.8c0,1,0.2,1.9,0.6,2.8c0.4,0.9,0.9,1.8,1.7,2.5c0.7,0.7,1.6,1.3,2.5,1.7c0.9,0.4,1.9,0.6,2.8,0.6
			c1,0,1.9-0.2,2.8-0.6c0.9-0.4,1.8-0.9,2.5-1.7l0.5-0.5L46.1,47l-0.5,0.5l-0.1-0.1l0.1,0.1c-0.3,0.3-0.7,0.5-1,0.7
			c-0.4,0.2-0.8,0.2-1.2,0.2c-0.4,0-0.8-0.1-1.2-0.2c-0.4-0.2-0.7-0.4-1-0.7l0,0c-0.3-0.3-0.5-0.7-0.7-1c-0.1-0.4-0.2-0.8-0.2-1.2
			l0,0l0,0l0,0h0c0,0,0,0,0,0c0,0,0,0,0,0v0l0,0c0-0.4,0.1-0.8,0.2-1.2c0.2-0.4,0.4-0.7,0.7-1l0.5-0.5l0,0c0.1-0.1,0.1-0.1,0.2-0.2
			l0,0c0.1-0.1,0.3-0.2,0.4-0.4c0.3-0.3,0.7-0.7,1.2-1.1C44.9,39.5,47,37.4,49.4,35.1z"/>
		<path class="st0" d="M78.9,29L79,29L78.9,29c-0.4-0.9-0.9-1.8-1.7-2.5l0,0c-0.7-0.7-1.6-1.3-2.5-1.7c-0.9-0.4-1.9-0.6-2.8-0.6
			c-1,0-1.9,0.2-2.8,0.6c-0.9,0.4-1.8,0.9-2.5,1.7h0l-0.6,0.6l-1,1l3.1,3.1l1-1l0.6-0.6c0.3-0.3,0.7-0.5,1-0.7
			c0.4-0.2,0.8-0.2,1.2-0.2c0.4,0,0.8,0.1,1.2,0.2l0,0c0.4,0.2,0.7,0.4,1,0.7l0,0c0.2,0.2,0.3,0.3,0.4,0.5c0.1,0.2,0.2,0.4,0.3,0.5
			l0-0.1l0,0.1c0,0,0,0,0,0l0,0c0.1,0.4,0.2,0.7,0.2,1.1l0,0v0.1v0c0,0.4-0.1,0.8-0.2,1.2l0,0c-0.2,0.4-0.4,0.7-0.7,1l0,0
			c-0.3,0.3-0.7,0.5-1,0.7c-0.4,0.2-0.8,0.2-1.2,0.2c-0.4,0-0.8-0.1-1.2-0.2c-0.4-0.2-0.7-0.4-1-0.7l0,0l-0.5-0.5l0,0l0,0
			c-0.1-0.1-0.1-0.1-0.2-0.2c-0.1-0.1-0.3-0.3-0.5-0.5c-0.7-0.7-1.9-1.9-3.3-3.3c-1.4-1.4-3-2.9-4.5-4.5l-3.1,3.1c2,2,4.1,4,5.6,5.6
			c0.8,0.8,1.5,1.5,1.9,2c0.2,0.2,0.4,0.4,0.5,0.5l0,0l0,0l0,0l0.9,0.9c0.7,0.7,1.6,1.3,2.5,1.7c0.9,0.4,1.9,0.6,2.8,0.6
			c1,0,1.9-0.2,2.8-0.6c0.9-0.4,1.8-0.9,2.5-1.6l0.3-0.4v0.1c0.5-0.6,0.9-1.2,1.2-1.8c0.1-0.1,0.1-0.2,0.1-0.3
			c0.4-0.9,0.6-1.9,0.6-2.8C79.4,30.9,79.2,29.9,78.9,29z"/>
		<path class="st0" d="M30.1,33.2c-0.3,0.3-0.7,0.5-1,0.7c-0.4,0.2-0.8,0.2-1.2,0.2c-0.4,0-0.8-0.1-1.2-0.2c-0.4-0.2-0.7-0.4-1-0.7
			l0,0l0,0l0,0l0,0c-0.1-0.1-0.1-0.1-0.2-0.2c-0.2-0.3-0.4-0.5-0.5-0.8l0,0c-0.1-0.4-0.2-0.8-0.2-1.2l0,0l0,0l0,0h0c0,0,0,0,0,0
			c0-0.3,0.1-0.7,0.2-1l0,0c0-0.1,0-0.1,0.1-0.2l0,0c0-0.1,0.1-0.2,0.1-0.2l0,0l0,0l0,0c0.1-0.3,0.3-0.5,0.6-0.8l0,0
			c0.3-0.3,0.7-0.5,1-0.7l0,0c0.4-0.2,0.8-0.2,1.2-0.2c0.4,0,0.8,0.1,1.2,0.2l0,0c0.4,0.2,0.7,0.4,1,0.7l0,0l0.5,0.5l0,0l0,0
			c0.1,0.1,0.1,0.1,0.2,0.2l0,0c0.1,0.1,0.3,0.3,0.5,0.5c0.7,0.7,1.9,1.9,3.3,3.3c1.4,1.4,3,2.9,4.5,4.5l3.1-3.1c-2-2-4.1-4-5.6-5.6
			c-0.8-0.8-1.5-1.5-1.9-2c-0.2-0.2-0.4-0.4-0.5-0.5l0,0l0,0l0,0l-0.9-0.9c-0.7-0.7-1.6-1.3-2.5-1.7c-0.9-0.4-1.9-0.6-2.8-0.6
			c-1,0-1.9,0.2-2.8,0.6c-0.9,0.4-1.8,0.9-2.5,1.7l0,0c-0.1,0.1-0.2,0.3-0.4,0.4c-0.1,0.1-0.2,0.3-0.3,0.4c-0.4,0.5-0.7,1.1-1,1.7
			C20.5,29,20.4,30,20.4,31c0,1,0.2,1.9,0.6,2.8c0.3,0.7,0.6,1.3,1.1,1.9l0,0c0,0,0.1,0.1,0.1,0.1l0,0l0,0c0.1,0.1,0.2,0.3,0.3,0.4
			c0.1,0.1,0.1,0.1,0.1,0.2l0,0c0.7,0.7,1.6,1.3,2.5,1.7c0.9,0.4,1.9,0.6,2.8,0.6c1,0,1.9-0.2,2.8-0.6c0.9-0.4,1.8-0.9,2.5-1.7
			l0.6-0.6l1-1l-3.1-3.1l-1,1L30.1,33.2z"/>
		
			<rect x="35.3" y="21.5" transform="matrix(0.7071 -0.7071 0.7071 0.7071 -4.2863 37.0617)" class="st0" width="14.5" height="4.4"/>
	</g>
	<path class="st0" d="M52.5,55.5c0,1.4-1.2,2.6-2.6,2.6s-2.6-1.2-2.6-2.6c0-1.4,1.2-2.6,2.6-2.6S52.5,54.1,52.5,55.5z"/>
	<path class="st0" d="M51.2,60.9c0,0.7-0.6,1.3-1.3,1.3s-1.3-0.6-1.3-1.3s0.6-1.3,1.3-1.3S51.2,60.2,51.2,60.9z"/>
	<circle class="st0" cx="49.9" cy="1.4" r="1.3"/>
	<path class="st0" d="M52.5,7.3c0,1.4-1.2,2.6-2.6,2.6s-2.6-1.2-2.6-2.6s1.2-2.6,2.6-2.6S52.5,5.9,52.5,7.3z"/>
	<path class="st0" d="M49.9,64c-2.6,0-4.7,2.1-4.7,4.7h9.3C54.5,66,52.5,64,49.9,64z"/>
	<g>
		<rect x="45.2" y="70.3" class="st0" width="2" height="29.7"/>
		<rect x="48.9" y="70.3" class="st0" width="2" height="29.7"/>
		<rect x="52.6" y="70.3" class="st0" width="2" height="29.7"/>
	</g>
</g>
</svg>
