<?xml version="1.0" encoding="utf-8"?>
<!-- Generator: Adobe Illustrator 24.0.1, SVG Export Plug-In . SVG Version: 6.00 Build 0)  -->
<svg version="1.1" id="Capa_1" xmlns="http://www.w3.org/2000/svg" xmlns:xlink="http://www.w3.org/1999/xlink" x="0px" y="0px"
	 viewBox="0 0 100 100" style="enable-background:new 0 0 100 100;" xml:space="preserve">
<style type="text/css">
	.st0{fill:#FFC565;}
</style>
<path class="st0" d="M32.5,10v5.3c0,5,4.1,9.1,9.1,9.1h19.7v11.4H49.9h-3h-5.7c-4.8,0-8.7,3.9-8.7,8.7h0c0,4.8,3.9,8.7,8.7,8.7h5.7
	v5.7c0,4.8,3.9,8.7,8.7,8.7c4.8,0,8.7-3.9,8.7-8.7v-5.7v-3V38.7h11.4v19.7c0,5,4.1,9.1,9.1,9.1H90l0,25.7h3l0-25.7l0,0V35.7l0,0V7
	H64.2H32.5H6.8v3H32.5z M37.3,19.6c-0.6-0.6-1-1.3-1.3-2h25.3v3.8h0H41.6C39.9,21.3,38.4,20.7,37.3,19.6z M78.5,35.7
	c-0.7-7.6-6.7-13.6-14.3-14.3v-3.8c4.9,0.3,9.3,2.4,12.5,5.6c3.2,3.3,5.3,7.6,5.6,12.5H78.5z M41.2,50.1c-1.6,0-3-0.6-4-1.7
	c-1-1-1.7-2.4-1.7-4c0-1.6,0.6-3,1.7-4c1-1,2.4-1.7,4-1.7h5.7v11.4H41.2z M61.2,58.7c0,1.6-0.6,3-1.7,4c-1,1-2.4,1.7-4,1.7
	c-1.6,0-3-0.6-4-1.7c-1-1-1.7-2.4-1.7-4v-5.7h11.4L61.2,58.7z M61.2,50.1H49.9V38.7h11.4h0V50.1z M64.2,24.4c3,0.3,5.6,1.7,7.6,3.7
	c2,2,3.3,4.6,3.7,7.6H64.2V24.4z M78.6,58.4V38.7h3.8V64c-0.8-0.3-1.5-0.8-2-1.3C79.3,61.6,78.6,60,78.6,58.4z M85.4,64.4l0-25.7H90
	v25.7H85.4z M90,10v25.7h-4.6c-0.6-11.4-9.7-20.6-21.2-21.2V10H90z M61.2,14.5H35.5V10h25.7V14.5z"/>
</svg>
