<?xml version="1.0" encoding="utf-8"?>
<!-- Generator: Adobe Illustrator 24.0.1, SVG Export Plug-In . SVG Version: 6.00 Build 0)  -->
<svg version="1.1" id="Capa_1" xmlns="http://www.w3.org/2000/svg" xmlns:xlink="http://www.w3.org/1999/xlink" x="0px" y="0px"
	 viewBox="0 0 100 100" style="enable-background:new 0 0 100 100;" xml:space="preserve">
<style type="text/css">
	.st0{fill:#FFC565;}
</style>
<path class="st0" d="M74,90.3V79.6H52.5V68.8H41.8v-8.1h10.7V47.4H39.2v10.7h-8.1V47.4H20.4V25.9H9.6V7.2H7v18.8v1.3v20.1v13.3v8.1
	v2.6v21.5h21.5h2.6h8.1h13.3h20.1H74h18.8v-2.6H74z M41.8,50h8.1v8.1h-8.1V50z M41.8,71.5h8.1v8.1h-8.1V71.5z M39.2,60.7v18.8h-8.1
	V68.8H20.4v-8.1H39.2z M28.5,79.6h-8.1v-8.1h8.1V79.6z M28.5,50v8.1h-8.1V50H28.5z M9.6,28.6h8.1v18.8H9.6V28.6z M17.7,50v8.1H9.6
	V50H17.7z M9.6,60.7h8.1v8.1H9.6V60.7z M28.5,90.3H9.6V71.5h8.1v10.7h10.7V90.3z M31.1,90.3v-8.1h8.1v8.1H31.1z M41.8,90.3v-8.1h8.1
	v8.1H41.8z M71.4,90.3H52.5v-8.1h18.8V90.3z"/>
</svg>
