<?xml version="1.0" encoding="utf-8"?>
<!-- Generator: Adobe Illustrator 24.0.1, SVG Export Plug-In . SVG Version: 6.00 Build 0)  -->
<svg version="1.1" id="Capa_1" xmlns="http://www.w3.org/2000/svg" xmlns:xlink="http://www.w3.org/1999/xlink" x="0px" y="0px"
	 viewBox="0 0 80 166" style="enable-background:new 0 0 80 166;" xml:space="preserve">
<style type="text/css">
	.st0{fill:none;stroke:#990D1D;stroke-width:3;stroke-miterlimit:10;}
</style>
<g>
	<g>
		<g>
			<g>
				<path class="st0" d="M77.7,61.7c0,13-6.6,24.6-16.7,31.4H18.8C8.7,86.3,2.1,74.8,2.1,61.7s6.6-24.6,16.7-31.4H61
					C71.1,37.2,77.7,48.7,77.7,61.7z"/>
				<path class="st0" d="M65.4,61.7c0,13-4.5,24.6-11.3,31.4H25.6c-6.8-6.8-11.3-18.3-11.3-31.4s4.5-24.6,11.3-31.4h28.6
					C61,37.2,65.4,48.7,65.4,61.7z"/>
				<path class="st0" d="M50.2,61.7c0,13-1.8,24.6-4.5,31.4H34.1c-2.7-6.8-4.5-18.3-4.5-31.4s1.8-24.6,4.5-31.4h11.5
					C48.4,37.2,50.2,48.7,50.2,61.7z"/>
			</g>
			<rect x="18.8" y="93.1" class="st0" width="42.3" height="9.2"/>
			<rect x="18.8" y="21.2" class="st0" width="42.3" height="9.2"/>
		</g>
		<line class="st0" x1="39.9" y1="102.3" x2="39.9" y2="134.1"/>
		<rect x="33.2" y="134.1" class="st0" width="13.4" height="30.3"/>
		<line class="st0" x1="39.9" y1="21.2" x2="39.9" y2="0.2"/>
	</g>
	<g>
		<line class="st0" x1="21.5" y1="102.3" x2="21.5" y2="119.7"/>
		<line class="st0" x1="26.8" y1="102.3" x2="26.8" y2="119.7"/>
		<line class="st0" x1="32" y1="102.3" x2="32" y2="119.7"/>
		<line class="st0" x1="37.3" y1="102.3" x2="37.3" y2="119.7"/>
		<line class="st0" x1="42.5" y1="102.3" x2="42.5" y2="119.7"/>
		<line class="st0" x1="47.8" y1="102.3" x2="47.8" y2="119.7"/>
		<line class="st0" x1="53" y1="102.3" x2="53" y2="119.7"/>
		<line class="st0" x1="58.3" y1="102.3" x2="58.3" y2="119.7"/>
	</g>
</g>
</svg>
