<?xml version="1.0" encoding="utf-8"?>
<!-- Generator: Adobe Illustrator 24.0.1, SVG Export Plug-In . SVG Version: 6.00 Build 0)  -->
<svg version="1.1" id="Capa_1" xmlns="http://www.w3.org/2000/svg" xmlns:xlink="http://www.w3.org/1999/xlink" x="0px" y="0px"
	 viewBox="0 0 100 100" style="enable-background:new 0 0 100 100;" xml:space="preserve">
<style type="text/css">
	.st0{fill:#990D1D;}
</style>
<g>
	<path class="st0" d="M13.58,16.6C5.22,25.4-0.04,37.14-0.04,50.04c0,12.9,5.26,24.64,13.62,33.44c8.36,8.8,19.83,14.71,32.35,15.99
		l2.34,0.24l0-48.17l-40.23,0l0.23,2.33c1.7,16.95,13.43,30.93,29.17,35.91l2.86,0.74l-0.1-2.39V59.6H27.48v10.06h4.24v-5.82h4.23
		l0,20.9C23.92,79.86,14.95,68.96,12.8,55.78h31.22l0,39.17c-10.55-1.62-20.21-6.85-27.37-14.39C8.98,72.47,4.2,61.77,4.2,50.04
		c0-11.73,4.78-22.43,12.46-30.52c7.15-7.54,16.81-12.77,27.37-14.39v39.17H12.8c2.15-13.18,11.12-24.08,23.16-28.96v20.9h-4.23
		v-5.82h-4.24l0,10.06H40.2V11.96l-0.09-2.37l-2.68,0.72C21.69,15.29,9.97,29.27,8.27,46.22l-0.23,2.33l40.23,0V0.38l-2.34,0.24
		C33.4,1.89,21.94,7.8,13.58,16.6z"/>
	<path class="st0" d="M86.2,16.6C77.84,7.8,66.37,1.89,53.85,0.62l-2.34-0.24l0,48.17h40.23l-0.23-2.33
		c-1.7-16.95-13.43-30.93-29.17-35.91l-2.72-0.84l-0.04,2.59v28.44h12.72V30.43h-4.24l0,5.82h-4.23l0-20.9
		c12.04,4.88,21.01,15.78,23.16,28.96H55.75V5.14c10.55,1.62,20.21,6.85,27.37,14.39c7.68,8.09,12.45,18.79,12.46,30.52
		c0,11.73-4.78,22.43-12.46,30.52c-7.15,7.54-16.81,12.77-27.37,14.39V55.78h31.22c-2.15,13.18-11.12,24.08-23.16,28.96v-20.9h4.23
		l0,5.82h4.24V59.6H59.57v28.44l0.07,0.27l-0.03,2.09l2.72-0.61c15.74-4.99,27.47-18.96,29.17-35.91l0.23-2.33H51.51v48.17
		l2.34-0.24c12.52-1.27,23.99-7.18,32.35-15.99c8.36-8.8,13.62-20.54,13.62-33.44C99.82,37.14,94.55,25.4,86.2,16.6z"/>
</g>
</svg>
