<?xml version="1.0" encoding="utf-8"?>
<!-- Generator: Adobe Illustrator 24.0.1, SVG Export Plug-In . SVG Version: 6.00 Build 0)  -->
<svg version="1.1" id="Capa_1" xmlns="http://www.w3.org/2000/svg" xmlns:xlink="http://www.w3.org/1999/xlink" x="0px" y="0px"
	 viewBox="0 0 145 145" style="enable-background:new 0 0 145 145;" xml:space="preserve">
<style type="text/css">
	.st0{fill:#980D1D;}
	.st1{clip-path:url(#SVGID_1_);fill:#FFC565;}
</style>
<g>
	<circle class="st0" cx="72.1" cy="72.9" r="72.5"/>
</g>
<g>
	<defs>
		<circle id="SVGID_26_" cx="71.7" cy="72.9" r="63"/>
	</defs>
	<clipPath id="SVGID_1_">
		<use xlink:href="#SVGID_26_"  style="overflow:visible;"/>
	</clipPath>
	<path class="st1" d="M134.6,69.6c-1.8-31.9-27.3-57.4-59.2-59.2v-0.1h-3.6h-3.6v0.1c-25.7,1.5-47.3,18.4-55.7,41.6
		C4.1,28.7-17.5,11.8-43.2,10.3v-0.1h-3.6h-3.6v0.1c-31.9,1.8-57.4,27.3-59.2,59.2h-0.1v3.6v3.6h0.1c1.5,25.8,18.5,47.4,41.8,55.7
		c-23.3,8.3-40.3,29.9-41.8,55.7h-0.1v3.6v3.6h0.1c1.8,31.9,27.3,57.4,59.2,59.2v0.1h3.6h3.6v-0.1c25.7-1.5,47.3-18.4,55.7-41.6
		c8.3,23.2,29.9,40.2,55.7,41.6v0.1h3.6h3.6v-0.1c31.9-1.8,57.4-27.3,59.2-59.2h0.1v-3.6v-3.6h-0.1c-1.5-25.8-18.5-47.4-41.8-55.7
		c23.3-8.3,40.3-29.9,41.8-55.7h0.1v-3.6v-3.6H134.6z M-7.5,112.6c-9.3,9.3-21.7,15.2-35.6,16.2c0.9-13.9,6.9-26.4,16.2-35.6
		C-17.6,83.9-5.2,77.9,8.7,77C7.8,90.8,1.8,103.3-7.5,112.6z M12.4,94.4c6.4,17.7,20.4,31.8,38.2,38.1
		c-17.8,6.3-31.8,20.4-38.2,38.1C6.1,152.9-8,138.8-25.8,132.5C-8,126.2,6.1,112.2,12.4,94.4z M-7.5,152.5
		c9.3,9.3,15.2,21.7,16.2,35.6c-13.9-0.9-26.4-6.9-35.6-16.2c-9.3-9.3-15.2-21.7-16.2-35.6C-29.2,137.2-16.7,143.2-7.5,152.5z
		 M32.3,152.5c9.3-9.3,21.7-15.2,35.6-16.2c-0.9,13.9-6.9,26.4-16.2,35.6c-9.3,9.3-21.7,15.2-35.6,16.2
		C17.1,174.2,23.1,161.7,32.3,152.5z M32.3,112.6c-9.3-9.3-15.2-21.7-16.2-35.6c13.9,0.9,26.4,6.9,35.6,16.2
		C61,102.4,67,114.9,68,128.7C54.1,127.8,41.6,121.8,32.3,112.6z M-46.9,111.4c-6.3-17.8-20.4-31.9-38.2-38.2
		c17.8-6.3,31.9-20.4,38.2-38.3c6.3,17.8,20.4,31.9,38.2,38.3C-26.4,79.5-40.5,93.6-46.9,111.4z M-8.6,191.9
		c-17.8,6.3-31.9,20.4-38.2,38.2c-6.3-17.8-20.4-31.9-38.2-38.2c17.8-6.3,31.9-20.4,38.2-38.3C-40.5,171.4-26.4,185.6-8.6,191.9z
		 M71.7,153.6c6.3,17.8,20.4,31.9,38.2,38.3c-17.8,6.3-31.9,20.4-38.2,38.2c-6.3-17.8-20.4-31.9-38.2-38.2
		C51.3,185.6,65.4,171.4,71.7,153.6z M33.5,73.2c17.8-6.3,31.9-20.4,38.2-38.3c6.3,17.8,20.4,31.9,38.2,38.3
		c-17.8,6.3-31.9,20.4-38.2,38.2C65.4,93.6,51.3,79.5,33.5,73.2z M127.3,69.4c-13.9-0.9-26.4-6.9-35.6-16.2
		C82.4,44,76.4,31.5,75.5,17.6c13.9,0.9,26.4,6.9,35.6,16.2C120.4,43,126.4,55.5,127.3,69.4z M32.3,33.8
		c9.3-9.3,21.7-15.2,35.6-16.2C67,31.5,61,44,51.8,53.2c-9.3,9.3-21.7,15.2-35.6,16.2C17.1,55.5,23.1,43,32.3,33.8z M8.7,69.4
		c-13.9-0.9-26.4-6.9-35.6-16.2c-9.3-9.3-15.2-21.7-16.2-35.6c13.9,0.9,26.4,6.9,35.6,16.2C1.8,43,7.8,55.5,8.7,69.4z M-86.2,33.8
		c9.3-9.3,21.7-15.2,35.6-16.2c-0.9,13.9-6.9,26.4-16.2,35.6c-9.3,9.3-21.7,15.2-35.6,16.2C-101.5,55.5-95.5,43-86.2,33.8z
		 M-102.4,77c13.9,0.9,26.4,6.9,35.6,16.2c9.3,9.3,15.2,21.7,16.2,35.6c-13.9-0.9-26.4-6.9-35.6-16.2
		C-95.5,103.3-101.5,90.8-102.4,77z M-86.2,152.5c9.3-9.3,21.7-15.2,35.6-16.2c-0.9,13.9-6.9,26.4-16.2,35.6
		c-9.3,9.3-21.7,15.2-35.6,16.2C-101.5,174.2-95.5,161.7-86.2,152.5z M-102.4,195.7c13.9,0.9,26.4,6.9,35.6,16.2
		c9.3,9.3,15.2,21.7,16.2,35.6c-13.9-0.9-26.4-6.9-35.6-16.2C-95.5,222-101.5,209.5-102.4,195.7z M-7.5,231.3
		c-9.3,9.3-21.7,15.2-35.6,16.2c0.9-13.9,6.9-26.4,16.2-35.6c9.3-9.3,21.7-15.2,35.6-16.2C7.8,209.5,1.8,222-7.5,231.3z M16.2,195.7
		c13.9,0.9,26.4,6.9,35.6,16.2C61,221.1,67,233.6,68,247.4c-13.9-0.9-26.4-6.9-35.6-16.2C23.1,222,17.1,209.5,16.2,195.7z
		 M111.1,231.3c-9.3,9.3-21.7,15.2-35.6,16.2c0.9-13.9,6.9-26.4,16.2-35.6c9.3-9.3,21.7-15.2,35.6-16.2
		C126.4,209.5,120.4,222,111.1,231.3z M127.3,188.1c-13.9-0.9-26.4-6.9-35.6-16.2c-9.3-9.3-15.2-21.7-16.2-35.6
		c13.9,0.9,26.4,6.9,35.6,16.2C120.4,161.7,126.4,174.2,127.3,188.1z M111.1,112.6c-9.3,9.3-21.7,15.2-35.6,16.2
		c0.9-13.9,6.9-26.4,16.2-35.6c9.3-9.3,21.7-15.2,35.6-16.2C126.4,90.8,120.4,103.3,111.1,112.6z"/>
</g>
</svg>
