<?xml version="1.0" encoding="utf-8"?>
<!-- Generator: Adobe Illustrator 24.0.1, SVG Export Plug-In . SVG Version: 6.00 Build 0)  -->
<svg version="1.1" id="Capa_1" xmlns="http://www.w3.org/2000/svg" xmlns:xlink="http://www.w3.org/1999/xlink" x="0px" y="0px"
	 viewBox="0 0 1737 146" style="enable-background:new 0 0 1737 146;" xml:space="preserve">
<style type="text/css">
	.st0{fill:#980D1D;}
	.st1{clip-path:url(#SVGID_1_);fill:#FFC565;}
	.st2{clip-path:url(#SVGID_2_);fill:#FFC565;}
	.st3{clip-path:url(#SVGID_3_);fill:#FFC565;}
	.st4{clip-path:url(#SVGID_4_);fill:#FFC565;}
	.st5{clip-path:url(#SVGID_5_);fill:#FFC565;}
	.st6{fill:#FFC565;}
</style>
<g>
	<g>
		<rect x="78.1" y="43.4" class="st0" width="1579" height="61"/>
	</g>
	<g>
		<circle class="st0" cx="78.6" cy="73.9" r="72.5"/>
	</g>
	<g>
		<circle class="st0" cx="1657.6" cy="73.9" r="72.5"/>
	</g>
	<g>
		<circle class="st0" cx="473.3" cy="73.9" r="72.5"/>
	</g>
	<g>
		<circle class="st0" cx="868.1" cy="73.9" r="72.5"/>
	</g>
	<g>
		<circle class="st0" cx="1262.8" cy="73.9" r="72.5"/>
	</g>
	<g>
		<defs>
			<circle id="SVGID_28_" cx="79.1" cy="73.6" r="63"/>
		</defs>
		<clipPath id="SVGID_1_">
			<use xlink:href="#SVGID_28_"  style="overflow:visible;"/>
		</clipPath>
		<path class="st1" d="M141.9,70.3c-1.8-31.9-27.3-57.4-59.2-59.2v-0.1h-3.6h-3.6V11c-25.7,1.5-47.3,18.4-55.7,41.6
			C11.5,29.4-10.1,12.5-35.9,11v-0.1h-3.6h-3.6V11c-31.9,1.8-57.4,27.3-59.2,59.2h-0.1v3.6v3.6h0.1c1.5,25.8,18.5,47.4,41.8,55.7
			c-23.3,8.3-40.3,29.9-41.8,55.7h-0.1v3.6v3.6h0.1c1.8,31.9,27.3,57.4,59.2,59.2v0.1h3.6h3.6v-0.1c25.7-1.5,47.3-18.4,55.7-41.6
			c8.3,23.2,29.9,40.2,55.7,41.6v0.1h3.6h3.6v-0.1c31.9-1.8,57.4-27.3,59.2-59.2h0.1v-3.6V189h-0.1c-1.5-25.8-18.5-47.4-41.8-55.7
			c23.3-8.3,40.3-29.9,41.8-55.7h0.1v-3.6v-3.6H141.9z M-0.1,113.3c-9.3,9.3-21.7,15.2-35.6,16.2c0.9-13.9,6.9-26.4,16.2-35.6
			c9.3-9.3,21.7-15.2,35.6-16.2C15.1,91.6,9.1,104.1-0.1,113.3z M19.8,95.2c6.4,17.7,20.4,31.8,38.2,38.1
			c-17.8,6.3-31.8,20.4-38.2,38.1c-6.4-17.7-20.4-31.8-38.2-38.1C-0.7,126.9,13.4,112.9,19.8,95.2z M-0.1,153.2
			c9.3,9.3,15.2,21.7,16.2,35.6c-13.9-0.9-26.4-6.9-35.6-16.2c-9.3-9.3-15.2-21.7-16.2-35.6C-21.9,138-9.4,144-0.1,153.2z
			 M39.7,153.2C49,144,61.4,138,75.3,137c-0.9,13.9-6.9,26.4-16.2,35.6c-9.3,9.3-21.7,15.2-35.6,16.2
			C24.4,175,30.4,162.5,39.7,153.2z M39.7,113.3c-9.3-9.3-15.2-21.7-16.2-35.6c13.9,0.9,26.4,6.9,35.6,16.2
			c9.3,9.3,15.2,21.7,16.2,35.6C61.4,128.6,49,122.6,39.7,113.3z M-39.5,112.2c-6.3-17.8-20.4-31.9-38.2-38.2
			c17.8-6.3,31.9-20.4,38.2-38.3c6.3,17.8,20.4,31.9,38.2,38.3C-19.1,80.3-33.2,94.4-39.5,112.2z M-1.3,192.6
			c-17.8,6.3-31.9,20.4-38.2,38.2c-6.3-17.8-20.4-31.9-38.2-38.2c17.8-6.3,31.9-20.4,38.2-38.3C-33.2,172.2-19.1,186.3-1.3,192.6z
			 M79.1,154.4c6.3,17.8,20.4,31.9,38.2,38.3c-17.8,6.3-31.9,20.4-38.2,38.2c-6.3-17.8-20.4-31.9-38.2-38.2
			C58.6,186.3,72.7,172.2,79.1,154.4z M40.8,73.9c17.8-6.3,31.9-20.4,38.2-38.3c6.3,17.8,20.4,31.9,38.2,38.3
			c-17.8,6.3-31.9,20.4-38.2,38.2C72.7,94.4,58.6,80.3,40.8,73.9z M134.6,70.1C120.8,69.2,108.3,63.2,99,54
			c-9.3-9.3-15.2-21.7-16.2-35.6c13.9,0.9,26.4,6.9,35.6,16.2C127.7,43.8,133.7,56.3,134.6,70.1z M39.7,34.5
			c9.3-9.3,21.7-15.2,35.6-16.2C74.4,32.2,68.4,44.7,59.1,54c-9.3,9.3-21.7,15.2-35.6,16.2C24.4,56.3,30.4,43.8,39.7,34.5z
			 M16.1,70.1C2.2,69.2-10.3,63.2-19.6,54c-9.3-9.3-15.2-21.7-16.2-35.6c13.9,0.9,26.4,6.9,35.6,16.2C9.1,43.8,15.1,56.3,16.1,70.1z
			 M-78.9,34.5c9.3-9.3,21.7-15.2,35.6-16.2c-0.9,13.9-6.9,26.4-16.2,35.6c-9.3,9.3-21.7,15.2-35.6,16.2
			C-94.1,56.3-88.1,43.8-78.9,34.5z M-95.1,77.7c13.9,0.9,26.4,6.9,35.6,16.2c9.3,9.3,15.2,21.7,16.2,35.6
			c-13.9-0.9-26.4-6.9-35.6-16.2C-88.1,104.1-94.1,91.6-95.1,77.7z M-78.9,153.2c9.3-9.3,21.7-15.2,35.6-16.2
			c-0.9,13.9-6.9,26.4-16.2,35.6c-9.3,9.3-21.7,15.2-35.6,16.2C-94.1,175-88.1,162.5-78.9,153.2z M-95.1,196.4
			c13.9,0.9,26.4,6.9,35.6,16.2c9.3,9.3,15.2,21.7,16.2,35.6c-13.9-0.9-26.4-6.9-35.6-16.2C-88.1,222.7-94.1,210.3-95.1,196.4z
			 M-0.1,232c-9.3,9.3-21.7,15.2-35.6,16.2c0.9-13.9,6.9-26.4,16.2-35.6c9.3-9.3,21.7-15.2,35.6-16.2C15.1,210.3,9.1,222.7-0.1,232z
			 M23.5,196.4c13.9,0.9,26.4,6.9,35.6,16.2c9.3,9.3,15.2,21.7,16.2,35.6c-13.9-0.9-26.4-6.9-35.6-16.2
			C30.4,222.7,24.4,210.3,23.5,196.4z M118.5,232c-9.3,9.3-21.7,15.2-35.6,16.2c0.9-13.9,6.9-26.4,16.2-35.6
			c9.3-9.3,21.7-15.2,35.6-16.2C133.7,210.3,127.7,222.7,118.5,232z M134.6,188.8c-13.9-0.9-26.4-6.9-35.6-16.2
			c-9.3-9.3-15.2-21.7-16.2-35.6c13.9,0.9,26.4,6.9,35.6,16.2C127.7,162.5,133.7,175,134.6,188.8z M118.5,113.3
			c-9.3,9.3-21.7,15.2-35.6,16.2c0.9-13.9,6.9-26.4,16.2-35.6c9.3-9.3,21.7-15.2,35.6-16.2C133.7,91.6,127.7,104.1,118.5,113.3z"/>
	</g>
	<g>
		<defs>
			<circle id="SVGID_27_" cx="473.4" cy="73.2" r="63"/>
		</defs>
		<clipPath id="SVGID_2_">
			<use xlink:href="#SVGID_27_"  style="overflow:visible;"/>
		</clipPath>
		<path class="st2" d="M536.3,69.8c-1.8-31.9-27.3-57.4-59.2-59.2v-0.1h-3.6h-3.6v0.1c-25.7,1.5-47.3,18.4-55.7,41.6
			c-8.3-23.3-29.9-40.2-55.7-41.6v-0.1h-3.6h-3.6v0.1c-31.9,1.8-57.4,27.3-59.2,59.2h-0.1v3.6v3.6h0.1c1.5,25.8,18.5,47.4,41.8,55.7
			c-23.3,8.3-40.3,29.9-41.8,55.7h-0.1v3.6v3.6h0.1c1.8,31.9,27.3,57.4,59.2,59.2v0.1h3.6h3.6V255c25.7-1.5,47.3-18.4,55.7-41.6
			c8.3,23.2,29.9,40.2,55.7,41.6v0.1h3.6h3.6V255c31.9-1.8,57.4-27.3,59.2-59.2h0.1v-3.6v-3.6h-0.1c-1.5-25.8-18.5-47.4-41.8-55.7
			c23.3-8.3,40.3-29.9,41.8-55.7h0.1v-3.6v-3.6H536.3z M394.3,112.9c-9.3,9.3-21.7,15.2-35.6,16.2c0.9-13.9,6.9-26.4,16.2-35.6
			c9.3-9.3,21.7-15.2,35.6-16.2C409.5,91.1,403.5,103.6,394.3,112.9z M414.2,94.7c6.4,17.7,20.4,31.8,38.2,38.1
			c-17.8,6.3-31.8,20.4-38.2,38.1c-6.4-17.7-20.4-31.8-38.2-38.1C393.7,126.5,407.8,112.4,414.2,94.7z M394.3,152.8
			c9.3,9.3,15.2,21.7,16.2,35.6c-13.9-0.9-26.4-6.9-35.6-16.2c-9.3-9.3-15.2-21.7-16.2-35.6C372.5,137.5,385,143.5,394.3,152.8z
			 M434.1,152.8c9.3-9.3,21.7-15.2,35.6-16.2c-0.9,13.9-6.9,26.4-16.2,35.6c-9.3,9.3-21.7,15.2-35.6,16.2
			C418.8,174.5,424.8,162,434.1,152.8z M434.1,112.9c-9.3-9.3-15.2-21.7-16.2-35.6c13.9,0.9,26.4,6.9,35.6,16.2
			c9.3,9.3,15.2,21.7,16.2,35.6C455.8,128.1,443.3,122.1,434.1,112.9z M354.9,111.7c-6.3-17.8-20.4-31.9-38.2-38.2
			c17.8-6.3,31.9-20.4,38.2-38.3c6.3,17.8,20.4,31.9,38.2,38.3C375.3,79.8,361.2,93.9,354.9,111.7z M393.1,192.2
			c-17.8,6.3-31.9,20.4-38.2,38.2c-6.3-17.8-20.4-31.9-38.2-38.2c17.8-6.3,31.9-20.4,38.2-38.3C361.2,171.7,375.3,185.8,393.1,192.2
			z M473.5,153.9c6.3,17.8,20.4,31.9,38.2,38.3c-17.8,6.3-31.9,20.4-38.2,38.2c-6.3-17.8-20.4-31.9-38.2-38.2
			C453,185.8,467.1,171.7,473.5,153.9z M435.2,73.5c17.8-6.3,31.9-20.4,38.2-38.3c6.3,17.8,20.4,31.9,38.2,38.3
			c-17.8,6.3-31.9,20.4-38.2,38.2C467.1,93.9,453,79.8,435.2,73.5z M529,69.7c-13.9-0.9-26.4-6.9-35.6-16.2
			c-9.3-9.3-15.2-21.7-16.2-35.6c13.9,0.9,26.4,6.9,35.6,16.2C522.1,43.3,528.1,55.8,529,69.7z M434.1,34.1
			c9.3-9.3,21.7-15.2,35.6-16.2c-0.9,13.9-6.9,26.4-16.2,35.6c-9.3,9.3-21.7,15.2-35.6,16.2C418.8,55.8,424.8,43.3,434.1,34.1z
			 M410.4,69.7c-13.9-0.9-26.4-6.9-35.6-16.2c-9.3-9.3-15.2-21.7-16.2-35.6c13.9,0.9,26.4,6.9,35.6,16.2
			C403.5,43.3,409.5,55.8,410.4,69.7z M315.5,34.1c9.3-9.3,21.7-15.2,35.6-16.2c-0.9,13.9-6.9,26.4-16.2,35.6
			c-9.3,9.3-21.7,15.2-35.6,16.2C300.2,55.8,306.2,43.3,315.5,34.1z M299.3,77.2c13.9,0.9,26.4,6.9,35.6,16.2
			c9.3,9.3,15.2,21.7,16.2,35.6c-13.9-0.9-26.4-6.9-35.6-16.2C306.2,103.6,300.2,91.1,299.3,77.2z M315.5,152.8
			c9.3-9.3,21.7-15.2,35.6-16.2c-0.9,13.9-6.9,26.4-16.2,35.6c-9.3,9.3-21.7,15.2-35.6,16.2C300.2,174.5,306.2,162,315.5,152.8z
			 M299.3,195.9c13.9,0.9,26.4,6.9,35.6,16.2c9.3,9.3,15.2,21.7,16.2,35.6c-13.9-0.9-26.4-6.9-35.6-16.2
			C306.2,222.3,300.2,209.8,299.3,195.9z M394.3,231.5c-9.3,9.3-21.7,15.2-35.6,16.2c0.9-13.9,6.9-26.4,16.2-35.6
			c9.3-9.3,21.7-15.2,35.6-16.2C409.5,209.8,403.5,222.3,394.3,231.5z M417.9,195.9c13.9,0.9,26.4,6.9,35.6,16.2
			c9.3,9.3,15.2,21.7,16.2,35.6c-13.9-0.9-26.4-6.9-35.6-16.2C424.8,222.3,418.8,209.8,417.9,195.9z M512.8,231.5
			c-9.3,9.3-21.7,15.2-35.6,16.2c0.9-13.9,6.9-26.4,16.2-35.6c9.3-9.3,21.7-15.2,35.6-16.2C528.1,209.8,522.1,222.3,512.8,231.5z
			 M529,188.4c-13.9-0.9-26.4-6.9-35.6-16.2c-9.3-9.3-15.2-21.7-16.2-35.6c13.9,0.9,26.4,6.9,35.6,16.2
			C522.1,162,528.1,174.5,529,188.4z M512.8,112.9c-9.3,9.3-21.7,15.2-35.6,16.2c0.9-13.9,6.9-26.4,16.2-35.6
			c9.3-9.3,21.7-15.2,35.6-16.2C528.1,91.1,522.1,103.6,512.8,112.9z"/>
	</g>
	<g>
		<defs>
			<circle id="SVGID_26_" cx="866.7" cy="73.9" r="63"/>
		</defs>
		<clipPath id="SVGID_3_">
			<use xlink:href="#SVGID_26_"  style="overflow:visible;"/>
		</clipPath>
		<path class="st3" d="M929.6,70.6c-1.8-31.9-27.3-57.4-59.2-59.2v-0.1h-3.6h-3.6v0.1c-25.7,1.5-47.3,18.4-55.7,41.6
			c-8.3-23.3-29.9-40.2-55.7-41.6v-0.1h-3.6h-3.6v0.1c-31.9,1.8-57.4,27.3-59.2,59.2h-0.1v3.6v3.6h0.1c1.5,25.8,18.5,47.4,41.8,55.7
			c-23.3,8.3-40.3,29.9-41.8,55.7h-0.1v3.6v3.6h0.1c1.8,31.9,27.3,57.4,59.2,59.2v0.1h3.6h3.6v-0.1c25.7-1.5,47.3-18.4,55.7-41.6
			c8.3,23.2,29.9,40.2,55.7,41.6v0.1h3.6h3.6v-0.1c31.9-1.8,57.4-27.3,59.2-59.2h0.1v-3.6v-3.6h-0.1c-1.5-25.8-18.5-47.4-41.8-55.7
			c23.3-8.3,40.3-29.9,41.8-55.7h0.1v-3.6v-3.6H929.6z M787.5,113.6c-9.3,9.3-21.7,15.2-35.6,16.2c0.9-13.9,6.9-26.4,16.2-35.6
			c9.3-9.3,21.7-15.2,35.6-16.2C802.8,91.8,796.8,104.3,787.5,113.6z M807.4,95.4c6.4,17.7,20.4,31.8,38.2,38.1
			c-17.8,6.3-31.8,20.4-38.2,38.1c-6.4-17.7-20.4-31.8-38.2-38.1C787,127.2,801.1,113.2,807.4,95.4z M787.5,153.5
			c9.3,9.3,15.2,21.7,16.2,35.6c-13.9-0.9-26.4-6.9-35.6-16.2c-9.3-9.3-15.2-21.7-16.2-35.6C765.8,138.2,778.3,144.2,787.5,153.5z
			 M827.3,153.5c9.3-9.3,21.7-15.2,35.6-16.2c-0.9,13.9-6.9,26.4-16.2,35.6c-9.3,9.3-21.7,15.2-35.6,16.2
			C812.1,175.2,818.1,162.7,827.3,153.5z M827.3,113.6c-9.3-9.3-15.2-21.7-16.2-35.6c13.9,0.9,26.4,6.9,35.6,16.2
			c9.3,9.3,15.2,21.7,16.2,35.6C849.1,128.8,836.6,122.8,827.3,113.6z M748.1,112.4c-6.3-17.8-20.4-31.9-38.2-38.2
			c17.8-6.3,31.9-20.4,38.2-38.3c6.3,17.8,20.4,31.9,38.2,38.3C768.6,80.5,754.5,94.6,748.1,112.4z M786.4,192.9
			c-17.8,6.3-31.9,20.4-38.2,38.2c-6.3-17.8-20.4-31.9-38.2-38.2c17.8-6.3,31.9-20.4,38.2-38.3C754.5,172.4,768.6,186.6,786.4,192.9
			z M866.7,154.6c6.3,17.8,20.4,31.9,38.2,38.3c-17.8,6.3-31.9,20.4-38.2,38.2c-6.3-17.8-20.4-31.9-38.2-38.2
			C846.3,186.6,860.4,172.4,866.7,154.6z M828.5,74.2c17.8-6.3,31.9-20.4,38.2-38.3c6.3,17.8,20.4,31.9,38.2,38.3
			c-17.8,6.3-31.9,20.4-38.2,38.2C860.4,94.6,846.3,80.5,828.5,74.2z M922.3,70.4c-13.9-0.9-26.4-6.9-35.6-16.2
			c-9.3-9.3-15.2-21.7-16.2-35.6c13.9,0.9,26.4,6.9,35.6,16.2C915.4,44,921.4,56.5,922.3,70.4z M827.3,34.8
			c9.3-9.3,21.7-15.2,35.6-16.2C862,32.5,856,45,846.8,54.2c-9.3,9.3-21.7,15.2-35.6,16.2C812.1,56.5,818.1,44,827.3,34.8z
			 M803.7,70.4c-13.9-0.9-26.4-6.9-35.6-16.2c-9.3-9.3-15.2-21.7-16.2-35.6c13.9,0.9,26.4,6.9,35.6,16.2
			C796.8,44,802.8,56.5,803.7,70.4z M708.8,34.8c9.3-9.3,21.7-15.2,35.6-16.2c-0.9,13.9-6.9,26.4-16.2,35.6
			c-9.3,9.3-21.7,15.2-35.6,16.2C693.5,56.5,699.5,44,708.8,34.8z M692.6,78c13.9,0.9,26.4,6.9,35.6,16.2
			c9.3,9.3,15.2,21.7,16.2,35.6c-13.9-0.9-26.4-6.9-35.6-16.2C699.5,104.3,693.5,91.8,692.6,78z M708.8,153.5
			c9.3-9.3,21.7-15.2,35.6-16.2c-0.9,13.9-6.9,26.4-16.2,35.6c-9.3,9.3-21.7,15.2-35.6,16.2C693.5,175.2,699.5,162.7,708.8,153.5z
			 M692.6,196.7c13.9,0.9,26.4,6.9,35.6,16.2c9.3,9.3,15.2,21.7,16.2,35.6c-13.9-0.9-26.4-6.9-35.6-16.2
			C699.5,223,693.5,210.5,692.6,196.7z M787.5,232.3c-9.3,9.3-21.7,15.2-35.6,16.2c0.9-13.9,6.9-26.4,16.2-35.6
			c9.3-9.3,21.7-15.2,35.6-16.2C802.8,210.5,796.8,223,787.5,232.3z M811.2,196.7c13.9,0.9,26.4,6.9,35.6,16.2
			c9.3,9.3,15.2,21.7,16.2,35.6c-13.9-0.9-26.4-6.9-35.6-16.2C818.1,223,812.1,210.5,811.2,196.7z M906.1,232.3
			c-9.3,9.3-21.7,15.2-35.6,16.2c0.9-13.9,6.9-26.4,16.2-35.6c9.3-9.3,21.7-15.2,35.6-16.2C921.4,210.5,915.4,223,906.1,232.3z
			 M922.3,189.1c-13.9-0.9-26.4-6.9-35.6-16.2c-9.3-9.3-15.2-21.7-16.2-35.6c13.9,0.9,26.4,6.9,35.6,16.2
			C915.4,162.7,921.4,175.2,922.3,189.1z M906.1,113.6c-9.3,9.3-21.7,15.2-35.6,16.2c0.9-13.9,6.9-26.4,16.2-35.6
			c9.3-9.3,21.7-15.2,35.6-16.2C921.4,91.8,915.4,104.3,906.1,113.6z"/>
	</g>
	<g>
		<defs>
			<circle id="SVGID_25_" cx="1262.4" cy="74.3" r="63"/>
		</defs>
		<clipPath id="SVGID_4_">
			<use xlink:href="#SVGID_25_"  style="overflow:visible;"/>
		</clipPath>
		<path class="st4" d="M1325.3,71c-1.8-31.9-27.3-57.4-59.2-59.2v-0.1h-3.6h-3.6v0.1c-25.7,1.5-47.3,18.4-55.7,41.6
			c-8.3-23.3-29.9-40.2-55.7-41.6v-0.1h-3.6h-3.6v0.1c-31.9,1.8-57.4,27.3-59.2,59.2h-0.1v3.6v3.6h0.1c1.5,25.8,18.5,47.4,41.8,55.7
			c-23.3,8.3-40.3,29.9-41.8,55.7h-0.1v3.6v3.6h0.1c1.8,31.9,27.3,57.4,59.2,59.2v0.1h3.6h3.6v-0.1c25.7-1.5,47.3-18.4,55.7-41.6
			c8.3,23.2,29.9,40.2,55.7,41.6v0.1h3.6h3.6v-0.1c31.9-1.8,57.4-27.3,59.2-59.2h0.1v-3.6v-3.6h-0.1c-1.5-25.8-18.5-47.4-41.8-55.7
			c23.3-8.3,40.3-29.9,41.8-55.7h0.1v-3.6V71H1325.3z M1183.2,114c-9.3,9.3-21.7,15.2-35.6,16.2c0.9-13.9,6.9-26.4,16.2-35.6
			c9.3-9.3,21.7-15.2,35.6-16.2C1198.5,92.3,1192.5,104.8,1183.2,114z M1203.1,95.9c6.4,17.7,20.4,31.8,38.2,38.1
			c-17.8,6.3-31.8,20.4-38.2,38.1c-6.4-17.7-20.4-31.8-38.2-38.1C1182.7,127.7,1196.8,113.6,1203.1,95.9z M1183.2,153.9
			c9.3,9.3,15.2,21.7,16.2,35.6c-13.9-0.9-26.4-6.9-35.6-16.2c-9.3-9.3-15.2-21.7-16.2-35.6C1161.5,138.7,1174,144.7,1183.2,153.9z
			 M1223,153.9c9.3-9.3,21.7-15.2,35.6-16.2c-0.9,13.9-6.9,26.4-16.2,35.6c-9.3,9.3-21.7,15.2-35.6,16.2
			C1207.8,175.7,1213.8,163.2,1223,153.9z M1223,114c-9.3-9.3-15.2-21.7-16.2-35.6c13.9,0.9,26.4,6.9,35.6,16.2
			c9.3,9.3,15.2,21.7,16.2,35.6C1244.8,129.3,1232.3,123.3,1223,114z M1143.8,112.9c-6.3-17.8-20.4-31.9-38.2-38.2
			c17.8-6.3,31.9-20.4,38.2-38.3c6.3,17.8,20.4,31.9,38.2,38.3C1164.3,81,1150.2,95.1,1143.8,112.9z M1182.1,193.3
			c-17.8,6.3-31.9,20.4-38.2,38.2c-6.3-17.8-20.4-31.9-38.2-38.2c17.8-6.3,31.9-20.4,38.2-38.3
			C1150.2,172.9,1164.3,187,1182.1,193.3z M1262.4,155.1c6.3,17.8,20.4,31.9,38.2,38.3c-17.8,6.3-31.9,20.4-38.2,38.2
			c-6.3-17.8-20.4-31.9-38.2-38.2C1242,187,1256.1,172.9,1262.4,155.1z M1224.2,74.6c17.8-6.3,31.9-20.4,38.2-38.3
			c6.3,17.8,20.4,31.9,38.2,38.3c-17.8,6.3-31.9,20.4-38.2,38.2C1256.1,95.1,1242,81,1224.2,74.6z M1318,70.9
			c-13.9-0.9-26.4-6.9-35.6-16.2c-9.3-9.3-15.2-21.7-16.2-35.6c13.9,0.9,26.4,6.9,35.6,16.2C1311.1,44.5,1317,57,1318,70.9z
			 M1223,35.2c9.3-9.3,21.7-15.2,35.6-16.2c-0.9,13.9-6.9,26.4-16.2,35.6c-9.3,9.3-21.7,15.2-35.6,16.2
			C1207.8,57,1213.8,44.5,1223,35.2z M1199.4,70.9c-13.9-0.9-26.4-6.9-35.6-16.2c-9.3-9.3-15.2-21.7-16.2-35.6
			c13.9,0.9,26.4,6.9,35.6,16.2C1192.5,44.5,1198.5,57,1199.4,70.9z M1104.4,35.2c9.3-9.3,21.7-15.2,35.6-16.2
			c-0.9,13.9-6.9,26.4-16.2,35.6c-9.3,9.3-21.7,15.2-35.6,16.2C1089.2,57,1095.2,44.5,1104.4,35.2z M1088.3,78.4
			c13.9,0.9,26.4,6.9,35.6,16.2c9.3,9.3,15.2,21.7,16.2,35.6c-13.9-0.9-26.4-6.9-35.6-16.2C1095.2,104.8,1089.2,92.3,1088.3,78.4z
			 M1104.4,153.9c9.3-9.3,21.7-15.2,35.6-16.2c-0.9,13.9-6.9,26.4-16.2,35.6c-9.3,9.3-21.7,15.2-35.6,16.2
			C1089.2,175.7,1095.2,163.2,1104.4,153.9z M1088.3,197.1c13.9,0.9,26.4,6.9,35.6,16.2c9.3,9.3,15.2,21.7,16.2,35.6
			c-13.9-0.9-26.4-6.9-35.6-16.2C1095.2,223.5,1089.2,211,1088.3,197.1z M1183.2,232.7c-9.3,9.3-21.7,15.2-35.6,16.2
			c0.9-13.9,6.9-26.4,16.2-35.6c9.3-9.3,21.7-15.2,35.6-16.2C1198.5,211,1192.5,223.5,1183.2,232.7z M1206.9,197.1
			c13.9,0.9,26.4,6.9,35.6,16.2c9.3,9.3,15.2,21.7,16.2,35.6c-13.9-0.9-26.4-6.9-35.6-16.2C1213.8,223.5,1207.8,211,1206.9,197.1z
			 M1301.8,232.7c-9.3,9.3-21.7,15.2-35.6,16.2c0.9-13.9,6.9-26.4,16.2-35.6c9.3-9.3,21.7-15.2,35.6-16.2
			C1317,211,1311.1,223.5,1301.8,232.7z M1318,189.6c-13.9-0.9-26.4-6.9-35.6-16.2c-9.3-9.3-15.2-21.7-16.2-35.6
			c13.9,0.9,26.4,6.9,35.6,16.2C1311.1,163.2,1317,175.7,1318,189.6z M1301.8,114c-9.3,9.3-21.7,15.2-35.6,16.2
			c0.9-13.9,6.9-26.4,16.2-35.6c9.3-9.3,21.7-15.2,35.6-16.2C1317,92.3,1311.1,104.8,1301.8,114z"/>
	</g>
	<g>
		<defs>
			<circle id="SVGID_24_" cx="1657.4" cy="74.7" r="63"/>
		</defs>
		<clipPath id="SVGID_5_">
			<use xlink:href="#SVGID_24_"  style="overflow:visible;"/>
		</clipPath>
		<path class="st5" d="M1720.3,71.4c-1.8-31.9-27.3-57.4-59.2-59.2V12h-3.6h-3.6v0.1c-25.7,1.5-47.3,18.4-55.7,41.6
			c-8.3-23.3-29.9-40.2-55.7-41.6V12h-3.6h-3.6v0.1c-31.9,1.8-57.4,27.3-59.2,59.2h-0.1V75v3.6h0.1c1.5,25.8,18.5,47.4,41.8,55.7
			c-23.3,8.3-40.3,29.9-41.8,55.7h-0.1v3.6v3.6h0.1c1.8,31.9,27.3,57.4,59.2,59.2v0.1h3.6h3.6v-0.1c25.7-1.5,47.3-18.4,55.7-41.6
			c8.3,23.2,29.9,40.2,55.7,41.6v0.1h3.6h3.6v-0.1c31.9-1.8,57.4-27.3,59.2-59.2h0.1v-3.6v-3.6h-0.1c-1.5-25.8-18.5-47.4-41.8-55.7
			c23.3-8.3,40.3-29.9,41.8-55.7h0.1V75v-3.6H1720.3z M1578.3,114.4c-9.3,9.3-21.7,15.2-35.6,16.2c0.9-13.9,6.9-26.4,16.2-35.6
			c9.3-9.3,21.7-15.2,35.6-16.2C1593.5,92.7,1587.5,105.1,1578.3,114.4z M1598.2,96.2c6.4,17.7,20.4,31.8,38.2,38.1
			c-17.8,6.3-31.8,20.4-38.2,38.1c-6.4-17.7-20.4-31.8-38.2-38.1C1577.7,128,1591.8,114,1598.2,96.2z M1578.3,154.3
			c9.3,9.3,15.2,21.7,16.2,35.6c-13.9-0.9-26.4-6.9-35.6-16.2c-9.3-9.3-15.2-21.7-16.2-35.6C1556.5,139,1569,145,1578.3,154.3z
			 M1618.1,154.3c9.3-9.3,21.7-15.2,35.6-16.2c-0.9,13.9-6.9,26.4-16.2,35.6c-9.3,9.3-21.7,15.2-35.6,16.2
			C1602.8,176,1608.8,163.6,1618.1,154.3z M1618.1,114.4c-9.3-9.3-15.2-21.7-16.2-35.6c13.9,0.9,26.4,6.9,35.6,16.2
			c9.3,9.3,15.2,21.7,16.2,35.6C1639.8,129.6,1627.3,123.6,1618.1,114.4z M1538.9,113.2c-6.3-17.8-20.4-31.9-38.2-38.2
			c17.8-6.3,31.9-20.4,38.2-38.3c6.3,17.8,20.4,31.9,38.2,38.3C1559.3,81.3,1545.2,95.4,1538.9,113.2z M1577.1,193.7
			c-17.8,6.3-31.9,20.4-38.2,38.2c-6.3-17.8-20.4-31.9-38.2-38.2c17.8-6.3,31.9-20.4,38.2-38.3
			C1545.2,173.3,1559.3,187.4,1577.1,193.7z M1657.5,155.4c6.3,17.8,20.4,31.9,38.2,38.3c-17.8,6.3-31.9,20.4-38.2,38.2
			c-6.3-17.8-20.4-31.9-38.2-38.2C1637,187.4,1651.1,173.3,1657.5,155.4z M1619.2,75c17.8-6.3,31.9-20.4,38.2-38.3
			c6.3,17.8,20.4,31.9,38.2,38.3c-17.8,6.3-31.9,20.4-38.2,38.2C1651.1,95.4,1637,81.3,1619.2,75z M1713,71.2
			c-13.9-0.9-26.4-6.9-35.6-16.2c-9.3-9.3-15.2-21.7-16.2-35.6c13.9,0.9,26.4,6.9,35.6,16.2C1706.1,44.9,1712.1,57.3,1713,71.2z
			 M1618.1,35.6c9.3-9.3,21.7-15.2,35.6-16.2c-0.9,13.9-6.9,26.4-16.2,35.6c-9.3,9.3-21.7,15.2-35.6,16.2
			C1602.8,57.3,1608.8,44.9,1618.1,35.6z M1594.4,71.2c-13.9-0.9-26.4-6.9-35.6-16.2c-9.3-9.3-15.2-21.7-16.2-35.6
			c13.9,0.9,26.4,6.9,35.6,16.2C1587.5,44.9,1593.5,57.3,1594.4,71.2z M1499.5,35.6c9.3-9.3,21.7-15.2,35.6-16.2
			c-0.9,13.9-6.9,26.4-16.2,35.6c-9.3,9.3-21.7,15.2-35.6,16.2C1484.2,57.3,1490.2,44.9,1499.5,35.6z M1483.3,78.8
			c13.9,0.9,26.4,6.9,35.6,16.2c9.3,9.3,15.2,21.7,16.2,35.6c-13.9-0.9-26.4-6.9-35.6-16.2C1490.2,105.1,1484.2,92.7,1483.3,78.8z
			 M1499.5,154.3c9.3-9.3,21.7-15.2,35.6-16.2c-0.9,13.9-6.9,26.4-16.2,35.6c-9.3,9.3-21.7,15.2-35.6,16.2
			C1484.2,176,1490.2,163.6,1499.5,154.3z M1483.3,197.5c13.9,0.9,26.4,6.9,35.6,16.2c9.3,9.3,15.2,21.7,16.2,35.6
			c-13.9-0.9-26.4-6.9-35.6-16.2C1490.2,223.8,1484.2,211.3,1483.3,197.5z M1578.3,233.1c-9.3,9.3-21.7,15.2-35.6,16.2
			c0.9-13.9,6.9-26.4,16.2-35.6c9.3-9.3,21.7-15.2,35.6-16.2C1593.5,211.3,1587.5,223.8,1578.3,233.1z M1601.9,197.5
			c13.9,0.9,26.4,6.9,35.6,16.2c9.3,9.3,15.2,21.7,16.2,35.6c-13.9-0.9-26.4-6.9-35.6-16.2C1608.8,223.8,1602.8,211.3,1601.9,197.5z
			 M1696.8,233.1c-9.3,9.3-21.7,15.2-35.6,16.2c0.9-13.9,6.9-26.4,16.2-35.6c9.3-9.3,21.7-15.2,35.6-16.2
			C1712.1,211.3,1706.1,223.8,1696.8,233.1z M1713,189.9c-13.9-0.9-26.4-6.9-35.6-16.2c-9.3-9.3-15.2-21.7-16.2-35.6
			c13.9,0.9,26.4,6.9,35.6,16.2C1706.1,163.6,1712.1,176,1713,189.9z M1696.8,114.4c-9.3,9.3-21.7,15.2-35.6,16.2
			c0.9-13.9,6.9-26.4,16.2-35.6c9.3-9.3,21.7-15.2,35.6-16.2C1712.1,92.7,1706.1,105.1,1696.8,114.4z"/>
	</g>
	<path class="st6" d="M304.7,63.2l-8.8,8.7l-7.6-7.7h0l-12.1-12.2l-1.1,1.1l-8.8,8.7v0l-1.1,1.1l-8.8,8.7l-9.9-9.9l-1.1,1.1
		l-9.4,9.4l-31.7-0.1l0,3.2l31.7,0.1l10.5,10.6l9.9-9.9L264,84l0,0l1.5,1.5l0.7,0.7l0,0l9.9,9.9l12.2-12.1v0l7.7-7.6l9.9,9.9
		l10.6-10.5l31.7,0.1l0-3.2l-31.7-0.1l-10.5-10.6L304.7,63.2z M276.2,56.6l7.6,7.7l-2.6,2.5l-5.1,5.1l0,0l0,0l-3.8-3.8l-3.8-3.8
		L276.2,56.6z M238.9,74.1l7.7-7.6l7.6,7.7l-7.7,7.6L238.9,74.1z M258.7,74.1l7.7-7.6l7.6,7.7l-2.6,2.5l-5.1,5.1L258.7,74.1z
		 M268.5,84l7.7-7.6l7.6,7.7l-7.7,7.6L268.5,84z M282.2,78l-3.8-3.8l1.8-1.8l5.9-5.8l7.6,7.7l-7.7,7.6L282.2,78z M298.2,74.2
		l7.7-7.6l7.6,7.7l-7.7,7.6L298.2,74.2z"/>
	<path class="st6" d="M699,64l-8.8,8.7l-7.6-7.7h0l-12.1-12.2l-1.1,1.1l-8.8,8.7v0l-1.1,1.1l-8.8,8.7l-9.9-9.9l-1.1,1.1l-9.4,9.4
		l-31.7-0.1l0,3.2l31.7,0.1L640.8,87l9.9-9.9l7.6,7.7l0,0l1.5,1.5l0.7,0.7l0,0l9.9,9.9l12.2-12.1v0l7.7-7.6l9.9,9.9l10.6-10.5
		l31.7,0.1l0-3.2l-31.7-0.1l-10.5-10.6L699,64z M670.5,57.4l7.6,7.7l-2.6,2.5l-5.1,5.1l0,0l0,0l-3.8-3.8l-3.8-3.8L670.5,57.4z
		 M633.2,74.9l7.7-7.6l7.6,7.7l-7.7,7.6L633.2,74.9z M652.9,74.9l7.7-7.6l7.6,7.7l-2.6,2.5l-5.1,5.1L652.9,74.9z M662.8,84.8
		l7.7-7.6l7.6,7.7l-7.7,7.6L662.8,84.8z M676.5,78.8l-3.8-3.8l1.8-1.8l5.9-5.8L688,75l-7.7,7.6L676.5,78.8z M692.5,75l7.7-7.6
		l7.6,7.7l-7.7,7.6L692.5,75z"/>
	<path class="st6" d="M1092.6,64l-8.8,8.7l-7.6-7.7h0l-12.1-12.2L1063,54l-8.8,8.7v0l-1.1,1.1l-8.8,8.7l-9.9-9.9l-1.1,1.1l-9.4,9.4
		l-31.7-0.1l0,3.2l31.7,0.1l10.5,10.6l9.9-9.9l7.6,7.7l0,0l1.5,1.5l0.7,0.7l0,0l9.9,9.9l12.2-12.1v0l7.7-7.6l9.9,9.9l10.6-10.5
		l31.7,0.1l0-3.2l-31.7-0.1l-10.5-10.6L1092.6,64z M1064.1,57.4l7.6,7.7l-2.6,2.5l-5.1,5.1l0,0l0,0l-3.8-3.8l-3.8-3.8L1064.1,57.4z
		 M1026.7,74.9l7.7-7.6l7.6,7.7l-7.7,7.6L1026.7,74.9z M1046.5,74.9l7.7-7.6l7.6,7.7l-2.6,2.5l-5.1,5.1L1046.5,74.9z M1056.4,84.8
		l7.7-7.6l7.6,7.7l-7.7,7.6L1056.4,84.8z M1070.1,78.8l-3.8-3.8l1.8-1.8l5.9-5.8l7.6,7.7l-7.7,7.6L1070.1,78.8z M1086.1,75l7.7-7.6
		l7.6,7.7l-7.7,7.6L1086.1,75z"/>
	<path class="st6" d="M1488,64l-8.8,8.7l-7.6-7.7h0l-12.1-12.2l-1.1,1.1l-8.8,8.7v0l-1.1,1.1l-8.8,8.7l-9.9-9.9l-1.1,1.1l-9.4,9.4
		l-31.7-0.1l0,3.2l31.7,0.1l10.5,10.6l9.9-9.9l7.6,7.7l0,0l1.5,1.5l0.7,0.7l0,0l9.9,9.9l12.2-12.1v0l7.7-7.6l9.9,9.9l10.6-10.5
		l31.7,0.1l0-3.2l-31.7-0.1l-10.5-10.6L1488,64z M1459.5,57.4l7.6,7.7l-2.6,2.5l-5.1,5.1l0,0l0,0l-3.8-3.8l-3.8-3.8L1459.5,57.4z
		 M1422.1,74.9l7.7-7.6l7.6,7.7l-7.7,7.6L1422.1,74.9z M1441.9,74.9l7.7-7.6l7.6,7.7l-2.6,2.5l-5.1,5.1L1441.9,74.9z M1451.8,84.8
		l7.7-7.6l7.6,7.7l-7.7,7.6L1451.8,84.8z M1465.5,78.8l-3.8-3.8l1.8-1.8l5.9-5.8l7.6,7.7l-7.7,7.6L1465.5,78.8z M1481.4,75l7.7-7.6
		l7.6,7.7l-7.7,7.6L1481.4,75z"/>
</g>
</svg>
