<?xml version="1.0" encoding="utf-8"?>
<!-- Generator: Adobe Illustrator 24.0.1, SVG Export Plug-In . SVG Version: 6.00 Build 0)  -->
<svg version="1.1" id="Capa_1" xmlns="http://www.w3.org/2000/svg" xmlns:xlink="http://www.w3.org/1999/xlink" x="0px" y="0px"
	 viewBox="0 0 1724 144" style="enable-background:new 0 0 1724 144;" xml:space="preserve">
<style type="text/css">
	.st0{fill:#980D1D;}
	.st1{clip-path:url(#SVGID_1_);fill:#FFC565;}
	.st2{clip-path:url(#SVGID_2_);fill:#FFC565;}
	.st3{clip-path:url(#SVGID_3_);fill:#FFC565;}
	.st4{clip-path:url(#SVGID_4_);fill:#FFC565;}
	.st5{clip-path:url(#SVGID_5_);fill:#FFC565;}
	.st6{fill:#FFC565;}
	.st7{clip-path:url(#SVGID_6_);fill:#FFC565;}
</style>
<g>
	<g>
		<rect x="72.1" y="41.8" class="st0" width="1579" height="61"/>
	</g>
	<g>
		<g>
			<circle class="st0" cx="72.6" cy="71.9" r="72.5"/>
		</g>
		<g>
			<defs>
				<circle id="SVGID_17_" cx="73.1" cy="71.6" r="63"/>
			</defs>
			<clipPath id="SVGID_1_">
				<use xlink:href="#SVGID_17_"  style="overflow:visible;"/>
			</clipPath>
			<path class="st1" d="M135.9,68.3C134.1,36.4,108.6,10.9,76.7,9V8.9h-3.6h-3.6V9c-25.7,1.5-47.3,18.4-55.7,41.6
				C5.5,27.4-16.1,10.5-41.9,9V8.9h-3.6h-3.6V9c-31.9,1.8-57.4,27.3-59.2,59.2h-0.1v3.6v3.6h0.1c1.5,25.8,18.5,47.4,41.8,55.7
				c-23.3,8.3-40.3,29.9-41.8,55.7h-0.1v3.6v3.6h0.1c1.8,31.9,27.3,57.4,59.2,59.2v0.1h3.6h3.6v-0.1c25.7-1.5,47.3-18.4,55.7-41.6
				c8.3,23.2,29.9,40.2,55.7,41.6v0.1h3.6h3.6v-0.1c31.9-1.8,57.4-27.3,59.2-59.2h0.1v-3.6V187h-0.1c-1.5-25.8-18.5-47.4-41.8-55.7
				c23.3-8.3,40.3-29.9,41.8-55.7h0.1v-3.6v-3.6H135.9z M-6.1,111.3c-9.3,9.3-21.7,15.2-35.6,16.2c0.9-13.9,6.9-26.4,16.2-35.6
				c9.3-9.3,21.7-15.2,35.6-16.2C9.1,89.6,3.1,102.1-6.1,111.3z M13.8,93.2c6.4,17.7,20.4,31.8,38.2,38.1
				c-17.8,6.3-31.8,20.4-38.2,38.1c-6.4-17.7-20.4-31.8-38.2-38.1C-6.7,124.9,7.4,110.9,13.8,93.2z M-6.1,151.2
				c9.3,9.3,15.2,21.7,16.2,35.6c-13.9-0.9-26.4-6.9-35.6-16.2c-9.3-9.3-15.2-21.7-16.2-35.6C-27.9,136-15.4,142-6.1,151.2z
				 M33.7,151.2C43,142,55.4,136,69.3,135c-0.9,13.9-6.9,26.4-16.2,35.6c-9.3,9.3-21.7,15.2-35.6,16.2
				C18.4,173,24.4,160.5,33.7,151.2z M33.7,111.3c-9.3-9.3-15.2-21.7-16.2-35.6c13.9,0.9,26.4,6.9,35.6,16.2
				c9.3,9.3,15.2,21.7,16.2,35.6C55.4,126.6,43,120.6,33.7,111.3z M-45.5,110.2c-6.3-17.8-20.4-31.9-38.2-38.2
				c17.8-6.3,31.9-20.4,38.2-38.3c6.3,17.8,20.4,31.9,38.2,38.3C-25.1,78.3-39.2,92.4-45.5,110.2z M-7.3,190.6
				c-17.8,6.3-31.9,20.4-38.2,38.2c-6.3-17.8-20.4-31.9-38.2-38.2c17.8-6.3,31.9-20.4,38.2-38.3C-39.2,170.2-25.1,184.3-7.3,190.6z
				 M73.1,152.4c6.3,17.8,20.4,31.9,38.2,38.3c-17.8,6.3-31.9,20.4-38.2,38.2c-6.3-17.8-20.4-31.9-38.2-38.2
				C52.6,184.3,66.7,170.2,73.1,152.4z M34.8,71.9c17.8-6.3,31.9-20.4,38.2-38.3c6.3,17.8,20.4,31.9,38.2,38.3
				c-17.8,6.3-31.9,20.4-38.2,38.2C66.7,92.4,52.6,78.3,34.8,71.9z M128.6,68.1C114.8,67.2,102.3,61.2,93,52
				c-9.3-9.3-15.2-21.7-16.2-35.6c13.9,0.9,26.4,6.9,35.6,16.2C121.7,41.8,127.7,54.3,128.6,68.1z M33.7,32.5
				c9.3-9.3,21.7-15.2,35.6-16.2C68.4,30.2,62.4,42.7,53.1,52c-9.3,9.3-21.7,15.2-35.6,16.2C18.4,54.3,24.4,41.8,33.7,32.5z
				 M10.1,68.1C-3.8,67.2-16.3,61.2-25.6,52c-9.3-9.3-15.2-21.7-16.2-35.6c13.9,0.9,26.4,6.9,35.6,16.2C3.1,41.8,9.1,54.3,10.1,68.1
				z M-84.9,32.5c9.3-9.3,21.7-15.2,35.6-16.2c-0.9,13.9-6.9,26.4-16.2,35.6c-9.3,9.3-21.7,15.2-35.6,16.2
				C-100.1,54.3-94.1,41.8-84.9,32.5z M-101.1,75.7c13.9,0.9,26.4,6.9,35.6,16.2c9.3,9.3,15.2,21.7,16.2,35.6
				c-13.9-0.9-26.4-6.9-35.6-16.2C-94.1,102.1-100.1,89.6-101.1,75.7z M-84.9,151.2c9.3-9.3,21.7-15.2,35.6-16.2
				c-0.9,13.9-6.9,26.4-16.2,35.6c-9.3,9.3-21.7,15.2-35.6,16.2C-100.1,173-94.1,160.5-84.9,151.2z M-101.1,194.4
				c13.9,0.9,26.4,6.9,35.6,16.2c9.3,9.3,15.2,21.7,16.2,35.6c-13.9-0.9-26.4-6.9-35.6-16.2C-94.1,220.7-100.1,208.3-101.1,194.4z
				 M-6.1,230c-9.3,9.3-21.7,15.2-35.6,16.2c0.9-13.9,6.9-26.4,16.2-35.6c9.3-9.3,21.7-15.2,35.6-16.2C9.1,208.3,3.1,220.7-6.1,230z
				 M17.5,194.4c13.9,0.9,26.4,6.9,35.6,16.2c9.3,9.3,15.2,21.7,16.2,35.6c-13.9-0.9-26.4-6.9-35.6-16.2
				C24.4,220.7,18.4,208.3,17.5,194.4z M112.5,230c-9.3,9.3-21.7,15.2-35.6,16.2c0.9-13.9,6.9-26.4,16.2-35.6
				c9.3-9.3,21.7-15.2,35.6-16.2C127.7,208.3,121.7,220.7,112.5,230z M128.6,186.8c-13.9-0.9-26.4-6.9-35.6-16.2
				c-9.3-9.3-15.2-21.7-16.2-35.6c13.9,0.9,26.4,6.9,35.6,16.2C121.7,160.5,127.7,173,128.6,186.8z M112.5,111.3
				c-9.3,9.3-21.7,15.2-35.6,16.2c0.9-13.9,6.9-26.4,16.2-35.6c9.3-9.3,21.7-15.2,35.6-16.2C127.7,89.6,121.7,102.1,112.5,111.3z"/>
		</g>
	</g>
	<g>
		<g>
			<circle class="st0" cx="388.4" cy="71.9" r="72.5"/>
		</g>
		<g>
			<defs>
				<circle id="SVGID_16_" cx="388.5" cy="71.2" r="63"/>
			</defs>
			<clipPath id="SVGID_2_">
				<use xlink:href="#SVGID_16_"  style="overflow:visible;"/>
			</clipPath>
			<path class="st2" d="M451.4,67.8c-1.8-31.9-27.3-57.4-59.2-59.2V8.5h-3.6h-3.6v0.1c-25.7,1.5-47.3,18.4-55.7,41.6
				c-8.3-23.3-29.9-40.2-55.7-41.6V8.5h-3.6h-3.6v0.1c-31.9,1.8-57.4,27.3-59.2,59.2h-0.1v3.6v3.6h0.1c1.5,25.8,18.5,47.4,41.8,55.7
				c-23.3,8.3-40.3,29.9-41.8,55.7h-0.1v3.6v3.6h0.1c1.8,31.9,27.3,57.4,59.2,59.2v0.1h3.6h3.6V253c25.7-1.5,47.3-18.4,55.7-41.6
				c8.3,23.2,29.9,40.2,55.7,41.6v0.1h3.6h3.6V253c31.9-1.8,57.4-27.3,59.2-59.2h0.1v-3.6v-3.6h-0.1c-1.5-25.8-18.5-47.4-41.8-55.7
				c23.3-8.3,40.3-29.9,41.8-55.7h0.1v-3.6v-3.6H451.4z M309.3,110.9c-9.3,9.3-21.7,15.2-35.6,16.2c0.9-13.9,6.9-26.4,16.2-35.6
				c9.3-9.3,21.7-15.2,35.6-16.2C324.5,89.1,318.6,101.6,309.3,110.9z M329.2,92.7c6.4,17.7,20.4,31.8,38.2,38.1
				c-17.8,6.3-31.8,20.4-38.2,38.1c-6.4-17.7-20.4-31.8-38.2-38.1C308.8,124.5,322.9,110.4,329.2,92.7z M309.3,150.8
				c9.3,9.3,15.2,21.7,16.2,35.6c-13.9-0.9-26.4-6.9-35.6-16.2c-9.3-9.3-15.2-21.7-16.2-35.6C287.6,135.5,300,141.5,309.3,150.8z
				 M349.1,150.8c9.3-9.3,21.7-15.2,35.6-16.2c-0.9,13.9-6.9,26.4-16.2,35.6c-9.3,9.3-21.7,15.2-35.6,16.2
				C333.9,172.5,339.9,160,349.1,150.8z M349.1,110.9c-9.3-9.3-15.2-21.7-16.2-35.6c13.9,0.9,26.4,6.9,35.6,16.2
				c9.3,9.3,15.2,21.7,16.2,35.6C370.8,126.1,358.4,120.1,349.1,110.9z M269.9,109.7c-6.3-17.8-20.4-31.9-38.2-38.2
				c17.8-6.3,31.9-20.4,38.2-38.3c6.3,17.8,20.4,31.9,38.2,38.3C290.4,77.8,276.2,91.9,269.9,109.7z M308.2,190.2
				c-17.8,6.3-31.9,20.4-38.2,38.2c-6.3-17.8-20.4-31.9-38.2-38.2c17.8-6.3,31.9-20.4,38.2-38.3
				C276.2,169.7,290.4,183.8,308.2,190.2z M388.5,151.9c6.3,17.8,20.4,31.9,38.2,38.3c-17.8,6.3-31.9,20.4-38.2,38.2
				c-6.3-17.8-20.4-31.9-38.2-38.2C368.1,183.8,382.2,169.7,388.5,151.9z M350.3,71.5c17.8-6.3,31.9-20.4,38.2-38.3
				c6.3,17.8,20.4,31.9,38.2,38.3c-17.8,6.3-31.9,20.4-38.2,38.2C382.2,91.9,368.1,77.8,350.3,71.5z M444.1,67.7
				c-13.9-0.9-26.4-6.9-35.6-16.2c-9.3-9.3-15.2-21.7-16.2-35.6c13.9,0.9,26.4,6.9,35.6,16.2C437.1,41.3,443.1,53.8,444.1,67.7z
				 M349.1,32.1c9.3-9.3,21.7-15.2,35.6-16.2c-0.9,13.9-6.9,26.4-16.2,35.6c-9.3,9.3-21.7,15.2-35.6,16.2
				C333.9,53.8,339.9,41.3,349.1,32.1z M325.5,67.7c-13.9-0.9-26.4-6.9-35.6-16.2c-9.3-9.3-15.2-21.7-16.2-35.6
				c13.9,0.9,26.4,6.9,35.6,16.2C318.6,41.3,324.5,53.8,325.5,67.7z M230.5,32.1c9.3-9.3,21.7-15.2,35.6-16.2
				c-0.9,13.9-6.9,26.4-16.2,35.6c-9.3,9.3-21.7,15.2-35.6,16.2C215.3,53.8,221.3,41.3,230.5,32.1z M214.4,75.2
				c13.9,0.9,26.4,6.9,35.6,16.2c9.3,9.3,15.2,21.7,16.2,35.6c-13.9-0.9-26.4-6.9-35.6-16.2C221.3,101.6,215.3,89.1,214.4,75.2z
				 M230.5,150.8c9.3-9.3,21.7-15.2,35.6-16.2c-0.9,13.9-6.9,26.4-16.2,35.6c-9.3,9.3-21.7,15.2-35.6,16.2
				C215.3,172.5,221.3,160,230.5,150.8z M214.4,193.9c13.9,0.9,26.4,6.9,35.6,16.2c9.3,9.3,15.2,21.7,16.2,35.6
				c-13.9-0.9-26.4-6.9-35.6-16.2C221.3,220.3,215.3,207.8,214.4,193.9z M309.3,229.5c-9.3,9.3-21.7,15.2-35.6,16.2
				c0.9-13.9,6.9-26.4,16.2-35.6c9.3-9.3,21.7-15.2,35.6-16.2C324.5,207.8,318.6,220.3,309.3,229.5z M332.9,193.9
				c13.9,0.9,26.4,6.9,35.6,16.2c9.3,9.3,15.2,21.7,16.2,35.6c-13.9-0.9-26.4-6.9-35.6-16.2C339.9,220.3,333.9,207.8,332.9,193.9z
				 M427.9,229.5c-9.3,9.3-21.7,15.2-35.6,16.2c0.9-13.9,6.9-26.4,16.2-35.6c9.3-9.3,21.7-15.2,35.6-16.2
				C443.1,207.8,437.1,220.3,427.9,229.5z M444.1,186.4c-13.9-0.9-26.4-6.9-35.6-16.2c-9.3-9.3-15.2-21.7-16.2-35.6
				c13.9,0.9,26.4,6.9,35.6,16.2C437.1,160,443.1,172.5,444.1,186.4z M427.9,110.9c-9.3,9.3-21.7,15.2-35.6,16.2
				c0.9-13.9,6.9-26.4,16.2-35.6c9.3-9.3,21.7-15.2,35.6-16.2C443.1,89.1,437.1,101.6,427.9,110.9z"/>
		</g>
	</g>
	<g>
		<g>
			<circle class="st0" cx="704.2" cy="71.9" r="72.5"/>
		</g>
		<g>
			<defs>
				<circle id="SVGID_15_" cx="702.8" cy="71.9" r="63"/>
			</defs>
			<clipPath id="SVGID_3_">
				<use xlink:href="#SVGID_15_"  style="overflow:visible;"/>
			</clipPath>
			<path class="st3" d="M765.7,68.6c-1.8-31.9-27.3-57.4-59.2-59.2V9.2h-3.6h-3.6v0.1c-25.7,1.5-47.3,18.4-55.7,41.6
				c-8.3-23.3-29.9-40.2-55.7-41.6V9.2h-3.6h-3.6v0.1c-31.9,1.8-57.4,27.3-59.2,59.2h-0.1v3.6v3.6h0.1c1.5,25.8,18.5,47.4,41.8,55.7
				c-23.3,8.3-40.3,29.9-41.8,55.7h-0.1v3.6v3.6h0.1c1.8,31.9,27.3,57.4,59.2,59.2v0.1h3.6h3.6v-0.1c25.7-1.5,47.3-18.4,55.7-41.6
				c8.3,23.2,29.9,40.2,55.7,41.6v0.1h3.6h3.6v-0.1c31.9-1.8,57.4-27.3,59.2-59.2h0.1v-3.6v-3.6h-0.1c-1.5-25.8-18.5-47.4-41.8-55.7
				c23.3-8.3,40.3-29.9,41.8-55.7h0.1v-3.6v-3.6H765.7z M623.6,111.6c-9.3,9.3-21.7,15.2-35.6,16.2c0.9-13.9,6.9-26.4,16.2-35.6
				c9.3-9.3,21.7-15.2,35.6-16.2C638.9,89.8,632.9,102.3,623.6,111.6z M643.5,93.4c6.4,17.7,20.4,31.8,38.2,38.1
				c-17.8,6.3-31.8,20.4-38.2,38.1c-6.4-17.7-20.4-31.8-38.2-38.1C623.1,125.2,637.2,111.2,643.5,93.4z M623.6,151.5
				c9.3,9.3,15.2,21.7,16.2,35.6c-13.9-0.9-26.4-6.9-35.6-16.2c-9.3-9.3-15.2-21.7-16.2-35.6C601.9,136.2,614.4,142.2,623.6,151.5z
				 M663.4,151.5c9.3-9.3,21.7-15.2,35.6-16.2c-0.9,13.9-6.9,26.4-16.2,35.6c-9.3,9.3-21.7,15.2-35.6,16.2
				C648.2,173.2,654.2,160.7,663.4,151.5z M663.4,111.6c-9.3-9.3-15.2-21.7-16.2-35.6c13.9,0.9,26.4,6.9,35.6,16.2
				c9.3,9.3,15.2,21.7,16.2,35.6C685.2,126.8,672.7,120.8,663.4,111.6z M584.2,110.4c-6.3-17.8-20.4-31.9-38.2-38.2
				c17.8-6.3,31.9-20.4,38.2-38.3c6.3,17.8,20.4,31.9,38.2,38.3C604.7,78.5,590.6,92.6,584.2,110.4z M622.5,190.9
				c-17.8,6.3-31.9,20.4-38.2,38.2c-6.3-17.8-20.4-31.9-38.2-38.2c17.8-6.3,31.9-20.4,38.2-38.3
				C590.6,170.4,604.7,184.6,622.5,190.9z M702.8,152.6c6.3,17.8,20.4,31.9,38.2,38.3c-17.8,6.3-31.9,20.4-38.2,38.2
				c-6.3-17.8-20.4-31.9-38.2-38.2C682.4,184.6,696.5,170.4,702.8,152.6z M664.6,72.2c17.8-6.3,31.9-20.4,38.2-38.3
				c6.3,17.8,20.4,31.9,38.2,38.3c-17.8,6.3-31.9,20.4-38.2,38.2C696.5,92.6,682.4,78.5,664.6,72.2z M758.4,68.4
				c-13.9-0.9-26.4-6.9-35.6-16.2c-9.3-9.3-15.2-21.7-16.2-35.6c13.9,0.9,26.4,6.9,35.6,16.2C751.5,42,757.5,54.5,758.4,68.4z
				 M663.4,32.8c9.3-9.3,21.7-15.2,35.6-16.2c-0.9,13.9-6.9,26.4-16.2,35.6c-9.3,9.3-21.7,15.2-35.6,16.2
				C648.2,54.5,654.2,42,663.4,32.8z M639.8,68.4c-13.9-0.9-26.4-6.9-35.6-16.2C594.9,43,589,30.5,588,16.6
				c13.9,0.9,26.4,6.9,35.6,16.2C632.9,42,638.9,54.5,639.8,68.4z M544.9,32.8c9.3-9.3,21.7-15.2,35.6-16.2
				c-0.9,13.9-6.9,26.4-16.2,35.6c-9.3,9.3-21.7,15.2-35.6,16.2C529.6,54.5,535.6,42,544.9,32.8z M528.7,76
				c13.9,0.9,26.4,6.9,35.6,16.2c9.3,9.3,15.2,21.7,16.2,35.6c-13.9-0.9-26.4-6.9-35.6-16.2C535.6,102.3,529.6,89.8,528.7,76z
				 M544.9,151.5c9.3-9.3,21.7-15.2,35.6-16.2c-0.9,13.9-6.9,26.4-16.2,35.6c-9.3,9.3-21.7,15.2-35.6,16.2
				C529.6,173.2,535.6,160.7,544.9,151.5z M528.7,194.7c13.9,0.9,26.4,6.9,35.6,16.2c9.3,9.3,15.2,21.7,16.2,35.6
				c-13.9-0.9-26.4-6.9-35.6-16.2C535.6,221,529.6,208.5,528.7,194.7z M623.6,230.3c-9.3,9.3-21.7,15.2-35.6,16.2
				c0.9-13.9,6.9-26.4,16.2-35.6c9.3-9.3,21.7-15.2,35.6-16.2C638.9,208.5,632.9,221,623.6,230.3z M647.3,194.7
				c13.9,0.9,26.4,6.9,35.6,16.2c9.3,9.3,15.2,21.7,16.2,35.6c-13.9-0.9-26.4-6.9-35.6-16.2C654.2,221,648.2,208.5,647.3,194.7z
				 M742.2,230.3c-9.3,9.3-21.7,15.2-35.6,16.2c0.9-13.9,6.9-26.4,16.2-35.6c9.3-9.3,21.7-15.2,35.6-16.2
				C757.5,208.5,751.5,221,742.2,230.3z M758.4,187.1c-13.9-0.9-26.4-6.9-35.6-16.2c-9.3-9.3-15.2-21.7-16.2-35.6
				c13.9,0.9,26.4,6.9,35.6,16.2C751.5,160.7,757.5,173.2,758.4,187.1z M742.2,111.6c-9.3,9.3-21.7,15.2-35.6,16.2
				c0.9-13.9,6.9-26.4,16.2-35.6c9.3-9.3,21.7-15.2,35.6-16.2C757.5,89.8,751.5,102.3,742.2,111.6z"/>
		</g>
	</g>
	<g>
		<g>
			<circle class="st0" cx="1020" cy="71.9" r="72.5"/>
		</g>
		<g>
			<defs>
				<circle id="SVGID_14_" cx="1019.5" cy="72.3" r="63"/>
			</defs>
			<clipPath id="SVGID_4_">
				<use xlink:href="#SVGID_14_"  style="overflow:visible;"/>
			</clipPath>
			<path class="st4" d="M1082.4,69c-1.8-31.9-27.3-57.4-59.2-59.2V9.6h-3.6h-3.6v0.1c-25.7,1.5-47.3,18.4-55.7,41.6
				c-8.3-23.3-29.9-40.2-55.7-41.6V9.6H901h-3.6v0.1c-31.9,1.8-57.4,27.3-59.2,59.2H838v3.6v3.6h0.1c1.5,25.8,18.5,47.4,41.8,55.7
				c-23.3,8.3-40.3,29.9-41.8,55.7H838v3.6v3.6h0.1c1.8,31.9,27.3,57.4,59.2,59.2v0.1h3.6h3.6v-0.1c25.7-1.5,47.3-18.4,55.7-41.6
				c8.3,23.2,29.9,40.2,55.7,41.6v0.1h3.6h3.6v-0.1c31.9-1.8,57.4-27.3,59.2-59.2h0.1v-3.6v-3.6h-0.1c-1.5-25.8-18.5-47.4-41.8-55.7
				c23.3-8.3,40.3-29.9,41.8-55.7h0.1v-3.6V69H1082.4z M940.4,112c-9.3,9.3-21.7,15.2-35.6,16.2c0.9-13.9,6.9-26.4,16.2-35.6
				c9.3-9.3,21.7-15.2,35.6-16.2C955.6,90.3,949.6,102.8,940.4,112z M960.3,93.9c6.4,17.7,20.4,31.8,38.2,38.1
				c-17.8,6.3-31.8,20.4-38.2,38.1c-6.4-17.7-20.4-31.8-38.2-38.1C939.8,125.7,953.9,111.6,960.3,93.9z M940.4,151.9
				c9.3,9.3,15.2,21.7,16.2,35.6c-13.9-0.9-26.4-6.9-35.6-16.2c-9.3-9.3-15.2-21.7-16.2-35.6C918.6,136.7,931.1,142.7,940.4,151.9z
				 M980.2,151.9c9.3-9.3,21.7-15.2,35.6-16.2c-0.9,13.9-6.9,26.4-16.2,35.6c-9.3,9.3-21.7,15.2-35.6,16.2
				C964.9,173.7,970.9,161.2,980.2,151.9z M980.2,112c-9.3-9.3-15.2-21.7-16.2-35.6c13.9,0.9,26.4,6.9,35.6,16.2
				c9.3,9.3,15.2,21.7,16.2,35.6C1001.9,127.3,989.4,121.3,980.2,112z M901,110.9c-6.3-17.8-20.4-31.9-38.2-38.2
				c17.8-6.3,31.9-20.4,38.2-38.3c6.3,17.8,20.4,31.9,38.2,38.3C921.4,79,907.3,93.1,901,110.9z M939.2,191.3
				c-17.8,6.3-31.9,20.4-38.2,38.2c-6.3-17.8-20.4-31.9-38.2-38.2c17.8-6.3,31.9-20.4,38.2-38.3C907.3,170.9,921.4,185,939.2,191.3z
				 M1019.6,153.1c6.3,17.8,20.4,31.9,38.2,38.3c-17.8,6.3-31.9,20.4-38.2,38.2c-6.3-17.8-20.4-31.9-38.2-38.2
				C999.1,185,1013.2,170.9,1019.6,153.1z M981.3,72.6c17.8-6.3,31.9-20.4,38.2-38.3c6.3,17.8,20.4,31.9,38.2,38.3
				c-17.8,6.3-31.9,20.4-38.2,38.2C1013.2,93.1,999.1,79,981.3,72.6z M1075.1,68.9c-13.9-0.9-26.4-6.9-35.6-16.2
				c-9.3-9.3-15.2-21.7-16.2-35.6c13.9,0.9,26.4,6.9,35.6,16.2C1068.2,42.5,1074.2,55,1075.1,68.9z M980.2,33.2
				c9.3-9.3,21.7-15.2,35.6-16.2c-0.9,13.9-6.9,26.4-16.2,35.6c-9.3,9.3-21.7,15.2-35.6,16.2C964.9,55,970.9,42.5,980.2,33.2z
				 M956.5,68.9c-13.9-0.9-26.4-6.9-35.6-16.2c-9.3-9.3-15.2-21.7-16.2-35.6c13.9,0.9,26.4,6.9,35.6,16.2
				C949.6,42.5,955.6,55,956.5,68.9z M861.6,33.2c9.3-9.3,21.7-15.2,35.6-16.2c-0.9,13.9-6.9,26.4-16.2,35.6
				c-9.3,9.3-21.7,15.2-35.6,16.2C846.3,55,852.3,42.5,861.6,33.2z M845.4,76.4c13.9,0.9,26.4,6.9,35.6,16.2
				c9.3,9.3,15.2,21.7,16.2,35.6c-13.9-0.9-26.4-6.9-35.6-16.2C852.3,102.8,846.3,90.3,845.4,76.4z M861.6,151.9
				c9.3-9.3,21.7-15.2,35.6-16.2c-0.9,13.9-6.9,26.4-16.2,35.6c-9.3,9.3-21.7,15.2-35.6,16.2C846.3,173.7,852.3,161.2,861.6,151.9z
				 M845.4,195.1c13.9,0.9,26.4,6.9,35.6,16.2c9.3,9.3,15.2,21.7,16.2,35.6c-13.9-0.9-26.4-6.9-35.6-16.2
				C852.3,221.5,846.3,209,845.4,195.1z M940.4,230.7c-9.3,9.3-21.7,15.2-35.6,16.2c0.9-13.9,6.9-26.4,16.2-35.6
				c9.3-9.3,21.7-15.2,35.6-16.2C955.6,209,949.6,221.5,940.4,230.7z M964,195.1c13.9,0.9,26.4,6.9,35.6,16.2
				c9.3,9.3,15.2,21.7,16.2,35.6c-13.9-0.9-26.4-6.9-35.6-16.2C970.9,221.5,964.9,209,964,195.1z M1059,230.7
				c-9.3,9.3-21.7,15.2-35.6,16.2c0.9-13.9,6.9-26.4,16.2-35.6c9.3-9.3,21.7-15.2,35.6-16.2C1074.2,209,1068.2,221.5,1059,230.7z
				 M1075.1,187.6c-13.9-0.9-26.4-6.9-35.6-16.2c-9.3-9.3-15.2-21.7-16.2-35.6c13.9,0.9,26.4,6.9,35.6,16.2
				C1068.2,161.2,1074.2,173.7,1075.1,187.6z M1059,112c-9.3,9.3-21.7,15.2-35.6,16.2c0.9-13.9,6.9-26.4,16.2-35.6
				c9.3-9.3,21.7-15.2,35.6-16.2C1074.2,90.3,1068.2,102.8,1059,112z"/>
		</g>
	</g>
	<g>
		<g>
			<circle class="st0" cx="1651.6" cy="71.9" r="72.5"/>
		</g>
		<g>
			<defs>
				<circle id="SVGID_13_" cx="1651.4" cy="72.7" r="63"/>
			</defs>
			<clipPath id="SVGID_5_">
				<use xlink:href="#SVGID_13_"  style="overflow:visible;"/>
			</clipPath>
			<path class="st5" d="M1714.3,69.4c-1.8-31.9-27.3-57.4-59.2-59.2V10h-3.6h-3.6v0.1c-25.7,1.5-47.3,18.4-55.7,41.6
				c-8.3-23.3-29.9-40.2-55.7-41.6V10h-3.6h-3.6v0.1c-31.9,1.8-57.4,27.3-59.2,59.2h-0.1V73v3.6h0.1c1.5,25.8,18.5,47.4,41.8,55.7
				c-23.3,8.3-40.3,29.9-41.8,55.7h-0.1v3.6v3.6h0.1c1.8,31.9,27.3,57.4,59.2,59.2v0.1h3.6h3.6v-0.1c25.7-1.5,47.3-18.4,55.7-41.6
				c8.3,23.2,29.9,40.2,55.7,41.6v0.1h3.6h3.6v-0.1c31.9-1.8,57.4-27.3,59.2-59.2h0.1v-3.6v-3.6h-0.1c-1.5-25.8-18.5-47.4-41.8-55.7
				c23.3-8.3,40.3-29.9,41.8-55.7h0.1V73v-3.6H1714.3z M1572.3,112.4c-9.3,9.3-21.7,15.2-35.6,16.2c0.9-13.9,6.9-26.4,16.2-35.6
				c9.3-9.3,21.7-15.2,35.6-16.2C1587.5,90.7,1581.5,103.1,1572.3,112.4z M1592.2,94.2c6.4,17.7,20.4,31.8,38.2,38.1
				c-17.8,6.3-31.8,20.4-38.2,38.1c-6.4-17.7-20.4-31.8-38.2-38.1C1571.7,126,1585.8,112,1592.2,94.2z M1572.3,152.3
				c9.3,9.3,15.2,21.7,16.2,35.6c-13.9-0.9-26.4-6.9-35.6-16.2c-9.3-9.3-15.2-21.7-16.2-35.6C1550.5,137,1563,143,1572.3,152.3z
				 M1612.1,152.3c9.3-9.3,21.7-15.2,35.6-16.2c-0.9,13.9-6.9,26.4-16.2,35.6c-9.3,9.3-21.7,15.2-35.6,16.2
				C1596.8,174,1602.8,161.6,1612.1,152.3z M1612.1,112.4c-9.3-9.3-15.2-21.7-16.2-35.6c13.9,0.9,26.4,6.9,35.6,16.2
				c9.3,9.3,15.2,21.7,16.2,35.6C1633.8,127.6,1621.3,121.6,1612.1,112.4z M1532.9,111.2c-6.3-17.8-20.4-31.9-38.2-38.2
				c17.8-6.3,31.9-20.4,38.2-38.3c6.3,17.8,20.4,31.9,38.2,38.3C1553.3,79.3,1539.2,93.4,1532.9,111.2z M1571.1,191.7
				c-17.8,6.3-31.9,20.4-38.2,38.2c-6.3-17.8-20.4-31.9-38.2-38.2c17.8-6.3,31.9-20.4,38.2-38.3
				C1539.2,171.3,1553.3,185.4,1571.1,191.7z M1651.5,153.4c6.3,17.8,20.4,31.9,38.2,38.3c-17.8,6.3-31.9,20.4-38.2,38.2
				c-6.3-17.8-20.4-31.9-38.2-38.2C1631,185.4,1645.1,171.3,1651.5,153.4z M1613.2,73c17.8-6.3,31.9-20.4,38.2-38.3
				c6.3,17.8,20.4,31.9,38.2,38.3c-17.8,6.3-31.9,20.4-38.2,38.2C1645.1,93.4,1631,79.3,1613.2,73z M1707,69.2
				c-13.9-0.9-26.4-6.9-35.6-16.2c-9.3-9.3-15.2-21.7-16.2-35.6c13.9,0.9,26.4,6.9,35.6,16.2C1700.1,42.9,1706.1,55.3,1707,69.2z
				 M1612.1,33.6c9.3-9.3,21.7-15.2,35.6-16.2c-0.9,13.9-6.9,26.4-16.2,35.6c-9.3,9.3-21.7,15.2-35.6,16.2
				C1596.8,55.3,1602.8,42.9,1612.1,33.6z M1588.4,69.2c-13.9-0.9-26.4-6.9-35.6-16.2c-9.3-9.3-15.2-21.7-16.2-35.6
				c13.9,0.9,26.4,6.9,35.6,16.2C1581.5,42.9,1587.5,55.3,1588.4,69.2z M1493.5,33.6c9.3-9.3,21.7-15.2,35.6-16.2
				c-0.9,13.9-6.9,26.4-16.2,35.6c-9.3,9.3-21.7,15.2-35.6,16.2C1478.2,55.3,1484.2,42.9,1493.5,33.6z M1477.3,76.8
				c13.9,0.9,26.4,6.9,35.6,16.2c9.3,9.3,15.2,21.7,16.2,35.6c-13.9-0.9-26.4-6.9-35.6-16.2C1484.2,103.1,1478.2,90.7,1477.3,76.8z
				 M1493.5,152.3c9.3-9.3,21.7-15.2,35.6-16.2c-0.9,13.9-6.9,26.4-16.2,35.6c-9.3,9.3-21.7,15.2-35.6,16.2
				C1478.2,174,1484.2,161.6,1493.5,152.3z M1477.3,195.5c13.9,0.9,26.4,6.9,35.6,16.2c9.3,9.3,15.2,21.7,16.2,35.6
				c-13.9-0.9-26.4-6.9-35.6-16.2C1484.2,221.8,1478.2,209.3,1477.3,195.5z M1572.3,231.1c-9.3,9.3-21.7,15.2-35.6,16.2
				c0.9-13.9,6.9-26.4,16.2-35.6c9.3-9.3,21.7-15.2,35.6-16.2C1587.5,209.3,1581.5,221.8,1572.3,231.1z M1595.9,195.5
				c13.9,0.9,26.4,6.9,35.6,16.2c9.3,9.3,15.2,21.7,16.2,35.6c-13.9-0.9-26.4-6.9-35.6-16.2C1602.8,221.8,1596.8,209.3,1595.9,195.5
				z M1690.8,231.1c-9.3,9.3-21.7,15.2-35.6,16.2c0.9-13.9,6.9-26.4,16.2-35.6c9.3-9.3,21.7-15.2,35.6-16.2
				C1706.1,209.3,1700.1,221.8,1690.8,231.1z M1707,187.9c-13.9-0.9-26.4-6.9-35.6-16.2c-9.3-9.3-15.2-21.7-16.2-35.6
				c13.9,0.9,26.4,6.9,35.6,16.2C1700.1,161.6,1706.1,174,1707,187.9z M1690.8,112.4c-9.3,9.3-21.7,15.2-35.6,16.2
				c0.9-13.9,6.9-26.4,16.2-35.6c9.3-9.3,21.7-15.2,35.6-16.2C1706.1,90.7,1700.1,103.1,1690.8,112.4z"/>
		</g>
	</g>
	<path class="st6" d="M261.7,62.5l-8.8,8.7l-7.6-7.7h0l-12.1-12.2l-1.1,1.1l-8.8,8.7v0l-1.1,1.1l-8.8,8.7l-9.9-9.9l-1.1,1.1
		l-9.4,9.4l-31.7-0.1l0,3.2L193,75l10.5,10.6l9.9-9.9l7.6,7.7l0,0l1.5,1.5l0.7,0.7l0,0l9.9,9.9l12.2-12.1v0l7.7-7.6l9.9,9.9
		l10.6-10.5l31.7,0.1l0-3.2L273.4,72l-10.5-10.6L261.7,62.5z M233.2,55.9l7.6,7.7l-2.6,2.5l-5.1,5.1l0,0l0,0l-3.8-3.8l-3.8-3.8
		L233.2,55.9z M195.9,73.4l7.7-7.6l7.6,7.7l-7.7,7.6L195.9,73.4z M215.7,73.4l7.7-7.6l7.6,7.7l-2.6,2.5l-5.1,5.1L215.7,73.4z
		 M225.5,83.3l7.7-7.6l7.6,7.7l-7.7,7.6L225.5,83.3z M239.2,77.3l-3.8-3.8l1.8-1.8l5.9-5.8l7.6,7.7l-7.7,7.6L239.2,77.3z
		 M255.2,73.5l7.7-7.6l7.6,7.7l-7.7,7.6L255.2,73.5z"/>
	<path class="st6" d="M576,62.5l-8.8,8.7l-7.6-7.7h0l-12.1-12.2l-1.1,1.1l-8.8,8.7v0l-1.1,1.1l-8.8,8.7l-9.9-9.9l-1.1,1.1l-9.4,9.4
		l-31.7-0.1l0,3.2l31.7,0.1l10.5,10.6l9.9-9.9l7.6,7.7l0,0l1.5,1.5l0.7,0.7l0,0l9.9,9.9l12.2-12.1v0l7.7-7.6l9.9,9.9l10.6-10.5
		l31.7,0.1l0-3.2L587.7,72l-10.5-10.6L576,62.5z M547.5,55.9l7.6,7.7l-2.6,2.5l-5.1,5.1l0,0l0,0l-3.8-3.8l-3.8-3.8L547.5,55.9z
		 M510.2,73.4l7.7-7.6l7.6,7.7l-7.7,7.6L510.2,73.4z M529.9,73.4l7.7-7.6l7.6,7.7l-2.6,2.5l-5.1,5.1L529.9,73.4z M539.8,83.3
		l7.7-7.6l7.6,7.7l-7.7,7.6L539.8,83.3z M553.5,77.3l-3.8-3.8l1.8-1.8l5.9-5.8l7.6,7.7l-7.7,7.6L553.5,77.3z M569.5,73.5l7.7-7.6
		l7.6,7.7l-7.7,7.6L569.5,73.5z"/>
	<path class="st6" d="M1204.6,62.5l-8.8,8.7l-7.6-7.7h0l-12.1-12.2l-1.1,1.1l-8.8,8.7v0l-1.1,1.1l-8.8,8.7l-9.9-9.9l-1.1,1.1
		l-9.4,9.4l-31.7-0.1l0,3.2l31.7,0.1l10.5,10.6l9.9-9.9l7.6,7.7l0,0l1.5,1.5l0.7,0.7l0,0l9.9,9.9l12.2-12.1v0l7.7-7.6l9.9,9.9
		l10.6-10.5l31.7,0.1l0-3.2l-31.7-0.1l-10.5-10.6L1204.6,62.5z M1176.1,55.9l7.6,7.7l-2.6,2.5l-5.1,5.1l0,0l0,0l-3.8-3.8l-3.8-3.8
		L1176.1,55.9z M1138.7,73.4l7.7-7.6l7.6,7.7l-7.7,7.6L1138.7,73.4z M1158.5,73.4l7.7-7.6l7.6,7.7l-2.6,2.5l-5.1,5.1L1158.5,73.4z
		 M1168.4,83.3l7.7-7.6l7.6,7.7L1176,91L1168.4,83.3z M1182.1,77.3l-3.8-3.8l1.8-1.8l5.9-5.8l7.6,7.7l-7.7,7.6L1182.1,77.3z
		 M1198.1,73.5l7.7-7.6l7.6,7.7l-7.7,7.6L1198.1,73.5z"/>
	<path class="st6" d="M1524,62.5l-8.8,8.7l-7.6-7.7h0l-12.1-12.2l-1.1,1.1l-8.8,8.7v0l-1.1,1.1l-8.8,8.7l-9.9-9.9l-1.1,1.1l-9.4,9.4
		l-31.7-0.1l0,3.2l31.7,0.1l10.5,10.6l9.9-9.9l7.6,7.7l0,0l1.5,1.5l0.7,0.7l0,0l9.9,9.9l12.2-12.1v0l7.7-7.6l9.9,9.9l10.6-10.5
		l31.7,0.1l0-3.2l-31.7-0.1l-10.5-10.6L1524,62.5z M1495.5,55.9l7.6,7.7l-2.6,2.5l-5.1,5.1l0,0l0,0l-3.8-3.8l-3.8-3.8L1495.5,55.9z
		 M1458.1,73.4l7.7-7.6l7.6,7.7l-7.7,7.6L1458.1,73.4z M1477.9,73.4l7.7-7.6l7.6,7.7l-2.6,2.5l-5.1,5.1L1477.9,73.4z M1487.8,83.3
		l7.7-7.6l7.6,7.7l-7.7,7.6L1487.8,83.3z M1501.5,77.3l-3.8-3.8l1.8-1.8l5.9-5.8l7.6,7.7l-7.7,7.6L1501.5,77.3z M1517.4,73.5
		l7.7-7.6l7.6,7.7l-7.7,7.6L1517.4,73.5z"/>
	<g>
		<g>
			<circle class="st0" cx="1335.8" cy="71.9" r="72.5"/>
		</g>
		<g>
			<defs>
				<circle id="SVGID_12_" cx="1335.6" cy="72.7" r="63"/>
			</defs>
			<clipPath id="SVGID_6_">
				<use xlink:href="#SVGID_12_"  style="overflow:visible;"/>
			</clipPath>
			<path class="st7" d="M1398.5,69.4c-1.8-31.9-27.3-57.4-59.2-59.2V10h-3.6h-3.6v0.1c-25.7,1.5-47.3,18.4-55.7,41.6
				c-8.3-23.3-29.9-40.2-55.7-41.6V10h-3.6h-3.6v0.1c-31.9,1.8-57.4,27.3-59.2,59.2h-0.1V73v3.6h0.1c1.5,25.8,18.5,47.4,41.8,55.7
				c-23.3,8.3-40.3,29.9-41.8,55.7h-0.1v3.6v3.6h0.1c1.8,31.9,27.3,57.4,59.2,59.2v0.1h3.6h3.6v-0.1c25.7-1.5,47.3-18.4,55.7-41.6
				c8.3,23.2,29.9,40.2,55.7,41.6v0.1h3.6h3.6v-0.1c31.9-1.8,57.4-27.3,59.2-59.2h0.1v-3.6v-3.6h-0.1c-1.5-25.8-18.5-47.4-41.8-55.7
				c23.3-8.3,40.3-29.9,41.8-55.7h0.1V73v-3.6H1398.5z M1256.5,112.4c-9.3,9.3-21.7,15.2-35.6,16.2c0.9-13.9,6.9-26.4,16.2-35.6
				c9.3-9.3,21.7-15.2,35.6-16.2C1271.7,90.7,1265.7,103.1,1256.5,112.4z M1276.4,94.2c6.4,17.7,20.4,31.8,38.2,38.1
				c-17.8,6.3-31.8,20.4-38.2,38.1c-6.4-17.7-20.4-31.8-38.2-38.1C1255.9,126,1270,112,1276.4,94.2z M1256.5,152.3
				c9.3,9.3,15.2,21.7,16.2,35.6c-13.9-0.9-26.4-6.9-35.6-16.2c-9.3-9.3-15.2-21.7-16.2-35.6C1234.7,137,1247.2,143,1256.5,152.3z
				 M1296.3,152.3c9.3-9.3,21.7-15.2,35.6-16.2c-0.9,13.9-6.9,26.4-16.2,35.6c-9.3,9.3-21.7,15.2-35.6,16.2
				C1281,174,1287,161.6,1296.3,152.3z M1296.3,112.4c-9.3-9.3-15.2-21.7-16.2-35.6c13.9,0.9,26.4,6.9,35.6,16.2
				c9.3,9.3,15.2,21.7,16.2,35.6C1318,127.6,1305.5,121.6,1296.3,112.4z M1217.1,111.2c-6.3-17.8-20.4-31.9-38.2-38.2
				c17.8-6.3,31.9-20.4,38.2-38.3c6.3,17.8,20.4,31.9,38.2,38.3C1237.5,79.3,1223.4,93.4,1217.1,111.2z M1255.3,191.7
				c-17.8,6.3-31.9,20.4-38.2,38.2c-6.3-17.8-20.4-31.9-38.2-38.2c17.8-6.3,31.9-20.4,38.2-38.3
				C1223.4,171.3,1237.5,185.4,1255.3,191.7z M1335.7,153.4c6.3,17.8,20.4,31.9,38.2,38.3c-17.8,6.3-31.9,20.4-38.2,38.2
				c-6.3-17.8-20.4-31.9-38.2-38.2C1315.2,185.4,1329.3,171.3,1335.7,153.4z M1297.4,73c17.8-6.3,31.9-20.4,38.2-38.3
				c6.3,17.8,20.4,31.9,38.2,38.3c-17.8,6.3-31.9,20.4-38.2,38.2C1329.3,93.4,1315.2,79.3,1297.4,73z M1391.2,69.2
				c-13.9-0.9-26.4-6.9-35.6-16.2c-9.3-9.3-15.2-21.7-16.2-35.6c13.9,0.9,26.4,6.9,35.6,16.2C1384.3,42.9,1390.3,55.3,1391.2,69.2z
				 M1296.3,33.6c9.3-9.3,21.7-15.2,35.6-16.2c-0.9,13.9-6.9,26.4-16.2,35.6c-9.3,9.3-21.7,15.2-35.6,16.2
				C1281,55.3,1287,42.9,1296.3,33.6z M1272.6,69.2c-13.9-0.9-26.4-6.9-35.6-16.2c-9.3-9.3-15.2-21.7-16.2-35.6
				c13.9,0.9,26.4,6.9,35.6,16.2C1265.7,42.9,1271.7,55.3,1272.6,69.2z M1177.7,33.6c9.3-9.3,21.7-15.2,35.6-16.2
				c-0.9,13.9-6.9,26.4-16.2,35.6c-9.3,9.3-21.7,15.2-35.6,16.2C1162.4,55.3,1168.4,42.9,1177.7,33.6z M1161.5,76.8
				c13.9,0.9,26.4,6.9,35.6,16.2c9.3,9.3,15.2,21.7,16.2,35.6c-13.9-0.9-26.4-6.9-35.6-16.2C1168.4,103.1,1162.4,90.7,1161.5,76.8z
				 M1177.7,152.3c9.3-9.3,21.7-15.2,35.6-16.2c-0.9,13.9-6.9,26.4-16.2,35.6c-9.3,9.3-21.7,15.2-35.6,16.2
				C1162.4,174,1168.4,161.6,1177.7,152.3z M1161.5,195.5c13.9,0.9,26.4,6.9,35.6,16.2c9.3,9.3,15.2,21.7,16.2,35.6
				c-13.9-0.9-26.4-6.9-35.6-16.2C1168.4,221.8,1162.4,209.3,1161.5,195.5z M1256.5,231.1c-9.3,9.3-21.7,15.2-35.6,16.2
				c0.9-13.9,6.9-26.4,16.2-35.6c9.3-9.3,21.7-15.2,35.6-16.2C1271.7,209.3,1265.7,221.8,1256.5,231.1z M1280.1,195.5
				c13.9,0.9,26.4,6.9,35.6,16.2c9.3,9.3,15.2,21.7,16.2,35.6c-13.9-0.9-26.4-6.9-35.6-16.2C1287,221.8,1281,209.3,1280.1,195.5z
				 M1375,231.1c-9.3,9.3-21.7,15.2-35.6,16.2c0.9-13.9,6.9-26.4,16.2-35.6c9.3-9.3,21.7-15.2,35.6-16.2
				C1390.3,209.3,1384.3,221.8,1375,231.1z M1391.2,187.9c-13.9-0.9-26.4-6.9-35.6-16.2c-9.3-9.3-15.2-21.7-16.2-35.6
				c13.9,0.9,26.4,6.9,35.6,16.2C1384.3,161.6,1390.3,174,1391.2,187.9z M1375,112.4c-9.3,9.3-21.7,15.2-35.6,16.2
				c0.9-13.9,6.9-26.4,16.2-35.6c9.3-9.3,21.7-15.2,35.6-16.2C1390.3,90.7,1384.3,103.1,1375,112.4z"/>
		</g>
	</g>
	<path class="st6" d="M889.1,62.5l-8.8,8.7l-7.6-7.7h0l-12.1-12.2l-1.1,1.1l-8.8,8.7v0l-1.1,1.1l-8.8,8.7l-9.9-9.9l-1.1,1.1
		l-9.4,9.4l-31.7-0.1l0,3.2l31.7,0.1l10.5,10.6l9.9-9.9l7.6,7.7l0,0l1.5,1.5l0.7,0.7l0,0l9.9,9.9l12.2-12.1v0l7.7-7.6l9.9,9.9
		l10.6-10.5l31.7,0.1l0-3.2L900.7,72l-10.5-10.6L889.1,62.5z M860.5,55.9l7.6,7.7l-2.6,2.5l-5.1,5.1l0,0l0,0l-3.8-3.8l-3.8-3.8
		L860.5,55.9z M823.2,73.4l7.7-7.6l7.6,7.7l-7.7,7.6L823.2,73.4z M843,73.4l7.7-7.6l7.6,7.7l-2.6,2.5l-5.1,5.1L843,73.4z
		 M852.8,83.3l7.7-7.6l7.6,7.7l-7.7,7.6L852.8,83.3z M866.6,77.3l-3.8-3.8l1.8-1.8l5.9-5.8l7.6,7.7l-7.7,7.6L866.6,77.3z
		 M882.5,73.5l7.7-7.6l7.6,7.7l-7.7,7.6L882.5,73.5z"/>
</g>
</svg>
