<?xml version="1.0" encoding="utf-8"?>
<!-- Generator: Adobe Illustrator 24.0.1, SVG Export Plug-In . SVG Version: 6.00 Build 0)  -->
<svg version="1.1" id="Capa_1" xmlns="http://www.w3.org/2000/svg" xmlns:xlink="http://www.w3.org/1999/xlink" x="0px" y="0px"
	 viewBox="0 0 100 100" style="enable-background:new 0 0 100 100;" xml:space="preserve">
<style type="text/css">
	.st0{fill:#FFFFFF;}
	.st1{fill:#990D1D;}
</style>
<g>
	<g>
		<path d="M85,40.7c-3-5.4-7.2-10.1-12.4-13.6c1.3,1.3,2.5,3,2.4,4.9c-0.1,2.6-0.9,5.1-0.1,7.6c0.4,1.3,1.2,2.5,2.2,3.4
			c0.9,0.7,2.1,1.3,3.2,1.3c1.4,0,2.6-1.1,3-2.4c0.1-0.5-0.1-1.2-0.6-1.4c-0.4-0.2-1.2,0.2-1,0.7c0,0.1,0.1,0.3-0.1,0.4
			c0,0-0.1,0-0.1,0c-0.6-0.1-0.5-1-0.1-1.4c0.3-0.4,0.8-0.6,1.2-0.5c0.8,0.2,1.2,0.7,1.4,1.5c0.1,0.4,0,1.2-0.1,1.5
			c-0.2,0.5-0.4,0.8-0.4,0.8c0.1-0.2,1.8,1.6,1.9,1.8c1.2,1.7,1.7,3.9,2.1,5.9c2,10.3-0.1,23.5-9.4,29.7c-0.3,0.2-0.7,0.4-1,0.6
			c-0.1,1.2-0.4,2.4-0.9,3.5c-0.2,0.3-0.4,0.7-0.6,1c0.5-1.3,0.6-2.6,0.4-3.9c-0.4-2.2-1.8-4.6-3.2-6c-1.1-1.1-2.4-1.8-3.8-2.5
			c-1.4-0.8-2.9-1.6-4.3-2.4c-3.2-1.8-6-4.2-8-7.3c-1.2-1.8-0.8-3.8-1-5.8c-0.1-0.9-0.4-1.7-0.9-2.4c0,0,0,0,0,0
			c-0.7-1.8-2.2-3.1-3.8-4.1c-2.3-1.5-5.4-2.8-6.7-5.3c-0.1-0.4-0.2-0.8-0.2-0.9c0-0.1,0-0.9-0.1-0.9c0,0-0.9-0.1-0.9-0.1
			c0,0-0.8-0.3-0.8-0.3c-0.4-0.2-0.9-0.4-1.3-0.6c-0.6-0.3-1.1-0.7-1.7-1.1c-0.4-0.3-0.7-0.7-1.1-1.1c-0.6-0.7-0.9-1.8-0.9-2.7
			c0-1,0.4-2.1,1.2-2.8c0.7-0.5,1.6-0.7,2.5-0.4c0.7,0.2,1.2,0.8,1.5,1.5c-0.4-0.8-1.2-1.4-2.1-1.4c-1,0-2.1,0.6-2.4,1.6
			c-0.3,0.7-0.2,1.4-0.1,2.1c0.1,0.3,0.1,0.6,0.3,0.8c0.2,0.6,0.8,1.3,1.3,1.7c0.6,0.5,1.2,0.9,1.9,1.2c2.1,1,4.3,1.3,6.6,1.3
			c1.2,0,2.4,0.1,3.5,0.3c1.1,0.2,2.1,0.5,3.2,0.6c1,0.1,2,0,3-0.3c0.3-0.1,0.6-0.2,0.9-0.3c0.1,0.1,0.2,0.1,0.3,0.2
			c0.5,0.3,1,0.5,1.5,0.8c0.5,0.2,1.1,0.4,1.7,0.5c0.6,0,1.2,0,1.9-0.3c0.6-0.3,1.2-0.8,1.4-1.4c0.3-0.6,0.4-1.1,0.5-1.7
			c0.1-0.5,0.1-1,0.6-1.4c-0.6,0.1-0.9,0.7-1.2,1.2c-0.2,0.5-0.5,1-0.7,1.3c-0.3,0.4-0.6,0.6-1,0.7c-0.4,0.1-0.9,0.1-1.3,0.1
			c-0.7,0-1.3-0.3-1.9-0.5c-0.5-0.2-1-0.5-1.5-0.7c-0.3-0.2-0.7-0.3-1-0.6c-0.4-0.2-0.8-0.5-1.2-0.9c-0.3-0.3-0.6-0.7-0.9-1.1
			c-0.2-0.3-0.4-0.7-0.6-1c-0.6-1-0.9-2.2-1-3.3c0.4,1.1,0.9,2.1,1.6,2.9c0.7,0.8,1.6,1.5,2.5,2c0.9,0.5,1.9,0.8,2.9,1
			c0.2,0,0.4,0.1,0.6,0.1c1.1,0,2.2-0.6,3-1.2c0.6-0.4,1.2-0.9,1.9-1c0.1,0,0.4,0,0.7,0c0.3-0.2,0.6-0.4,0.8-0.6
			c-0.7-0.2-1.4-0.2-1.9,0c-0.7,0.2-1.2,0.6-1.8,1c-0.3,0.2-0.6,0.4-1,0.6c-0.8,0.5-1.7,0.6-2.5,0.5c-0.3,0-0.6-0.1-0.9-0.2
			c-1-0.4-1.6-1.3-1.8-2.5c-0.2-1,0-2.3,0.4-3.2c0.3-0.6,0.9-1.1,1.8-1.4c0.1,0,0.2,0,0.3-0.1c-0.1-0.2-0.2-0.5-0.3-0.7
			c-0.2-0.6-0.5-1.1-0.7-1.7c-0.3-0.5-0.6-1.1-0.9-1.6c-0.3-0.5-0.7-1-1-1.5c-0.7-1-1.5-1.9-2.4-2.8c-0.9-0.8-1.9-1.6-3-2
			c1.2,0.4,2.2,1.1,3.2,1.8c1,0.8,1.8,1.7,2.6,2.6c0.4,0.5,0.8,0.9,1.2,1.4c0.4,0.5,0.7,1,1,1.6c0.3,0.5,0.6,1.1,0.9,1.7
			c0.1,0.3,0.3,0.6,0.4,0.9c0,0.1,0,0.1,0.1,0.2c0.1,0,0.3,0,0.5,0c0.9,0,2-0.1,2.7-0.3c2.1-0.6,2.9-1,4.3-1.8
			c-1.2-0.6-3.2-2.1-3.9-3c-1.3-1.7-0.9-3.8-1.8-5.7c-0.3-0.7-0.6-1.3-0.9-2c-0.3,0.4-0.5,0.8-0.6,1.3c-0.3,1-0.4,2.1-0.5,3.2h-0.1
			c-0.1-1.1-0.2-2.2,0-3.3c0.1-0.6,0.3-1.2,0.6-1.7c0.1-0.1,0.2-0.3,0.3-0.4c-0.3-0.6-0.7-1.3-1.2-1.8c2-0.1,4.3-2.3,4.8-4.6
			c0.5-2.1,0-4.4-1.5-5.9c0.3,1.2-0.4,2.4-1.4,3.2c0.3-0.6,0.6-1.2,0.8-1.8c0.4-1.2,0.5-2.5,0.2-3.7c-0.3-1.1-0.9-2-1.7-2.8
			c-1-1.1-2.3-1.9-3.7-2.3c-0.2-0.1-0.4-0.1-0.6,0c-0.2,0.1-0.4,0.3-0.3,0.5c0,0.1,0.1,0.2,0.2,0.2c0.9,0.6,2.1,1,2.8,1.8
			c0.7,0.7,1.1,1.7,1.1,2.7c0.1,1.6-0.5,3.2-1.5,4.5c-0.8,0.9-1.7,1.7-2.8,2.2c-1.3,0.7-2.8,1-4,1.8c-1.3-0.4-2.6-0.6-3.9-0.6
			c-3.3,0-7,0.5-9.8,2.6c-0.2-0.3-0.5-0.5-0.8-0.7c-1.2-0.6-2.5,0-3.6,0.2c-0.9,0.2-2.1,0.5-2.9-0.4c-0.3-0.4-0.5-0.9-0.5-1.4
			c0-1.5,1.4-2.1,2.5-2.7c3.7-1.7,9.1-5.7,6.6-10.9c-0.6-1.3-1-0.5-1.2,0c-0.4,1.3-0.2,2.4-1,3.6c-0.7,1-1.7,1.8-2.8,2.3
			c-3.7,1.8-7.6,2.6-10.4,5.9c-1.9,2.2-2,5-0.3,7.6c1.1,1.7,2.7,3.1,4.5,3.9c0.5-0.4,0.9-0.7,1.5-1.1c0.7-0.5,1.5-0.8,2.2-1
			c0.4-0.1,0.7-0.2,1.1-0.4c0.4-0.1,0.8-0.2,1.2-0.2c0.1,0,0.2,0,0.2,0c0,0.1-0.1,0.2-0.1,0.3c0,0.1-1.1,0.2-1.3,0.3
			c-0.5,0.1-0.9,0.3-1.4,0.5c-0.7,0.3-1.4,0.8-2.1,1.2c0,0-2,1.7-2.1,1.8c-0.8,0.7-1.4,1.6-2.1,2.4c-0.7,0.7-1.3,1.4-2,2.1
			c-0.2,0.2-0.8,1-1.2,1c-0.5,0.3-2.2,0.3-2.2,0.3l2.1,0.9c2.3,1.2,4.8,2,7.4,2.1c0.7,0,1.4,0,2.2-0.1c3.3-0.5,6.5-2.6,7.8-5.7
			c-2.2,3.4-6.5,5.3-10.4,4.9c-1.2-0.1-2.3-0.4-3.4-1c2.2-0.8,3.7-2.9,5.3-4.7c1.6-1.8,4-3.3,6.2-2.5c-1,0.2-2,0.4-3,0.6
			c1,0,2,0,3,0c-1.2,0.4-2.4,0.7-3.6,1.1c1.2-0.1,2.5-0.3,3.7-0.5c-1.3,0.5-2.5,0.9-3.8,1.4c1.3-0.3,2.6-0.6,4-1
			c-1.2,0.6-2.5,1.2-3.7,1.8c1.3-0.4,2.5-0.8,3.8-1.2c-1.1,0.7-2.2,1.3-3.3,2c1.2-0.6,2.5-1.1,3.7-1.6c-1.1,0.7-2.2,1.5-3.2,2.3
			c1.2-0.6,2.4-1.2,3.6-1.8c-0.9,0.9-1.9,1.7-2.8,2.6c1.1-0.7,2.2-1.5,3.3-2.2c-0.6,0.7-1.2,1.3-1.8,2c0.9-0.8,1.8-1.7,2.7-2.5
			c-0.2,1.1-0.5,2.1-1.2,3c-2,2.3-5,3.6-7.9,3.9c0-0.1-1.4,0.1-1.5,0.1c-1.6-0.2-3.3-0.3-4.9-0.6c-0.6-0.1-1.4-0.2-2-0.5
			c0,0-3.2-1.3-3.2-1.3c-1.3-0.6-5.9,7.2-6.3,8c-1,1.9-1.9,3.9-2.6,5.9c-1.2,3.2-1.9,6.6-2.2,10c-0.1,1.3-0.2,3.7-0.2,3.7
			s3.3,1.5,6.9,2.5c3.2,0.9,8.8,1.9,10.4,2.1c-3.7,0.1-7.3-0.3-10.9-1.1c-1.6-0.4-4.4-1.2-5.6,0.4c-0.4,0.5-0.5,1.2-0.4,2.3
			c0.9,6.3,3.4,12.5,7.3,17.6c0.1,0.2,0,0,0.1,0.2l2.4,3.2c0,0,0.7-0.3,0.7-0.4c0.5-0.3,1-0.5,1.4-0.8c1.7-1.1,2.6-3.1,3-5
			c0.1-0.6,0.1-1.3,0-1.9c0-0.1-0.1-0.9-0.2-0.9l-3.8-0.1c0,0-0.2,1.1-0.2,1.2c-0.1,0.4-0.3,0.8-0.5,1.3c-0.2,0.4-0.4,0.8-0.7,1.3
			c0.6-1.2,0.9-2.5,0.7-3.8c-0.3-0.2-0.6-0.3-1-0.5c0.6,0.3,2-1.5,1.1-1.7c-2.1-0.4-3.7-2.5-3.5-4.7c0.1-0.6,0.3-1.2,0.4-1.8
			c0.1-0.8-0.3-1.9-1.3-2c-0.8-0.1-1.7,0.9-1.2,1.7c0.3,0.5,1,0.6,1.4,0.3c-0.3,1.5-2.4,0.3-2.1-1c0.3-1,1.5-1.8,2.5-1.4
			c1.4,0.5,1.8,2.1,2,3.4c0.3,1.7,1,3,2.3,4.1c5.1,4.3,13.6,3.5,17.1-2.3c0.9-1.4,1.4-3.1,1.6-4.7c0-1-0.2-2-0.9-2.8
			c-0.6-0.6-1.2-1.2-2.1-1.3c-0.6-0.1-1.1,0.1-1.7,0.3c-0.5,0.2-0.9,0.5-1.2,0.8c-0.3,0.4-0.4,0.9-0.2,1.4c0.2,0.5,0.7,0.8,1.2,0.6
			c0.3-0.1,0.5-0.4,0.4-0.7c-0.1-0.2-0.5-0.2-0.7,0c-0.1-0.4,0.3-0.7,0.6-0.7c0.4,0,0.6,0.3,0.8,0.6c0.2,0.6,0,1.3-0.5,1.6
			c-0.5,0.4-1.2,0.4-1.8,0.1c-0.6-0.4-1.1-1-1.1-1.7c-0.1-1.4,1-2.6,2.2-3.2c1.3-0.6,3-0.3,4.1,0.5c3.1,2.4,2.3,7.1,0.8,10.1
			c-1.3,2.5-3.6,4.2-6.1,5.5c-2.1,1.1-4.9,1.3-4.9,1.3l-2.1,0c0.2,0,0,1.6-0.1,1.8c-0.1,0.5-0.3,1-0.6,1.5c-0.3,0.6,2,2.2,5.3,2.5
			c0.9,0.1,1.8,0.1,2.6,0.1c1.9,0,3.9,0,5.8,0.4c2.8,0.5,6.3,3,6.3,3l-1-2.1L45,86.8c0.1,0.2,0.2,0.3,0.2,0.3
			c-0.9-1.4-1.1-3.4-0.8-4.9c0.4-2.3,1.5-4.6,3.2-6.2c2.1-2,5.6-3,8.3-2c2.5,0.9,5.2,3.2,5.3,6.1c0,1.4-0.7,3-1.9,3.8
			c-1.1,0.8-2.5,1-3.7,0.3c-1.1-0.7-1.8-2-1.4-3.2c0.2-0.7,0.7-1.4,1.5-1.5c0.7-0.1,1.5,0.5,1.5,1.2c-0.5-0.4-1.5-0.3-1.5,0.5
			c0,0.4,0.3,0.7,0.6,0.9c1.1,0.5,2.3-0.3,2.6-1.4c0.3-1-0.1-2-0.8-2.8c-0.7-0.7-1.6-1.2-2.6-1.5c-1.1-0.3-2.3-0.5-3.5-0.2
			c-1.7,0.4-3,1.8-4,3.2c-1.4,1.9-1.6,4.3-1.1,6.5c0.4,1.8,1.3,3.3,2,5c-0.1,0.2-0.4,0.4-0.6,0.5c-1.9,1.3-4.7,1.2-6.6,0.1
			c-1.4-0.8-2.5-1.9-3.9-2.5c-1.4-0.6-3-0.9-4.5-0.7c-2.1,0.4-2.7,0.5-2.7,0.5s-1.9,0.5-2.7,0.8c-0.8,0.3-1.2,0.6-1.2,0.6s1,3.3,3,5
			c1.9,1.7,4.6,2.7,4.6,2.7l1.4-2.9c-0.1,0.2-1.7-0.7-1.9-0.8c-1.2-0.8-2-2.1-2.6-3.3c-0.2-0.5-0.4-1.1-0.6-1.6
			c0.2,0.4,0.6,1.1,1.5,2.1c1.9,2,3.7,2.6,3.7,2.6l0.7-1.9c0.2,0.4,0.9,1.3,2,2.2c11,8.9,24.5,6.5,35.2-1.6c2.5-1.9,4.8-4.1,6.8-6.6
			l1-1.3c1.4-1.9,2.7-3.9,3.8-6L86,78c0.9-1.9,1.7-3.8,2.3-5.7c0-0.1,0-0.1,0.1-0.2l0.2-0.6C91.6,60.8,90,49.8,85,40.7z M64.9,10.7
			c1.2,2.9-1,6.9-3.9,8.1c0,0,0-0.1-0.1-0.1c-0.3-0.3-0.5-0.5-0.8-0.7c0.3-0.2,0.6-0.3,0.9-0.5c-0.4,0-0.9,0-1.3,0
			c0.4-0.2,0.7-0.4,1.1-0.6c-0.5,0.1-0.9,0.3-1.4,0.4c0.4-0.3,0.7-0.7,1.1-1c-0.4,0.3-0.9,0.6-1.3,0.9c0.3-0.4,0.7-0.9,1-1.3
			c-0.5,0.4-0.9,0.7-1.4,1.1c0.3-0.5,0.7-1.1,1-1.6c-0.5,0.5-1,0.9-1.4,1.4c0,0,0,0-0.1-0.1c0.3-0.5,0.5-0.9,0.8-1.4
			c-0.4,0.4-0.7,0.8-1.1,1.3c-0.1,0-0.1,0-0.1-0.1C59.3,13.8,64.4,13.8,64.9,10.7z M58.9,13.2c0.9-0.7,1.8-1.5,2.4-2.5
			c0.6-0.9,1.1-2,1.3-3.2c0.1-1.1-0.2-2.3-0.6-3.4c0.6,1,1,2.2,0.9,3.4c-0.1,1.2-0.6,2.4-1.3,3.4c-0.7,1-1.6,1.9-2.6,2.5
			c-1,0.7-2,1.2-3,1.8C57,14.5,58,13.9,58.9,13.2z M43,25.3c0.2,0.3,0.4,0.5,0.7,0.7c0.5,0.3,0.8,0.1,1.3-0.1
			c0.2-0.1,0.5-0.2,0.8-0.2c0.2-0.1,0.4-0.3,0.6-0.4c0.6-0.4,1.3-0.7,2-0.8c0.7-0.1,1.5,0,2.2,0.1s1.4,0.4,1.9,0.9
			c0.6,0.4,1,1,1.4,1.5c0.7,1.2,1.1,2.4,1.4,3.7l-0.1,0.1c-0.6-1.1-1.1-2.3-1.9-3.2c-0.4-0.5-0.8-0.9-1.3-1.1
			c-0.5-0.3-1-0.4-1.6-0.5c-0.6-0.1-1.1,0-1.6,0.2c-0.5,0.2-1,0.4-1.5,0.6c-0.5,0.2-1,0.6-1.5,0.9s-0.9,0.8-1.4,1.3l-0.1-0.1
			c0-0.5,0.2-0.9,0.4-1.4c-0.5-0.2-1-0.5-1.3-0.9c0-0.1-0.1-0.1-0.1-0.2c-0.1-0.3-0.2-0.5-0.3-0.8c0-0.2-0.1-0.4-0.1-0.6
			c0,0,0-0.4,0-0.4C42.9,24.7,42.9,25.1,43,25.3z M33.7,21.3L33.7,21.3c0,0,0-0.1,0.1-0.2L33.7,21.3z M34.2,19.3
			c-1.2,0.1-2.5,0-3.7-0.6c-0.6-0.3-1.1-0.6-1.5-1.1c-0.4-0.5-0.7-1.2-0.6-1.9c0.1-1.3,0.7-2.6,1.8-3.4c1.1-0.8,2.3-1.2,3.4-1.6
			c0.6-0.2,1.2-0.5,1.7-0.7c0.5-0.3,1.1-0.6,1.6-1c1-0.7,2-1.5,2.7-2.5c0.3-0.5,0.7-1.1,0.9-1.6c0.2-0.6,0.2-1.2,0.2-1.9
			c0,0.6,0,1.3-0.1,1.9c-0.2,0.6-0.5,1.2-0.8,1.7c-0.6,1.1-1.6,2-2.7,2.7c-0.5,0.4-1,0.7-1.6,1c-0.6,0.3-1.1,0.6-1.7,0.8
			c-1.2,0.5-2.4,0.9-3.3,1.6c-0.9,0.7-1.5,1.9-1.6,3.1c0,0.6,0.1,1.2,0.5,1.6c0.4,0.5,0.9,0.8,1.4,1.1c1.1,0.6,2.3,0.7,3.5,0.7
			c1.2,0,2.5-0.1,3.6,0.6C36.7,19,35.4,19.2,34.2,19.3z M17,43.8c-0.7,1.6-1.3,3.2-1.9,4.8s-1,3.3-1.4,5c-0.4,1.7-0.7,3.4-0.7,5.1
			c-0.3-1.7-0.3-3.5,0-5.2s0.7-3.5,1.3-5.1c0.6-1.7,1.3-3.3,2.1-4.8c0.8-1.5,1.8-3,3-4.3C18.5,40.7,17.7,42.2,17,43.8z M33.6,73.3
			c0.9-0.6,1.6-1.4,2.3-2.2c-0.3,1.1-1,2.1-1.8,2.9c-0.8,0.8-2,1.3-3.1,1.5c-1.1,0.2-2.3,0.3-3.4,0.2c-1.1-0.1-2.2-0.4-3.2-1
			c2.2,0.5,4.3,0.4,6.4-0.1C31.8,74.3,32.8,73.9,33.6,73.3z M53.9,62.5c-0.3-2.2-1.1-4.2-2.2-6c-0.6-0.9-1.2-1.7-2.1-2.3
			c-0.8-0.6-1.8-1.1-2.9-1.5c1.1-0.1,2.3,0.2,3.3,0.8c1,0.5,1.9,1.5,2.4,2.5c0.6,1,1,2,1.3,3.1C54,60.3,54.1,61.4,53.9,62.5z
			 M63.6,96.3c-1.9,0.8-3.9,1.4-5.9,1.6c-2,0.2-4.1,0.3-6.2-0.1c-2-0.3-4-0.9-5.8-2c0.9,0.4,1.9,0.6,2.9,0.8c1,0.2,2,0.4,3,0.5
			c2,0.2,4,0.1,5.9-0.1c2-0.2,3.9-0.7,5.8-1.4c0.9-0.3,1.9-0.7,2.7-1.2c0.9-0.5,1.7-1,2.5-1.6C67.3,94.3,65.5,95.4,63.6,96.3z"/>
		<path d="M70.1,34c0.3,1-0.3,3-1.5,3.2c-0.4,0.1-0.7,0-1-0.3c-0.2-0.1-0.4-0.4-0.4-0.6c-0.1-0.6,0.5-1,1-1.2c0.5-0.2,0.9-0.5,1-1.1
			c0-0.2,0-0.5,0-0.7c-1.4,0.9-2.4,1.3-4.5,1.9c-0.7,0.2-1.9,0.3-2.9,0.3c-0.2,0-0.5,0-0.7,0c0.1,0.3,0.3,0.6,0.6,0.9
			c0.5,0.5,0.8,0.1,1.5-0.1c0.6-0.2,1.6-0.2,1.9,0.4c0.1,0.3,0.1,0.6,0,1c-0.1,0.5-0.4,0.9-0.8,1.2c-1.3,0.9-3.1-0.4-3.4-1.6
			c0-0.1-0.1-0.2-0.1-0.3c-0.1-0.4-0.1-0.9-0.1-1.3l0,0c0,0,0,0,0,0c-0.1,0-0.3,0-0.3,0c-0.6,0.2-1,0.5-1.2,0.9
			c-0.4,0.8-0.5,1.8-0.4,2.7c0.1,0.9,0.6,1.5,1.3,1.8c0.8,0.3,1.9,0.2,2.7-0.2c0.3-0.2,0.6-0.4,0.9-0.6c0.6-0.4,1.2-0.9,2-1.1
			c0.9-0.3,1.9-0.2,3,0.2c0.8-0.9,1.6-1.8,2.1-2.9c0.2-0.6,0.7-3.6-0.6-3.5c-0.1,0.1-0.3,0.2-0.4,0.3c0.1,0.2,0.3,0.5,0.3,0.7
			C70,33.9,70,33.9,70.1,34z"/>
	</g>
	<g>
		<path class="st0" d="M85.2,40.5c-3-5.4-7.2-10.1-12.4-13.6c1.3,1.3,2.5,3,2.4,4.9c-0.1,2.6-0.9,5.1-0.1,7.6
			c0.4,1.3,1.2,2.5,2.2,3.4c0.9,0.7,2.1,1.3,3.2,1.3c1.4,0,2.6-1.1,3-2.4c0.1-0.5-0.1-1.2-0.6-1.4c-0.4-0.2-1.2,0.2-1,0.7
			c0,0.1,0.1,0.3-0.1,0.4c0,0-0.1,0-0.1,0c-0.6-0.1-0.5-1-0.1-1.4c0.3-0.4,0.8-0.6,1.2-0.5c0.8,0.2,1.2,0.7,1.4,1.5
			c0.1,0.4,0,1.2-0.1,1.5c-0.2,0.5-0.4,0.8-0.4,0.8c0.1-0.2,1.8,1.6,1.9,1.8c1.2,1.7,1.7,3.9,2.1,5.9c2,10.3-0.1,23.5-9.4,29.7
			c-0.3,0.2-0.7,0.4-1,0.6c-0.1,1.2-0.4,2.4-0.9,3.5c-0.2,0.3-0.4,0.7-0.6,1c0.5-1.3,0.6-2.6,0.4-3.9c-0.4-2.2-1.8-4.6-3.2-6
			c-1.1-1.1-2.4-1.8-3.8-2.5c-1.4-0.8-2.9-1.6-4.3-2.4c-3.2-1.8-6-4.2-8-7.3c-1.2-1.8-0.8-3.8-1-5.8c-0.1-0.9-0.4-1.7-0.9-2.4
			c0,0,0,0,0,0c-0.7-1.8-2.2-3.1-3.8-4.1c-2.3-1.5-5.4-2.8-6.7-5.3c-0.1-0.4-0.2-0.8-0.2-0.9c0-0.1,0-0.9-0.1-0.9
			c0,0-0.9-0.1-0.9-0.1c0,0-0.8-0.3-0.8-0.3c-0.4-0.2-0.9-0.4-1.3-0.6c-0.6-0.3-1.1-0.7-1.7-1.1c-0.4-0.3-0.7-0.7-1.1-1.1
			c-0.6-0.7-0.9-1.8-0.9-2.7c0-1,0.4-2.1,1.2-2.8c0.7-0.5,1.6-0.7,2.5-0.4c0.7,0.2,1.2,0.8,1.5,1.5c-0.4-0.8-1.2-1.4-2.1-1.4
			c-1,0-2.1,0.6-2.4,1.6c-0.3,0.7-0.2,1.4-0.1,2.1c0.1,0.3,0.1,0.6,0.3,0.8c0.2,0.6,0.8,1.3,1.3,1.7c0.6,0.5,1.2,0.9,1.9,1.2
			c2.1,1,4.3,1.3,6.6,1.3c1.2,0,2.4,0.1,3.5,0.3c1.1,0.2,2.1,0.5,3.2,0.6c1,0.1,2,0,3-0.3c0.3-0.1,0.6-0.2,0.9-0.3
			c0.1,0.1,0.2,0.1,0.3,0.2c0.5,0.3,1,0.5,1.5,0.8c0.5,0.2,1.1,0.4,1.7,0.5c0.6,0,1.2,0,1.9-0.3c0.6-0.3,1.2-0.8,1.4-1.4
			c0.3-0.6,0.4-1.1,0.5-1.7c0.1-0.5,0.1-1,0.6-1.4c-0.6,0.1-0.9,0.7-1.2,1.2c-0.2,0.5-0.5,1-0.7,1.3c-0.3,0.4-0.6,0.6-1,0.7
			c-0.4,0.1-0.9,0.1-1.3,0.1c-0.7,0-1.3-0.3-1.9-0.5c-0.5-0.2-1-0.5-1.5-0.7c-0.3-0.2-0.7-0.3-1-0.6c-0.4-0.2-0.8-0.6-1.2-0.9
			c-0.3-0.3-0.6-0.7-0.9-1.1c-0.2-0.3-0.4-0.7-0.6-1c-0.6-1-0.9-2.2-1-3.3c0.4,1.1,0.9,2.1,1.6,2.9s1.6,1.5,2.5,2
			c0.9,0.5,1.9,0.8,2.9,1c0.2,0,0.4,0.1,0.6,0.1c1.1,0,2.2-0.6,3-1.2c0.6-0.4,1.2-0.9,1.9-1c0.1,0,0.4,0,0.7,0
			c0.3-0.2,0.6-0.4,0.8-0.6c-0.7-0.2-1.4-0.2-1.9,0c-0.7,0.2-1.2,0.6-1.8,1c-0.3,0.2-0.6,0.4-1,0.6c-0.8,0.5-1.7,0.6-2.5,0.5
			c-0.3,0-0.6-0.1-0.9-0.2c-1-0.4-1.6-1.3-1.8-2.5c-0.2-1,0-2.3,0.4-3.2c0.3-0.6,0.9-1.1,1.8-1.4c0.1,0,0.2,0,0.3-0.1
			c-0.1-0.2-0.2-0.5-0.3-0.7c-0.2-0.6-0.5-1.1-0.7-1.7c-0.3-0.5-0.6-1.1-0.9-1.6c-0.3-0.5-0.7-1-1-1.5c-0.7-1-1.5-1.9-2.4-2.8
			c-0.9-0.8-1.9-1.6-3-2c1.2,0.4,2.2,1.1,3.2,1.8c0.9,0.8,1.8,1.7,2.6,2.6c0.4,0.5,0.8,0.9,1.2,1.4c0.4,0.5,0.7,1,1,1.6
			c0.3,0.6,0.6,1.1,0.9,1.7c0.1,0.3,0.3,0.6,0.4,0.9c0,0.1,0,0.1,0.1,0.2c0.1,0,0.3,0,0.5,0c0.9,0,2-0.1,2.7-0.3
			c2.1-0.6,2.9-1,4.3-1.8c-1.2-0.6-3.2-2.1-3.9-3c-1.3-1.7-0.9-3.8-1.8-5.7c-0.3-0.7-0.6-1.3-0.9-2c-0.3,0.4-0.5,0.8-0.6,1.3
			c-0.3,1-0.4,2.1-0.5,3.2h-0.1c-0.1-1.1-0.2-2.2,0-3.3c0.1-0.6,0.3-1.2,0.6-1.7c0.1-0.1,0.2-0.3,0.3-0.4c-0.3-0.6-0.7-1.3-1.2-1.8
			c2-0.1,4.3-2.3,4.8-4.6c0.5-2.1,0-4.4-1.5-5.9c0.3,1.2-0.4,2.4-1.4,3.2c0.3-0.6,0.6-1.2,0.8-1.8c0.4-1.2,0.5-2.5,0.2-3.7
			c-0.3-1.1-0.9-2-1.7-2.8c-1-1.1-2.3-1.9-3.7-2.3c-0.2-0.1-0.4-0.1-0.6,0C58.1,0.8,57.9,1,58,1.2c0,0.1,0.1,0.2,0.2,0.2
			c0.9,0.6,2.1,1,2.8,1.8c0.7,0.7,1.1,1.7,1.1,2.7c0.1,1.6-0.5,3.2-1.5,4.5c-0.8,0.9-1.7,1.7-2.8,2.2c-1.3,0.7-2.8,1-4,1.8
			c-1.3-0.4-2.6-0.6-3.9-0.6c-3.3,0-7,0.5-9.8,2.6c-0.2-0.3-0.5-0.5-0.8-0.7c-1.2-0.6-2.5,0-3.6,0.2c-0.9,0.2-2.1,0.5-2.9-0.4
			c-0.3-0.4-0.5-0.9-0.5-1.4c0-1.5,1.4-2.1,2.5-2.7c3.7-1.7,9.1-5.7,6.6-10.9c-0.6-1.3-1-0.5-1.2,0c-0.4,1.3-0.2,2.4-1,3.6
			c-0.7,1-1.7,1.8-2.8,2.3c-3.7,1.8-7.6,2.6-10.4,5.9c-1.9,2.2-2,5-0.3,7.6c1.1,1.7,2.7,3.1,4.5,3.9c0.5-0.4,0.9-0.7,1.5-1.1
			c0.7-0.5,1.5-0.8,2.2-1c0.4-0.1,0.7-0.2,1.1-0.4c0.4-0.1,0.8-0.2,1.2-0.2c0.1,0,0.2,0,0.2,0c0,0.1-0.1,0.2-0.1,0.3
			c0,0.1-1.1,0.2-1.3,0.3c-0.5,0.1-0.9,0.3-1.4,0.5c-0.7,0.3-1.4,0.8-2.1,1.2c0,0-2,1.7-2.1,1.8c-0.8,0.7-1.4,1.6-2.1,2.4
			c-0.7,0.7-1.3,1.4-2,2.1c-0.2,0.2-0.8,1-1.2,1c-0.5,0.3-2.2,0.3-2.2,0.3l2.1,0.9c2.3,1.2,4.8,2,7.4,2.1c0.7,0,1.4,0,2.2-0.1
			c3.3-0.5,6.5-2.6,7.8-5.7c-2.2,3.4-6.5,5.3-10.4,4.9c-1.2-0.1-2.3-0.4-3.4-1c2.2-0.8,3.7-2.9,5.3-4.7c1.6-1.8,4-3.3,6.2-2.5
			c-1,0.2-2,0.4-3,0.6c1,0,2,0,3,0c-1.2,0.4-2.4,0.7-3.6,1.1c1.2-0.1,2.5-0.3,3.7-0.5c-1.3,0.5-2.5,0.9-3.8,1.4c1.3-0.3,2.6-0.6,4-1
			c-1.2,0.6-2.5,1.2-3.7,1.8c1.3-0.4,2.5-0.8,3.8-1.2c-1.1,0.7-2.2,1.3-3.3,2c1.2-0.6,2.5-1.1,3.7-1.6c-1.1,0.7-2.2,1.5-3.2,2.3
			c1.2-0.6,2.4-1.2,3.6-1.8c-0.9,0.9-1.9,1.7-2.8,2.6c1.1-0.7,2.2-1.5,3.3-2.2c-0.6,0.7-1.2,1.3-1.8,2c0.9-0.8,1.8-1.7,2.7-2.5
			c-0.2,1.1-0.5,2.1-1.2,3c-2,2.3-5,3.6-7.9,3.9c0-0.1-1.4,0.1-1.5,0.1c-1.6-0.2-3.3-0.3-4.9-0.6c-0.6-0.1-1.4-0.2-2-0.5
			c0,0-3.2-1.3-3.2-1.3c-1.3-0.6-5.9,7.2-6.3,8c-1,1.9-1.9,3.9-2.6,5.9c-1.2,3.2-1.9,6.6-2.2,10C10,57.6,10,60,10,60
			s3.3,1.5,6.9,2.5c3.2,0.9,8.8,1.9,10.4,2.1c-3.7,0.1-7.3-0.3-10.9-1.1c-1.6-0.4-4.4-1.2-5.6,0.4c-0.4,0.5-0.5,1.2-0.4,2.3
			c0.9,6.3,3.4,12.5,7.3,17.6c0.1,0.2,0,0,0.1,0.2l2.4,3.2c0,0,0.7-0.3,0.7-0.4c0.5-0.3,1-0.5,1.4-0.8c1.7-1.1,2.6-3.1,3-5
			c0.1-0.6,0.1-1.3,0-1.9c0-0.1-0.1-0.9-0.2-0.9L21.4,78c0,0-0.2,1.1-0.2,1.2c-0.1,0.4-0.3,0.8-0.5,1.3c-0.2,0.4-0.4,0.8-0.7,1.3
			c0.6-1.2,0.9-2.5,0.7-3.8c-0.3-0.2-0.6-0.3-1-0.5c0.6,0.3,2-1.5,1.1-1.7c-2.1-0.4-3.7-2.5-3.5-4.7c0.1-0.6,0.3-1.2,0.4-1.8
			c0.1-0.8-0.3-1.9-1.3-2c-0.8-0.1-1.7,0.9-1.2,1.7c0.3,0.5,1,0.6,1.4,0.3c-0.3,1.5-2.4,0.3-2.1-1c0.3-1,1.5-1.8,2.5-1.4
			c1.4,0.5,1.8,2.1,2,3.4c0.3,1.7,1,3,2.3,4.1c5.1,4.3,13.6,3.5,17.1-2.3c0.9-1.4,1.4-3.1,1.6-4.7c0-1-0.2-2-0.9-2.8
			c-0.6-0.6-1.2-1.2-2.1-1.3c-0.6-0.1-1.1,0.1-1.7,0.3c-0.5,0.2-0.9,0.5-1.2,0.8s-0.4,0.9-0.2,1.4c0.2,0.5,0.7,0.8,1.2,0.6
			c0.3-0.1,0.5-0.4,0.4-0.7c-0.1-0.2-0.5-0.2-0.7,0c-0.1-0.4,0.3-0.7,0.6-0.7c0.4,0,0.6,0.3,0.8,0.6c0.2,0.6,0,1.3-0.5,1.6
			c-0.5,0.4-1.2,0.4-1.8,0.1c-0.6-0.4-1.1-1-1.1-1.7c-0.1-1.4,1-2.6,2.2-3.2c1.3-0.6,3-0.3,4.1,0.5c3.1,2.4,2.3,7.1,0.8,10.1
			c-1.3,2.5-3.6,4.2-6.1,5.5c-2.1,1.1-4.9,1.3-4.9,1.3l-2.1,0c0.2,0,0,1.6-0.1,1.8c-0.1,0.5-0.3,1-0.6,1.5c-0.3,0.6,2,2.2,5.3,2.5
			c0.9,0.1,1.8,0.1,2.6,0.1c1.9,0,3.9,0,5.8,0.4c2.8,0.5,6.3,3,6.3,3l-1-2.1l-0.2-0.3c0.1,0.2,0.2,0.3,0.2,0.3
			c-0.9-1.4-1.1-3.4-0.8-4.9c0.4-2.3,1.5-4.6,3.2-6.2c2.1-2,5.6-3,8.3-2c2.5,0.9,5.2,3.2,5.3,6.1c0,1.4-0.7,3-1.9,3.8
			c-1.1,0.8-2.5,1-3.7,0.3c-1.1-0.7-1.8-2-1.4-3.2c0.2-0.7,0.7-1.4,1.5-1.5c0.7-0.1,1.5,0.5,1.5,1.2c-0.5-0.4-1.5-0.3-1.5,0.5
			c0,0.4,0.3,0.7,0.6,0.9c1.1,0.5,2.3-0.3,2.6-1.4c0.3-1-0.1-2-0.8-2.8c-0.7-0.7-1.6-1.2-2.6-1.5c-1.1-0.3-2.3-0.5-3.5-0.2
			c-1.7,0.4-3,1.8-4,3.2c-1.4,1.9-1.6,4.3-1.1,6.5c0.4,1.8,1.3,3.3,2,5c-0.1,0.2-0.4,0.4-0.6,0.5c-1.9,1.3-4.7,1.2-6.6,0.1
			c-1.4-0.8-2.5-1.9-3.9-2.5c-1.4-0.6-3-0.9-4.5-0.7c-2.1,0.4-2.7,0.5-2.7,0.5s-1.9,0.5-2.7,0.8c-0.8,0.3-1.2,0.6-1.2,0.6s1,3.3,3,5
			c1.9,1.7,4.6,2.7,4.6,2.7l1.4-2.9c-0.1,0.2-1.7-0.7-1.9-0.8c-1.2-0.8-2-2.1-2.6-3.3c-0.2-0.5-0.4-1.1-0.6-1.6
			c0.2,0.4,0.6,1.1,1.5,2.1c1.9,2,3.7,2.6,3.7,2.6l0.7-1.9c0.2,0.4,0.9,1.3,2,2.2c11,8.9,24.5,6.5,35.2-1.6c2.5-1.9,4.8-4.1,6.8-6.6
			l1-1.3c1.4-1.9,2.7-3.9,3.8-6l0.4-0.8c0.9-1.9,1.7-3.8,2.3-5.7c0-0.1,0-0.1,0.1-0.2l0.2-0.6C91.8,60.5,90.3,49.6,85.2,40.5z
			 M65.2,10.5c1.2,2.9-1,6.9-3.9,8.1c0,0,0-0.1-0.1-0.1c-0.3-0.3-0.5-0.5-0.8-0.7c0.3-0.2,0.6-0.3,0.9-0.5c-0.4,0-0.9,0-1.3,0
			c0.4-0.2,0.7-0.4,1.1-0.6c-0.5,0.1-0.9,0.3-1.4,0.4c0.4-0.3,0.7-0.7,1.1-1c-0.4,0.3-0.9,0.6-1.3,0.9c0.3-0.4,0.7-0.9,1-1.3
			c-0.5,0.4-0.9,0.7-1.4,1.1c0.3-0.5,0.7-1.1,1-1.6c-0.5,0.5-1,0.9-1.4,1.4c0,0,0,0-0.1-0.1c0.3-0.5,0.5-0.9,0.8-1.4
			c-0.4,0.4-0.7,0.8-1.1,1.3c-0.1,0-0.1,0-0.1-0.1C59.5,13.6,64.6,13.6,65.2,10.5z M59.2,13c0.9-0.7,1.8-1.5,2.4-2.5
			c0.6-0.9,1.1-2,1.3-3.2C63,6.2,62.7,5,62.3,4c0.6,1,1,2.2,0.9,3.4c-0.1,1.2-0.6,2.4-1.3,3.4c-0.7,1-1.6,1.9-2.6,2.5
			c-1,0.7-2,1.2-3,1.8C57.2,14.3,58.2,13.7,59.2,13z M43.3,25.1c0.2,0.3,0.4,0.5,0.7,0.7c0.5,0.3,0.8,0.1,1.3-0.1
			c0.2-0.1,0.5-0.2,0.8-0.2c0.2-0.1,0.4-0.3,0.6-0.4c0.6-0.4,1.3-0.7,2-0.8c0.7-0.1,1.5,0,2.2,0.1c0.7,0.1,1.4,0.4,1.9,0.9
			c0.6,0.4,1,1,1.4,1.5c0.7,1.2,1.1,2.4,1.4,3.7l-0.1,0.1c-0.6-1.1-1.1-2.3-1.9-3.2c-0.4-0.5-0.8-0.9-1.3-1.1
			c-0.5-0.3-1-0.4-1.6-0.5c-0.6-0.1-1.1,0-1.6,0.2c-0.5,0.2-1,0.4-1.5,0.6c-0.5,0.2-1,0.6-1.5,0.9c-0.5,0.4-0.9,0.8-1.4,1.3
			l-0.1-0.1c0-0.5,0.2-0.9,0.4-1.4c-0.5-0.2-1-0.5-1.3-0.9c0-0.1-0.1-0.1-0.1-0.2c-0.1-0.3-0.2-0.5-0.3-0.8c0-0.2-0.1-0.4-0.1-0.6
			c0,0,0-0.4,0-0.4C43.1,24.5,43.1,24.9,43.3,25.1z M34,21.1L34,21.1c0,0,0-0.1,0.1-0.2L34,21.1z M34.5,19c-1.2,0.1-2.5,0-3.7-0.6
			c-0.6-0.3-1.1-0.6-1.5-1.1c-0.4-0.5-0.7-1.2-0.6-1.9c0.1-1.3,0.7-2.6,1.8-3.4c1.1-0.8,2.3-1.2,3.4-1.6c0.6-0.2,1.2-0.5,1.7-0.7
			c0.5-0.3,1.1-0.6,1.6-1c1-0.7,2-1.5,2.7-2.5c0.3-0.5,0.7-1.1,0.9-1.6c0.2-0.6,0.2-1.2,0.2-1.9c0,0.6,0,1.3-0.1,1.9
			c-0.2,0.6-0.5,1.2-0.8,1.7c-0.6,1.1-1.6,2-2.7,2.7c-0.5,0.4-1,0.7-1.6,1c-0.6,0.3-1.1,0.6-1.7,0.8c-1.2,0.5-2.4,0.9-3.3,1.6
			c-0.9,0.7-1.5,1.9-1.6,3.1c0,0.6,0.1,1.2,0.5,1.6c0.4,0.5,0.9,0.8,1.4,1.1c1.1,0.6,2.3,0.7,3.5,0.7c1.2,0,2.5-0.1,3.6,0.6
			C37,18.7,35.7,18.9,34.5,19z M17.2,43.5c-0.7,1.6-1.3,3.2-1.9,4.8c-0.6,1.6-1,3.3-1.4,5c-0.4,1.7-0.7,3.4-0.7,5.1
			c-0.3-1.7-0.3-3.5,0-5.2c0.3-1.7,0.7-3.5,1.3-5.1c0.6-1.7,1.3-3.3,2.1-4.8c0.8-1.5,1.8-3,3-4.3C18.7,40.4,18,42,17.2,43.5z
			 M33.9,73.1c0.9-0.6,1.6-1.4,2.3-2.2c-0.3,1.1-1,2.1-1.8,2.9c-0.8,0.8-2,1.3-3.1,1.5c-1.1,0.2-2.3,0.3-3.4,0.2
			c-1.1-0.1-2.2-0.4-3.2-1c2.2,0.5,4.3,0.4,6.4-0.1C32.1,74.1,33,73.7,33.9,73.1z M54.1,62.3c-0.3-2.2-1.1-4.2-2.2-6
			c-0.6-0.9-1.2-1.7-2.1-2.3c-0.8-0.6-1.8-1.1-2.9-1.5c1.1-0.1,2.3,0.2,3.3,0.8c1,0.5,1.9,1.5,2.4,2.5c0.6,1,1,2,1.3,3.1
			C54.2,60,54.3,61.2,54.1,62.3z M63.9,96c-1.9,0.8-3.9,1.4-5.9,1.6c-2,0.2-4.1,0.3-6.2-0.1c-2-0.3-4-0.9-5.8-2
			c0.9,0.4,1.9,0.6,2.9,0.8c1,0.2,2,0.4,3,0.5c2,0.2,4,0.1,5.9-0.1c2-0.2,3.9-0.7,5.8-1.4c0.9-0.3,1.9-0.7,2.7-1.2
			c0.9-0.5,1.7-1,2.5-1.6C67.5,94,65.7,95.1,63.9,96z"/>
		<path class="st0" d="M70.3,33.8c0.3,1-0.3,3-1.5,3.2c-0.4,0.1-0.7,0-1-0.3c-0.2-0.1-0.4-0.4-0.4-0.6c-0.1-0.6,0.5-1,1-1.2
			c0.5-0.2,0.9-0.5,1-1.1c0-0.2,0-0.5,0-0.7C68,34,67.1,34.4,65,35c-0.7,0.2-1.9,0.3-2.9,0.3c-0.2,0-0.5,0-0.7,0
			c0.1,0.3,0.3,0.6,0.6,0.9c0.5,0.5,0.8,0.1,1.5-0.1c0.6-0.2,1.6-0.2,1.9,0.4c0.1,0.3,0.1,0.6,0,1c-0.1,0.5-0.4,0.9-0.8,1.2
			c-1.3,0.9-3.1-0.4-3.4-1.6c0-0.1-0.1-0.2-0.1-0.3c-0.1-0.4-0.1-0.9-0.1-1.3l0,0c0,0,0,0,0,0c-0.1,0-0.3,0-0.3,0
			c-0.6,0.2-1,0.5-1.2,0.9C59,37.1,58.8,38.1,59,39c0.1,0.9,0.6,1.5,1.3,1.8c0.8,0.3,1.9,0.2,2.7-0.2c0.3-0.2,0.6-0.4,0.9-0.6
			c0.6-0.4,1.2-0.9,2-1.1c0.9-0.3,1.9-0.2,3,0.2c0.8-0.9,1.6-1.8,2.1-2.9c0.2-0.6,0.7-3.6-0.6-3.5c-0.1,0.1-0.3,0.2-0.4,0.3
			c0.1,0.2,0.3,0.5,0.3,0.7C70.3,33.6,70.3,33.7,70.3,33.8z"/>
	</g>
	<g>
		<path class="st1" d="M85.1,40.6c-3-5.4-7.2-10.1-12.4-13.6c1.3,1.3,2.5,3,2.4,4.9c-0.1,2.6-0.9,5.1-0.1,7.6
			c0.4,1.3,1.2,2.5,2.2,3.4c0.9,0.7,2.1,1.3,3.2,1.3c1.4,0,2.6-1.1,3-2.4c0.1-0.5-0.1-1.2-0.6-1.4c-0.4-0.2-1.2,0.2-1,0.7
			c0,0.1,0.1,0.3-0.1,0.4c0,0-0.1,0-0.1,0c-0.6-0.1-0.5-1-0.1-1.4c0.3-0.4,0.8-0.6,1.2-0.5c0.8,0.2,1.2,0.7,1.4,1.5
			c0.1,0.4,0,1.2-0.1,1.5c-0.2,0.5-0.4,0.8-0.4,0.8c0.1-0.2,1.8,1.6,1.9,1.8c1.2,1.7,1.7,3.9,2.1,5.9c2,10.3-0.1,23.5-9.4,29.7
			c-0.3,0.2-0.7,0.4-1,0.6c-0.1,1.2-0.4,2.4-0.9,3.5c-0.2,0.3-0.4,0.7-0.6,1c0.5-1.3,0.6-2.6,0.4-3.9c-0.4-2.2-1.8-4.6-3.2-6
			c-1.1-1.1-2.4-1.8-3.8-2.5c-1.4-0.8-2.9-1.6-4.3-2.4c-3.2-1.8-6-4.2-8-7.3c-1.2-1.8-0.8-3.8-1-5.8c-0.1-0.9-0.4-1.7-0.9-2.4
			c0,0,0,0,0,0c-0.7-1.8-2.2-3.1-3.8-4.1c-2.3-1.5-5.4-2.8-6.7-5.3c-0.1-0.4-0.2-0.8-0.2-0.9c0-0.1,0-0.9-0.1-0.9
			c0,0-0.9-0.1-0.9-0.1c0,0-0.8-0.3-0.8-0.3c-0.4-0.2-0.9-0.4-1.3-0.6c-0.6-0.3-1.1-0.7-1.7-1.1c-0.4-0.3-0.7-0.7-1.1-1.1
			c-0.6-0.7-0.9-1.8-0.9-2.7c0-1,0.4-2.1,1.2-2.8c0.7-0.5,1.6-0.7,2.5-0.4c0.7,0.2,1.2,0.8,1.5,1.5c-0.4-0.8-1.2-1.4-2.1-1.4
			c-1,0-2.1,0.6-2.4,1.6c-0.3,0.7-0.2,1.4-0.1,2.1c0.1,0.3,0.1,0.6,0.3,0.8c0.2,0.6,0.8,1.3,1.3,1.7c0.6,0.5,1.2,0.9,1.9,1.2
			c2.1,1,4.3,1.3,6.6,1.3c1.2,0,2.4,0.1,3.5,0.3c1.1,0.2,2.1,0.5,3.2,0.6c1,0.1,2,0,3-0.3c0.3-0.1,0.6-0.2,0.9-0.3
			c0.1,0.1,0.2,0.1,0.3,0.2c0.5,0.3,1,0.5,1.5,0.8c0.5,0.2,1.1,0.4,1.7,0.5c0.6,0,1.2,0,1.9-0.3c0.6-0.3,1.2-0.8,1.4-1.4
			c0.3-0.6,0.4-1.1,0.5-1.7c0.1-0.5,0.1-1,0.6-1.4c-0.6,0.1-0.9,0.7-1.2,1.2c-0.2,0.5-0.5,1-0.7,1.3c-0.3,0.4-0.6,0.6-1,0.7
			c-0.4,0.1-0.9,0.1-1.3,0.1c-0.7,0-1.3-0.3-1.9-0.5c-0.5-0.2-1-0.5-1.5-0.7c-0.3-0.2-0.7-0.3-1-0.6c-0.4-0.2-0.8-0.5-1.2-0.9
			c-0.3-0.3-0.6-0.7-0.9-1.1c-0.2-0.3-0.4-0.7-0.6-1c-0.6-1-0.9-2.2-1-3.3c0.4,1.1,0.9,2.1,1.6,2.9c0.7,0.8,1.6,1.5,2.5,2
			c0.9,0.5,1.9,0.8,2.9,1c0.2,0,0.4,0.1,0.6,0.1c1.1,0,2.2-0.6,3-1.2c0.6-0.4,1.2-0.9,1.9-1c0.1,0,0.4,0,0.7,0
			c0.3-0.2,0.6-0.4,0.8-0.7c-0.7-0.2-1.4-0.2-1.9,0c-0.7,0.2-1.2,0.6-1.8,1c-0.3,0.2-0.6,0.4-1,0.6c-0.8,0.5-1.7,0.6-2.5,0.5
			c-0.3,0-0.6-0.1-0.9-0.2c-1-0.4-1.6-1.3-1.8-2.5c-0.2-1,0-2.3,0.4-3.2c0.3-0.6,0.9-1.1,1.8-1.4c0.1,0,0.2,0,0.3-0.1
			c-0.1-0.2-0.2-0.5-0.3-0.7c-0.2-0.6-0.5-1.1-0.7-1.7c-0.3-0.5-0.6-1.1-0.9-1.6c-0.3-0.5-0.7-1-1-1.5c-0.7-1-1.5-1.9-2.4-2.8
			c-0.9-0.8-1.9-1.6-3-2c1.2,0.4,2.2,1.1,3.2,1.8c0.9,0.8,1.8,1.7,2.6,2.6c0.4,0.5,0.8,0.9,1.2,1.4c0.4,0.5,0.7,1,1,1.6
			c0.3,0.5,0.6,1.1,0.9,1.7c0.1,0.3,0.3,0.6,0.4,0.9c0,0.1,0,0.1,0.1,0.2c0.1,0,0.3,0,0.5,0c0.9,0,2-0.1,2.7-0.3
			c2.1-0.6,2.9-1,4.3-1.8c-1.2-0.7-3.2-2.1-3.9-3c-1.3-1.7-0.9-3.8-1.8-5.7c-0.3-0.7-0.6-1.3-0.9-2c-0.3,0.4-0.5,0.8-0.6,1.3
			c-0.3,1-0.4,2.1-0.5,3.2h-0.1c-0.1-1.1-0.2-2.2,0-3.3c0.1-0.6,0.3-1.2,0.6-1.7c0.1-0.1,0.2-0.3,0.3-0.4c-0.3-0.6-0.7-1.3-1.2-1.8
			c2-0.1,4.3-2.3,4.8-4.6c0.5-2.1,0-4.4-1.5-5.9c0.3,1.2-0.4,2.4-1.4,3.2c0.3-0.6,0.6-1.2,0.8-1.8c0.4-1.2,0.5-2.5,0.2-3.7
			c-0.3-1.1-0.9-2-1.7-2.8c-1-1.1-2.3-1.9-3.7-2.3c-0.2-0.1-0.4-0.1-0.6,0c-0.2,0.1-0.4,0.3-0.3,0.5c0,0.1,0.1,0.2,0.2,0.2
			c0.9,0.6,2.1,1,2.8,1.8C61.7,4,62.1,5,62.1,6.1c0.1,1.6-0.5,3.2-1.5,4.5c-0.8,0.9-1.7,1.7-2.8,2.2c-1.3,0.7-2.8,1-4,1.8
			C52.6,14.2,51.2,14,50,14c-3.3,0-7,0.5-9.8,2.6c-0.2-0.3-0.5-0.5-0.8-0.7c-1.2-0.6-2.5,0-3.6,0.2c-0.9,0.2-2.1,0.5-2.9-0.4
			c-0.3-0.4-0.5-0.9-0.5-1.4c0-1.5,1.4-2.1,2.5-2.7C38.6,10,44,6,41.6,0.8c-0.6-1.3-1-0.5-1.2,0c-0.4,1.3-0.2,2.4-1,3.6
			c-0.7,1-1.7,1.8-2.8,2.3c-3.7,1.8-7.6,2.6-10.4,5.9c-1.9,2.2-2,5-0.3,7.6c1.1,1.7,2.7,3.1,4.5,3.9c0.5-0.4,0.9-0.7,1.5-1.1
			c0.7-0.5,1.5-0.8,2.2-1c0.4-0.1,0.7-0.2,1.1-0.4s0.8-0.2,1.2-0.2c0.1,0,0.2,0,0.2,0c0,0.1-0.1,0.2-0.1,0.3c0,0.1-1.1,0.2-1.3,0.3
			c-0.5,0.1-0.9,0.3-1.4,0.5c-0.7,0.3-1.4,0.8-2.1,1.2c0,0-2,1.7-2.1,1.8c-0.8,0.7-1.4,1.6-2.1,2.4c-0.7,0.7-1.3,1.4-2,2.1
			c-0.2,0.2-0.8,1-1.2,1c-0.5,0.3-2.2,0.3-2.2,0.3l2.1,0.9c2.3,1.2,4.8,2,7.4,2.1c0.7,0,1.4,0,2.2-0.1c3.3-0.5,6.5-2.6,7.8-5.7
			c-2.2,3.4-6.5,5.3-10.4,4.9c-1.2-0.1-2.3-0.4-3.4-1c2.2-0.8,3.7-2.9,5.3-4.7c1.6-1.8,4-3.3,6.2-2.5c-1,0.2-2,0.4-3,0.6
			c1,0,2,0,3,0c-1.2,0.4-2.4,0.7-3.6,1.1c1.2-0.1,2.5-0.3,3.7-0.5c-1.3,0.5-2.5,0.9-3.8,1.4c1.3-0.3,2.6-0.6,4-1
			c-1.2,0.6-2.5,1.2-3.7,1.8c1.3-0.4,2.5-0.8,3.8-1.2c-1.1,0.7-2.2,1.3-3.3,2c1.2-0.6,2.5-1.1,3.7-1.6c-1.1,0.7-2.2,1.5-3.2,2.3
			c1.2-0.6,2.4-1.2,3.6-1.8c-0.9,0.9-1.9,1.7-2.8,2.6c1.1-0.7,2.2-1.5,3.3-2.2c-0.6,0.7-1.2,1.3-1.8,2c0.9-0.8,1.8-1.7,2.7-2.5
			c-0.2,1.1-0.5,2.1-1.2,3c-2,2.3-5,3.6-7.9,3.9c0-0.1-1.4,0.1-1.5,0.1c-1.6-0.2-3.3-0.3-4.9-0.6c-0.6-0.1-1.4-0.2-2-0.5
			c0,0-3.2-1.3-3.2-1.3c-1.3-0.6-5.9,7.2-6.3,8c-1,1.9-1.9,3.9-2.6,5.9c-1.2,3.2-1.9,6.6-2.2,10c-0.1,1.3-0.2,3.7-0.2,3.7
			s3.3,1.5,6.9,2.5c3.2,0.9,8.8,1.9,10.4,2.1c-3.7,0.1-7.3-0.3-10.9-1.1c-1.6-0.4-4.4-1.2-5.6,0.4c-0.4,0.5-0.5,1.2-0.4,2.3
			c0.9,6.3,3.4,12.5,7.3,17.6c0.1,0.2,0,0,0.1,0.2l2.4,3.2c0,0,0.7-0.3,0.7-0.4c0.5-0.3,1-0.5,1.4-0.8c1.7-1.1,2.6-3.1,3-5
			c0.1-0.6,0.1-1.3,0-1.9c0-0.1-0.1-0.9-0.2-0.9l-3.8-0.1c0,0-0.2,1.1-0.2,1.2c-0.1,0.4-0.3,0.8-0.5,1.3c-0.2,0.4-0.4,0.8-0.7,1.3
			c0.6-1.2,0.9-2.5,0.7-3.8c-0.3-0.2-0.6-0.3-1-0.5c0.6,0.3,2-1.5,1.1-1.7c-2.1-0.4-3.7-2.5-3.5-4.7c0.1-0.6,0.3-1.2,0.4-1.8
			c0.1-0.8-0.3-1.9-1.3-2c-0.8-0.1-1.7,0.9-1.2,1.7c0.3,0.5,1,0.6,1.4,0.3c-0.3,1.5-2.4,0.3-2.1-1c0.3-1,1.5-1.8,2.5-1.4
			c1.4,0.5,1.8,2.1,2,3.4c0.3,1.7,1,3,2.3,4.1c5.1,4.3,13.6,3.5,17.1-2.3c0.9-1.4,1.4-3.1,1.6-4.7c0-1-0.2-2-0.9-2.8
			c-0.6-0.6-1.2-1.2-2.1-1.3c-0.6-0.1-1.1,0.1-1.7,0.3c-0.5,0.2-0.9,0.5-1.2,0.8c-0.3,0.4-0.4,0.9-0.2,1.4c0.2,0.5,0.7,0.8,1.2,0.6
			c0.3-0.1,0.5-0.4,0.4-0.7c-0.1-0.2-0.5-0.2-0.7,0c-0.1-0.4,0.3-0.7,0.6-0.7c0.4,0,0.6,0.3,0.8,0.6c0.2,0.6,0,1.3-0.5,1.6
			c-0.5,0.4-1.2,0.4-1.8,0.1c-0.6-0.4-1.1-1-1.1-1.7c-0.1-1.4,1-2.6,2.2-3.2c1.3-0.6,3-0.3,4.1,0.5C42.3,65.2,41.6,70,40,73
			c-1.3,2.5-3.6,4.2-6.1,5.5c-2.1,1.1-4.9,1.3-4.9,1.3l-2.1,0c0.2,0,0,1.6-0.1,1.8c-0.2,0.5-0.4,1-0.6,1.5c-0.3,0.6,2,2.2,5.3,2.5
			c0.9,0.1,1.8,0.1,2.6,0.1c1.9,0,3.9,0,5.8,0.4c2.8,0.5,6.3,3,6.3,3l-1-2.1L45,86.6c0.1,0.2,0.2,0.3,0.2,0.3
			c-0.9-1.4-1.1-3.4-0.8-4.9c0.4-2.3,1.5-4.6,3.2-6.2c2.1-2,5.6-3,8.3-2c2.5,0.9,5.2,3.2,5.3,6.1c0,1.4-0.7,3-1.9,3.8
			c-1.1,0.8-2.5,1-3.7,0.3c-1.1-0.7-1.8-2-1.4-3.2c0.2-0.7,0.7-1.4,1.5-1.5c0.7-0.1,1.5,0.5,1.5,1.2c-0.5-0.4-1.5-0.3-1.5,0.5
			c0,0.4,0.3,0.7,0.6,0.9c1.1,0.5,2.3-0.3,2.6-1.4c0.3-1-0.1-2-0.8-2.8c-0.7-0.7-1.6-1.2-2.6-1.5c-1.1-0.3-2.3-0.5-3.5-0.2
			c-1.7,0.4-3,1.8-4,3.2c-1.4,1.9-1.6,4.3-1.1,6.5c0.4,1.8,1.3,3.3,2,5c-0.1,0.2-0.4,0.4-0.6,0.5c-1.9,1.3-4.7,1.2-6.6,0.1
			c-1.4-0.8-2.5-1.9-3.9-2.5c-1.4-0.6-3-0.9-4.5-0.7c-2.1,0.4-2.7,0.5-2.7,0.5S28.7,89,28,89.3c-0.8,0.3-1.2,0.6-1.2,0.6s1,3.3,3,5
			c1.9,1.7,4.6,2.7,4.6,2.7l1.4-2.9c-0.1,0.2-1.7-0.7-1.9-0.8c-1.2-0.8-2-2.1-2.6-3.3c-0.2-0.5-0.4-1.1-0.6-1.6
			c0.2,0.4,0.6,1.1,1.5,2.1c1.9,2,3.7,2.6,3.7,2.6l0.7-1.9c0.2,0.4,0.9,1.3,2,2.2c11,8.9,24.5,6.5,35.2-1.6c2.5-1.9,4.8-4.1,6.8-6.6
			l1-1.3c1.4-1.9,2.7-3.9,3.8-6l0.4-0.8c0.9-1.9,1.7-3.8,2.3-5.7c0-0.1,0-0.1,0.1-0.2l0.2-0.6C91.7,60.7,90.1,49.7,85.1,40.6z
			 M65.1,10.6c1.2,2.9-1,6.9-3.9,8.1c0,0,0-0.1-0.1-0.1c-0.3-0.3-0.5-0.5-0.8-0.7c0.3-0.2,0.6-0.3,0.9-0.5c-0.4,0-0.9,0-1.3,0
			c0.4-0.2,0.7-0.4,1.1-0.6c-0.5,0.1-0.9,0.3-1.4,0.4c0.4-0.3,0.7-0.7,1.1-1c-0.4,0.3-0.9,0.6-1.3,0.9c0.3-0.4,0.7-0.9,1-1.3
			c-0.5,0.4-0.9,0.7-1.4,1.1c0.3-0.5,0.7-1.1,1-1.6c-0.5,0.5-1,0.9-1.4,1.4c0,0,0,0-0.1-0.1c0.3-0.5,0.5-0.9,0.8-1.4
			c-0.4,0.4-0.7,0.8-1.1,1.3c-0.1,0-0.1,0-0.1-0.1C59.4,13.7,64.5,13.7,65.1,10.6z M59.1,13.1c0.9-0.7,1.8-1.5,2.4-2.5
			c0.6-0.9,1.1-2,1.3-3.2c0.1-1.1-0.2-2.3-0.6-3.4c0.6,1,1,2.2,0.9,3.4c-0.1,1.2-0.6,2.4-1.3,3.4c-0.7,1-1.6,1.9-2.6,2.5
			c-1,0.7-2,1.2-3,1.8C57.1,14.4,58.1,13.8,59.1,13.1z M43.2,25.2c0.2,0.3,0.4,0.5,0.7,0.7c0.5,0.3,0.8,0.1,1.3-0.1
			c0.2-0.1,0.5-0.2,0.8-0.2c0.2-0.1,0.4-0.3,0.6-0.4c0.6-0.4,1.3-0.7,2-0.8c0.7-0.1,1.5,0,2.2,0.1c0.7,0.1,1.4,0.4,1.9,0.9
			c0.6,0.4,1,1,1.4,1.5c0.7,1.2,1.1,2.4,1.4,3.7l-0.1,0.1c-0.6-1.1-1.1-2.3-1.9-3.2c-0.4-0.5-0.8-0.9-1.3-1.1
			c-0.5-0.3-1-0.4-1.6-0.5c-0.6-0.1-1.1,0-1.6,0.2c-0.5,0.2-1,0.4-1.5,0.6c-0.5,0.2-1,0.6-1.5,0.9c-0.5,0.4-0.9,0.8-1.4,1.3
			l-0.1-0.1c0-0.5,0.2-0.9,0.4-1.4c-0.5-0.2-1-0.5-1.3-0.9c0-0.1-0.1-0.1-0.1-0.2c-0.1-0.3-0.2-0.5-0.3-0.8c0-0.2-0.1-0.4-0.1-0.6
			c0,0,0-0.4,0-0.4C43,24.6,43,25,43.2,25.2z M33.8,21.2L33.8,21.2c0,0,0-0.1,0.1-0.2L33.8,21.2z M34.4,19.1c-1.2,0.1-2.5,0-3.7-0.6
			c-0.6-0.3-1.1-0.6-1.5-1.1c-0.4-0.5-0.7-1.2-0.6-1.9c0.1-1.3,0.7-2.6,1.8-3.4c1.1-0.8,2.3-1.2,3.4-1.6c0.6-0.2,1.2-0.5,1.7-0.7
			c0.5-0.3,1.1-0.6,1.6-1c1-0.7,2-1.5,2.7-2.5c0.3-0.5,0.7-1.1,0.9-1.6c0.2-0.6,0.2-1.2,0.2-1.9c0,0.6,0,1.3-0.1,1.9
			c-0.2,0.6-0.5,1.2-0.8,1.7c-0.6,1.1-1.6,2-2.7,2.7c-0.5,0.4-1,0.7-1.6,1c-0.6,0.3-1.1,0.6-1.7,0.8c-1.2,0.5-2.4,0.9-3.3,1.6
			c-0.9,0.7-1.5,1.9-1.6,3.1c0,0.6,0.1,1.2,0.5,1.6c0.4,0.5,0.9,0.8,1.4,1.1c1.1,0.6,2.3,0.7,3.5,0.7c1.2,0,2.5-0.1,3.6,0.6
			C36.9,18.8,35.6,19,34.4,19.1z M17.2,43.6c-0.7,1.6-1.3,3.2-1.9,4.8c-0.6,1.6-1,3.3-1.4,5c-0.4,1.7-0.7,3.4-0.7,5.1
			c-0.3-1.7-0.3-3.5,0-5.2c0.3-1.7,0.7-3.5,1.3-5.1c0.6-1.7,1.3-3.3,2.1-4.8c0.8-1.5,1.8-3,3-4.3C18.6,40.5,17.8,42.1,17.2,43.6z
			 M33.8,73.2c0.9-0.6,1.6-1.4,2.3-2.2c-0.3,1.1-1,2.1-1.8,2.9c-0.8,0.8-2,1.3-3.1,1.5c-1.1,0.2-2.3,0.3-3.4,0.2
			c-1.1-0.1-2.2-0.4-3.2-1c2.2,0.5,4.3,0.4,6.4-0.1C32,74.2,32.9,73.8,33.8,73.2z M54,62.4c-0.3-2.2-1.1-4.2-2.2-6
			c-0.6-0.9-1.2-1.7-2.1-2.3c-0.8-0.6-1.8-1.1-2.9-1.5c1.1-0.1,2.3,0.2,3.3,0.8c1,0.5,1.9,1.5,2.4,2.5c0.6,1,1,2,1.3,3.1
			C54.1,60.1,54.2,61.3,54,62.4z M63.8,96.1c-1.9,0.8-3.9,1.4-5.9,1.6c-2,0.2-4.1,0.3-6.2-0.1c-2-0.3-4-0.9-5.8-2
			c0.9,0.4,1.9,0.6,2.9,0.8c1,0.2,2,0.4,3,0.5c2,0.2,4,0.1,5.9-0.1c2-0.2,3.9-0.7,5.8-1.4c0.9-0.3,1.9-0.7,2.7-1.2
			c0.9-0.5,1.7-1,2.5-1.6C67.4,94.1,65.6,95.2,63.8,96.1z"/>
		<path class="st1" d="M70.2,33.9c0.3,1-0.3,3-1.5,3.2c-0.4,0.1-0.7,0-1-0.3c-0.2-0.1-0.4-0.4-0.4-0.6c-0.1-0.6,0.5-1,1-1.2
			c0.5-0.2,0.9-0.5,1-1.1c0-0.2,0-0.5,0-0.7c-1.4,0.9-2.4,1.3-4.5,1.9c-0.7,0.2-1.9,0.3-2.9,0.3c-0.2,0-0.5,0-0.7,0
			c0.1,0.3,0.3,0.6,0.6,0.9c0.5,0.5,0.8,0.2,1.5-0.1c0.6-0.2,1.6-0.2,1.9,0.4c0.1,0.3,0.1,0.6,0,1c-0.1,0.5-0.4,0.9-0.8,1.2
			c-1.3,0.9-3.1-0.4-3.4-1.6c0-0.1-0.1-0.2-0.1-0.3c-0.1-0.4-0.1-0.9-0.1-1.3l0,0c0,0,0,0,0,0c-0.1,0-0.3,0-0.3,0
			c-0.6,0.2-1,0.5-1.2,0.9c-0.4,0.8-0.5,1.8-0.4,2.7c0.1,0.9,0.6,1.5,1.3,1.8c0.8,0.3,1.9,0.2,2.7-0.2c0.3-0.2,0.6-0.4,0.9-0.6
			c0.6-0.4,1.2-0.9,2-1.1c0.9-0.3,1.9-0.2,3,0.2c0.8-0.9,1.6-1.8,2.1-2.9c0.2-0.6,0.7-3.6-0.6-3.5c-0.1,0.1-0.3,0.2-0.4,0.3
			c0.1,0.2,0.3,0.5,0.3,0.7C70.1,33.7,70.2,33.8,70.2,33.9z"/>
	</g>
</g>
</svg>
