<?xml version="1.0" encoding="utf-8"?>
<!-- Generator: Adobe Illustrator 24.0.1, SVG Export Plug-In . SVG Version: 6.00 Build 0)  -->
<svg version="1.1" id="Layer_1" xmlns="http://www.w3.org/2000/svg" xmlns:xlink="http://www.w3.org/1999/xlink" x="0px" y="0px"
	 viewBox="0 0 2228.3 800" style="enable-background:new 0 0 2228.3 800;" xml:space="preserve">
<style type="text/css">
	.st0{fill:#2A72FF;}
	.st1{fill:none;}
	.st2{font-family:'KozGoPr6N-Regular-90ms-RKSJ-H';}
	.st3{font-size:239px;}
</style>
<title>train</title>
<g>
	<path class="st0" d="M586.9,310.1l-150.1-25c-24.4-3.3-49.2-3.3-73.6,0l-150.1,25c-20.9,4.1-36.1,22.2-36.7,43.4v111.8
		c0.1,20.5,16.7,37.2,37.2,37.2v37.3l59.7,29.8l-59.7,119.2h372.7l-59.7-119.2l59.7-29.8v-37.3c20.5-0.1,37.2-16.7,37.2-37.2V353.5
		C623,332.2,607.8,314.2,586.9,310.1z M400,316.2c20.6-0.1,37.4,16.6,37.4,37.2c0.1,20.6-16.6,37.4-37.2,37.4
		c-20.6,0.1-37.4-16.6-37.4-37.2c0,0,0-0.1,0-0.1c-0.1-20.6,16.6-37.3,37.1-37.3C399.9,316.2,400,316.2,400,316.2z M325.4,539.8
		h149.1l18.7,37.2H306.8L325.4,539.8z M530.4,651.6H269.6l18.7-37.3h223.6L530.4,651.6z"/>
	<path class="st0" d="M400,246.3c12.3-0.1,24.5,0.9,36.6,3l149.8,30v-74.9c0-41.1-83.4-74.6-186.3-74.6s-186.3,33.3-186.3,74.6V279
		l149.8-30C375.5,246.9,387.8,246,400,246.3z M437.2,168.5c67.7,6,106.2,27,111.9,36.9v27.8L444.4,213l-6.7-0.9L437.2,168.5z
		 M362.8,211.2l-6.7,0.9l-105.2,21.1v-27.8c5.7-9.9,44.4-30.9,111.9-36.9V211.2z"/>
	<circle class="st0" cx="306.8" cy="111.2" r="18.7"/>
	<circle class="st0" cx="493.2" cy="111.2" r="18.7"/>
</g>
<rect x="710.1" y="278.1" class="st1" width="1453.8" height="225.2"/>
<text transform="matrix(1 0 0 1 710.1279 469.2759)" class="st0 st2 st3">中国火  公司</text>
</svg>
